<svg width="901" height="228" viewBox="0 0 901 228" fill="none" xmlns="http://www.w3.org/2000/svg">
<path d="M98.6535 0L0.0782699 57.1877L0 170.467L98.88 228L197.375 171.001V163.085L115.72 210.342L23.4714 157.742V51.3656L105.822 4.1644L98.6535 0Z" fill="#818286"/>
<path d="M38.168 148.684L38.1866 57.9295L116.363 12.8156L194.564 57.9285L194.591 148.601L167.361 164.286V46.6558H138.269L138.259 180.914L130.763 185.322L131.075 71.0725H101.981L101.955 185.295L94.767 181.205V95.4829H65.6959L65.6818 164.326L38.168 148.684Z" fill="#ED1B24"/>
<path d="M297.852 80.8688C297.852 83.9174 297.476 86.6407 296.722 89.0386C295.969 91.4365 294.942 93.5604 293.641 95.41C292.374 97.2255 290.902 98.784 289.224 100.086C287.547 101.387 285.784 102.466 283.935 103.323C282.121 104.145 280.272 104.744 278.389 105.121C276.54 105.498 274.794 105.686 273.151 105.686L301.036 129.785H280.392L252.557 105.686H242.954V92.3271H273.151C274.828 92.1899 276.352 91.8476 277.721 91.2993C279.125 90.717 280.323 89.9464 281.316 88.987C282.343 88.028 283.131 86.8807 283.678 85.5446C284.226 84.1745 284.5 82.6157 284.5 80.8688V72.4419C284.5 71.6885 284.397 71.1234 284.192 70.7463C284.021 70.3356 283.781 70.0444 283.473 69.8729C283.199 69.6674 282.891 69.5474 282.549 69.5134C282.241 69.479 281.95 69.4618 281.675 69.4618H237.613V129.785H224.261V62.8337C224.261 61.9087 224.432 61.0353 224.774 60.2131C225.116 59.3909 225.579 58.6718 226.161 58.0552C226.777 57.4385 227.496 56.959 228.318 56.6163C229.139 56.2739 230.029 56.1024 230.988 56.1024H281.675C284.654 56.1024 287.17 56.6507 289.224 57.7468C291.279 58.8086 292.939 60.1619 294.206 61.8059C295.507 63.416 296.431 65.1628 296.979 67.0471C297.561 68.9311 297.852 70.6951 297.852 72.3392V80.8688ZM371.804 99.6746H329.641V86.2124H371.804V99.6746ZM377.813 129.785H329.641C327.792 129.785 325.772 129.459 323.581 128.808C321.39 128.157 319.353 127.096 317.47 125.623C315.621 124.116 314.063 122.18 312.797 119.816C311.564 117.419 310.948 114.49 310.948 111.03V62.8337C310.948 61.9087 311.119 61.0353 311.461 60.2131C311.804 59.3909 312.266 58.6718 312.848 58.0552C313.464 57.4385 314.183 56.959 315.005 56.6163C315.826 56.2739 316.717 56.1024 317.675 56.1024H377.813V69.4618H324.3V111.03C324.3 112.777 324.762 114.113 325.687 115.038C326.611 115.963 327.964 116.425 329.744 116.425H377.813V129.785ZM464.243 98.9552C464.243 103.443 463.454 107.57 461.88 111.338C460.341 115.106 458.199 118.361 455.461 121.101C452.723 123.807 449.469 125.931 445.704 127.472C441.939 129.014 437.847 129.785 433.43 129.785H397.38C396.419 129.785 395.528 129.613 394.708 129.271C393.888 128.928 393.166 128.466 392.552 127.883C391.97 127.267 391.507 126.547 391.164 125.726C390.824 124.903 390.652 124.013 390.652 123.054V62.8337C390.652 61.9087 390.824 61.0353 391.164 60.2131C391.507 59.3909 391.97 58.6718 392.552 58.0552C393.166 57.4385 393.888 56.959 394.708 56.6163C395.528 56.2739 396.419 56.1024 397.38 56.1024H433.43C437.847 56.1024 441.939 56.8734 445.704 58.4147C449.469 59.9563 452.723 62.0971 455.461 64.8376C458.199 67.5438 460.341 70.7979 461.88 74.6002C463.454 78.3682 464.243 82.4789 464.243 86.9319V98.9552ZM450.889 86.9319C450.889 84.3285 450.461 81.9478 449.606 79.7899C448.786 77.6316 447.604 75.7992 446.062 74.2919C444.523 72.7503 442.675 71.5685 440.515 70.7463C438.394 69.8901 436.031 69.4618 433.43 69.4618H404.002V116.425H433.43C436.031 116.425 438.394 116.014 440.515 115.192C442.675 114.336 444.523 113.154 446.062 111.647C447.604 110.105 448.786 108.273 449.606 106.149C450.461 103.991 450.889 101.593 450.889 98.9552V86.9319ZM538.041 111.03C538.041 114.49 537.406 117.419 536.14 119.816C534.906 122.18 533.35 124.116 531.467 125.623C529.616 127.096 527.597 128.157 525.406 128.808C523.214 129.459 521.178 129.785 519.295 129.785H476.464V116.425H519.295C521.111 116.425 522.443 115.963 523.302 115.038C524.193 114.113 524.634 112.777 524.634 111.03V99.6746H476.464V86.2124H524.634V74.9598C524.634 71.2946 522.857 69.4618 519.295 69.4618H476.464V56.1024H519.295C521.588 56.1024 523.642 56.3936 525.458 56.9762C527.271 57.5585 528.866 58.3463 530.233 59.3397C531.639 60.2987 532.835 61.412 533.83 62.6793C534.822 63.947 535.625 65.2827 536.242 66.6872C536.859 68.0573 537.304 69.4618 537.578 70.9007C537.886 72.3052 538.041 73.624 538.041 74.857V111.03ZM623.804 108.101C623.804 110.739 623.46 113.12 622.777 115.244C622.125 117.333 621.252 119.183 620.158 120.793C619.061 122.403 617.777 123.773 616.305 124.903C614.833 126.034 613.308 126.958 611.733 127.678C610.159 128.397 608.55 128.928 606.906 129.271C605.297 129.613 603.775 129.785 602.338 129.785H550.826V116.425H602.338C604.904 116.425 606.888 115.672 608.294 114.165C609.732 112.657 610.45 110.636 610.45 108.101C610.45 106.868 610.261 105.738 609.886 104.71C609.507 103.683 608.96 102.792 608.242 102.038C607.558 101.285 606.702 100.702 605.675 100.291C604.683 99.8802 603.568 99.6746 602.338 99.6746H571.627C569.471 99.6746 567.143 99.2979 564.643 98.5444C562.143 97.7563 559.815 96.5061 557.656 94.7933C555.535 93.0805 553.754 90.837 552.316 88.0624C550.914 85.2878 550.209 81.8966 550.209 77.8887C550.209 73.8808 550.914 70.5068 552.316 67.7662C553.754 64.9916 555.535 62.7481 557.656 61.0353C559.815 59.2881 562.143 58.038 564.643 57.2845C567.143 56.4963 569.471 56.1024 571.627 56.1024H617.076V69.4618H571.627C569.092 69.4618 567.108 70.2328 565.67 71.7741C564.264 73.3157 563.563 75.3537 563.563 77.8887C563.563 80.4577 564.264 82.496 565.67 84.003C567.108 85.4762 569.092 86.2124 571.627 86.2124H602.338H602.439C603.877 86.2468 605.402 86.4524 607.011 86.8291C608.62 87.1718 610.212 87.7197 611.786 88.4735C613.395 89.227 614.917 90.186 616.358 91.3509C617.795 92.481 619.061 93.8515 620.158 95.4612C621.287 97.0712 622.177 98.9212 622.826 101.011C623.478 103.1 623.804 105.464 623.804 108.101ZM648.352 129.785H634.998V56.1024H648.352V129.785ZM697.598 82.4101L720.092 56.1024H738.326L706.64 93.0465L738.119 129.785H719.99L697.598 103.683L675.312 129.785H657.13L688.56 93.0465L657.029 56.1024H675.105L697.598 82.4101ZM813.301 69.4618H783.877V129.785H770.523V69.4618H741.046V56.1024H813.301V69.4618ZM893.315 80.7661C893.315 83.8146 892.919 86.538 892.134 88.9358C891.38 91.3337 890.37 93.4576 889.101 95.3072C887.836 97.1228 886.346 98.6812 884.635 99.9829C882.959 101.285 881.209 102.364 879.397 103.22C877.581 104.042 875.733 104.642 873.851 105.019C872.003 105.395 870.254 105.584 868.613 105.584H863.221V129.785H849.766V105.584H844.423C842.782 105.584 841.019 105.395 839.136 105.019C837.285 104.642 835.437 104.042 833.586 103.22C831.774 102.364 830.028 101.285 828.348 99.9829C826.673 98.6812 825.183 97.1228 823.882 95.3072C822.616 93.4576 821.589 91.3337 820.8 88.9358C820.047 86.5036 819.672 83.7806 819.672 80.7661V56.1024H833.022V80.7661C833.022 82.5129 833.295 84.0889 833.846 85.493C834.393 86.8635 835.164 88.0452 836.156 89.0386C837.148 90.032 838.347 90.8026 839.749 91.3509C841.187 91.8647 842.782 92.1215 844.528 92.1215H868.613C869.879 91.916 871.179 91.6592 872.515 91.3509C873.851 91.0082 875.067 90.4431 876.161 89.6553C877.258 88.8674 878.163 87.7713 878.882 86.3668C879.6 84.9623 879.961 83.0955 879.961 80.7661V56.1024H893.315V80.7661Z" fill="#ED1B24"/>
<path d="M225.914 171.877V156.812H232.313C233.922 156.812 235.089 156.949 235.816 157.223C236.548 157.49 237.133 157.97 237.572 158.661C238.01 159.353 238.229 160.145 238.229 161.035C238.229 162.166 237.897 163.101 237.233 163.841C236.569 164.574 235.576 165.036 234.254 165.228C234.912 165.612 235.453 166.033 235.877 166.492C236.308 166.951 236.887 167.766 237.613 168.938L239.451 171.877H235.816L233.617 168.599C232.837 167.427 232.303 166.691 232.015 166.389C231.728 166.081 231.423 165.872 231.101 165.762C230.779 165.646 230.269 165.588 229.571 165.588H228.954V171.877H225.914ZM228.954 163.183H231.204C232.662 163.183 233.573 163.121 233.936 162.998C234.299 162.875 234.583 162.662 234.788 162.361C234.994 162.06 235.096 161.683 235.096 161.23C235.096 160.724 234.959 160.316 234.686 160.008C234.418 159.693 234.038 159.494 233.545 159.412C233.299 159.377 232.56 159.36 231.327 159.36H228.954V163.183ZM259.101 171.877H255.793L254.478 168.455H248.46L247.217 171.877H243.992L249.857 156.812H253.072L259.101 171.877ZM253.503 165.917L251.428 160.326L249.395 165.917H253.503ZM265.141 171.877V156.812H270.019C271.868 156.812 273.073 156.887 273.635 157.038C274.497 157.264 275.22 157.757 275.802 158.518C276.384 159.271 276.675 160.248 276.675 161.447C276.675 162.371 276.507 163.149 276.172 163.779C275.836 164.409 275.408 164.906 274.888 165.269C274.374 165.626 273.851 165.862 273.316 165.978C272.591 166.122 271.54 166.194 270.163 166.194H268.181V171.877H265.141ZM268.181 159.36V163.635H269.845C271.043 163.635 271.844 163.556 272.248 163.399C272.652 163.241 272.967 162.995 273.193 162.659C273.426 162.323 273.543 161.933 273.543 161.488C273.543 160.939 273.382 160.487 273.06 160.131C272.738 159.775 272.331 159.552 271.838 159.463C271.474 159.395 270.745 159.36 269.65 159.36H268.181ZM283.496 171.877V156.812H286.536V171.877H283.496ZM293.85 156.812H299.406C300.659 156.812 301.615 156.908 302.272 157.099C303.155 157.36 303.912 157.822 304.542 158.487C305.172 159.151 305.651 159.967 305.98 160.933C306.309 161.892 306.473 163.077 306.473 164.488C306.473 165.728 306.319 166.797 306.011 167.694C305.634 168.791 305.097 169.678 304.398 170.356C303.871 170.87 303.159 171.27 302.262 171.558C301.591 171.771 300.694 171.877 299.571 171.877H293.85V156.812ZM296.89 159.36V169.339H299.16C300.009 169.339 300.622 169.291 300.998 169.195C301.491 169.072 301.899 168.862 302.221 168.568C302.549 168.274 302.817 167.791 303.022 167.119C303.227 166.441 303.33 165.519 303.33 164.355C303.33 163.19 303.227 162.296 303.022 161.672C302.817 161.049 302.529 160.563 302.159 160.213C301.789 159.864 301.32 159.627 300.752 159.504C300.327 159.408 299.496 159.36 298.256 159.36H296.89ZM323.75 171.877V156.812H334.915V159.36H326.791V162.7H334.35V165.238H326.791V169.339H335.202V171.877H323.75ZM342.229 171.877V156.812H345.187L351.348 166.872V156.812H354.174V171.877H351.124L345.053 162.053V171.877H342.229ZM365.206 171.877V159.36H360.737V156.812H372.702V159.36H368.246V171.877H365.206ZM379.093 171.877V156.812H390.259V159.36H382.133V162.7H389.691V165.238H382.133V169.339H390.547V171.877H379.093ZM397.551 171.877V156.812H403.949C405.559 156.812 406.726 156.949 407.452 157.223C408.185 157.49 408.77 157.97 409.208 158.661C409.646 159.353 409.867 160.145 409.867 161.035C409.867 162.166 409.534 163.101 408.868 163.841C408.206 164.574 407.213 165.036 405.892 165.228C406.547 165.612 407.091 166.033 407.515 166.492C407.946 166.951 408.525 167.766 409.25 168.938L411.087 171.877H407.452L405.254 168.599C404.472 167.427 403.939 166.691 403.651 166.389C403.364 166.081 403.059 165.872 402.736 165.762C402.417 165.646 401.906 165.588 401.208 165.588H400.591V171.877H397.551ZM400.591 163.183H402.842C404.3 163.183 405.208 163.121 405.573 162.998C405.934 162.875 406.221 162.662 406.425 162.361C406.631 162.06 406.733 161.683 406.733 161.23C406.733 160.724 406.596 160.316 406.323 160.008C406.056 159.693 405.674 159.494 405.183 159.412C404.935 159.377 404.195 159.36 402.964 159.36H400.591V163.183ZM417.159 171.877V156.812H422.036C423.887 156.812 425.093 156.887 425.654 157.038C426.517 157.264 427.239 157.757 427.821 158.518C428.403 159.271 428.694 160.248 428.694 161.447C428.694 162.371 428.525 163.149 428.189 163.779C427.856 164.409 427.428 164.906 426.906 165.269C426.394 165.626 425.868 165.862 425.335 165.978C424.609 166.122 423.558 166.194 422.183 166.194H420.199V171.877H417.159ZM420.199 159.36V163.635H421.864C423.06 163.635 423.863 163.556 424.266 163.399C424.669 163.241 424.984 162.995 425.212 162.659C425.444 162.323 425.559 161.933 425.559 161.488C425.559 160.939 425.398 160.487 425.079 160.131C424.757 159.775 424.35 159.552 423.856 159.463C423.494 159.395 422.765 159.36 421.668 159.36H420.199ZM435.618 171.877V156.812H442.016C443.625 156.812 444.792 156.949 445.518 157.223C446.251 157.49 446.836 157.97 447.275 158.661C447.713 159.353 447.93 160.145 447.93 161.035C447.93 162.166 447.601 163.101 446.935 163.841C446.272 164.574 445.28 165.036 443.958 165.228C444.614 165.612 445.154 166.033 445.581 166.492C446.012 166.951 446.591 167.766 447.317 168.938L449.154 171.877H445.518L443.32 168.599C442.538 167.427 442.005 166.691 441.718 166.389C441.43 166.081 441.125 165.872 440.803 165.762C440.48 165.646 439.972 165.588 439.274 165.588H438.657V171.877H435.618ZM438.657 163.183H440.908C442.366 163.183 443.274 163.121 443.639 162.998C444 162.875 444.284 162.662 444.491 162.361C444.698 162.06 444.799 161.683 444.799 161.23C444.799 160.724 444.663 160.316 444.389 160.008C444.123 159.693 443.741 159.494 443.25 159.412C443.001 159.377 442.261 159.36 441.031 159.36H438.657V163.183ZM455.131 171.877V156.812H458.174V171.877H455.131ZM464.727 166.975L467.686 166.687C467.861 167.681 468.222 168.41 468.762 168.876C469.312 169.342 470.049 169.575 470.971 169.575C471.952 169.575 472.685 169.37 473.179 168.959C473.681 168.54 473.929 168.054 473.929 167.499C473.929 167.143 473.824 166.842 473.61 166.595C473.407 166.341 473.042 166.122 472.524 165.937C472.166 165.814 471.356 165.595 470.087 165.279C468.457 164.875 467.314 164.379 466.658 163.789C465.733 162.96 465.27 161.95 465.27 160.758C465.27 159.99 465.487 159.275 465.919 158.61C466.357 157.939 466.984 157.428 467.798 157.079C468.618 156.729 469.61 156.555 470.767 156.555C472.657 156.555 474.077 156.969 475.027 157.798C475.987 158.627 476.489 159.734 476.538 161.117L473.498 161.251C473.369 160.477 473.088 159.922 472.657 159.586C472.233 159.244 471.591 159.073 470.736 159.073C469.852 159.073 469.161 159.254 468.66 159.617C468.338 159.85 468.176 160.162 468.176 160.552C468.176 160.908 468.327 161.214 468.629 161.467C469.014 161.789 469.943 162.125 471.423 162.474C472.902 162.823 473.996 163.187 474.701 163.563C475.412 163.933 475.966 164.444 476.363 165.095C476.769 165.739 476.969 166.537 476.969 167.489C476.969 168.352 476.731 169.161 476.25 169.914C475.77 170.668 475.093 171.229 474.217 171.6C473.34 171.963 472.247 172.144 470.939 172.144C469.035 172.144 467.573 171.706 466.553 170.829C465.533 169.945 464.926 168.66 464.727 166.975ZM483.946 171.877V156.812H495.108V159.36H486.985V162.7H494.544V165.238H486.985V169.339H495.396V171.877H483.946ZM512.655 156.812H518.212C519.463 156.812 520.417 156.908 521.076 157.099C521.959 157.36 522.717 157.822 523.344 158.487C523.975 159.151 524.456 159.967 524.785 160.933C525.111 161.892 525.276 163.077 525.276 164.488C525.276 165.728 525.122 166.797 524.813 167.694C524.438 168.791 523.902 169.678 523.2 170.356C522.675 170.87 521.963 171.27 521.065 171.558C520.396 171.771 519.498 171.877 518.373 171.877H512.655V156.812ZM515.694 159.36V169.339H517.963C518.811 169.339 519.425 169.291 519.803 169.195C520.294 169.072 520.701 168.862 521.023 168.568C521.353 168.274 521.619 167.791 521.826 167.119C522.03 166.441 522.135 165.519 522.135 164.355C522.135 163.19 522.03 162.296 521.826 161.672C521.619 161.049 521.332 160.563 520.964 160.213C520.592 159.864 520.122 159.627 519.554 159.504C519.13 159.408 518.299 159.36 517.058 159.36H515.694ZM532.281 171.877V156.812H543.447V159.36H535.324V162.7H542.882V165.238H535.324V169.339H543.734V171.877H532.281ZM554.571 171.877L549.189 156.812H552.485L556.296 167.962L559.984 156.812H563.209L557.817 171.877H554.571ZM569.176 171.877V156.812H580.342V159.36H572.219V162.7H579.778V165.238H572.219V169.339H580.63V171.877H569.176ZM587.708 171.877V156.935H590.747V169.339H598.306V171.877H587.708ZM604.287 164.437C604.287 162.902 604.515 161.614 604.974 160.573C605.314 159.806 605.78 159.117 606.369 158.507C606.965 157.897 607.618 157.445 608.322 157.151C609.258 156.754 610.342 156.555 611.569 156.555C613.784 156.555 615.558 157.243 616.887 158.62C618.223 159.997 618.892 161.912 618.892 164.365C618.892 166.797 618.23 168.701 616.908 170.079C615.586 171.449 613.819 172.134 611.607 172.134C609.37 172.134 607.589 171.452 606.268 170.089C604.946 168.719 604.287 166.835 604.287 164.437ZM607.418 164.334C607.418 166.04 607.81 167.335 608.599 168.218C609.388 169.095 610.387 169.534 611.597 169.534C612.81 169.534 613.802 169.099 614.577 168.229C615.358 167.352 615.748 166.04 615.748 164.293C615.748 162.567 615.369 161.278 614.608 160.429C613.854 159.579 612.852 159.155 611.597 159.155C610.345 159.155 609.335 159.586 608.568 160.45C607.8 161.306 607.418 162.601 607.418 164.334ZM625.69 171.877V156.812H630.57C632.418 156.812 633.624 156.887 634.185 157.038C635.047 157.264 635.769 157.757 636.351 158.518C636.933 159.271 637.224 160.248 637.224 161.447C637.224 162.371 637.056 163.149 636.723 163.779C636.386 164.409 635.959 164.906 635.436 165.269C634.925 165.626 634.402 165.862 633.866 165.978C633.14 166.122 632.088 166.194 630.714 166.194H628.73V171.877H625.69ZM628.73 159.36V163.635H630.395C631.594 163.635 632.393 163.556 632.8 163.399C633.203 163.241 633.519 162.995 633.743 162.659C633.974 162.323 634.094 161.933 634.094 161.488C634.094 160.939 633.932 160.487 633.61 160.131C633.287 159.775 632.881 159.552 632.386 159.463C632.025 159.395 631.296 159.36 630.199 159.36H628.73ZM644.096 171.877V156.812H648.646L651.381 167.088L654.08 156.812H658.641V171.877H655.816V160.018L652.829 171.877H649.901L646.921 160.018V171.877H644.096ZM666.077 171.877V156.812H677.243V159.36H669.117V162.7H676.679V165.238H669.117V169.339H677.531V171.877H666.077ZM684.557 171.877V156.812H687.516L693.679 166.872V156.812H696.501V171.877H693.451L687.382 162.053V171.877H684.557ZM707.534 171.877V159.36H703.064V156.812H715.033V159.36H710.573V171.877H707.534ZM730.921 166.975L733.88 166.687C734.059 167.681 734.417 168.41 734.96 168.876C735.507 169.342 736.243 169.575 737.169 169.575C738.147 169.575 738.883 169.37 739.374 168.959C739.875 168.54 740.124 168.054 740.124 167.499C740.124 167.143 740.019 166.842 739.805 166.595C739.602 166.341 739.237 166.122 738.718 165.937C738.361 165.814 737.551 165.595 736.285 165.279C734.655 164.875 733.512 164.379 732.853 163.789C731.927 162.96 731.468 161.95 731.468 160.758C731.468 159.99 731.682 159.275 732.113 158.61C732.551 157.939 733.179 157.428 733.992 157.079C734.816 156.729 735.805 156.555 736.962 156.555C738.852 156.555 740.271 156.969 741.225 157.798C742.182 158.627 742.687 159.734 742.732 161.117L739.693 161.251C739.563 160.477 739.283 159.922 738.851 159.586C738.427 159.244 737.786 159.073 736.93 159.073C736.047 159.073 735.356 159.254 734.855 159.617C734.536 159.85 734.375 160.162 734.375 160.552C734.375 160.908 734.525 161.214 734.827 161.467C735.209 161.789 736.141 162.125 737.617 162.474C739.097 162.823 740.191 163.187 740.895 163.563C741.607 163.933 742.161 164.444 742.561 165.095C742.964 165.739 743.164 166.537 743.164 167.489C743.164 168.352 742.925 169.161 742.445 169.914C741.968 170.668 741.288 171.229 740.412 171.6C739.535 171.963 738.445 172.144 737.137 172.144C735.233 172.144 733.772 171.706 732.751 170.829C731.731 169.945 731.121 168.66 730.921 166.975ZM749.523 164.437C749.523 162.902 749.755 161.614 750.21 160.573C750.554 159.806 751.02 159.117 751.609 158.507C752.205 157.897 752.854 157.445 753.562 157.151C754.498 156.754 755.581 156.555 756.805 156.555C759.024 156.555 760.798 157.243 762.127 158.62C763.462 159.997 764.129 161.912 764.129 164.365C764.129 166.797 763.469 168.701 762.148 170.079C760.826 171.449 759.059 172.134 756.847 172.134C754.607 172.134 752.829 171.452 751.508 170.089C750.186 168.719 749.523 166.835 749.523 164.437ZM752.657 164.334C752.657 166.04 753.05 167.335 753.839 168.218C754.624 169.095 755.623 169.534 756.836 169.534C758.049 169.534 759.042 169.099 759.816 168.229C760.595 167.352 760.987 166.04 760.987 164.293C760.987 162.567 760.605 161.278 759.848 160.429C759.094 159.579 758.092 159.155 756.836 159.155C755.585 159.155 754.575 159.586 753.807 160.45C753.04 161.306 752.657 162.601 752.657 164.334ZM771.011 171.877V156.935H774.05V169.339H781.612V171.877H771.011ZM788.186 156.812H791.225V164.971C791.225 166.266 791.264 167.105 791.337 167.489C791.471 168.106 791.776 168.602 792.263 168.979C792.757 169.349 793.427 169.534 794.275 169.534C795.138 169.534 795.79 169.359 796.228 169.01C796.666 168.654 796.929 168.218 797.02 167.705C797.108 167.191 797.154 166.338 797.154 165.146V156.812H800.193V164.724C800.193 166.533 800.109 167.811 799.944 168.558C799.783 169.304 799.478 169.935 799.033 170.449C798.594 170.963 798.005 171.373 797.266 171.682C796.526 171.983 795.558 172.134 794.37 172.134C792.929 172.134 791.839 171.97 791.092 171.641C790.352 171.305 789.767 170.873 789.336 170.346C788.904 169.811 788.62 169.253 788.484 168.671C788.284 167.807 788.186 166.533 788.186 164.848V156.812ZM811.215 171.877V159.36H806.746V156.812H818.711V159.36H814.255V171.877H811.215ZM825.007 171.877V156.812H828.05V171.877H825.007ZM834.757 164.437C834.757 162.902 834.985 161.614 835.444 160.573C835.788 159.806 836.254 159.117 836.843 158.507C837.439 157.897 838.088 157.445 838.792 157.151C839.732 156.754 840.812 156.555 842.039 156.555C844.258 156.555 846.032 157.243 847.361 158.62C848.693 159.997 849.362 161.912 849.362 164.365C849.362 166.797 848.7 168.701 847.378 170.079C846.06 171.449 844.293 172.134 842.081 172.134C839.841 172.134 838.06 171.452 836.738 170.089C835.416 168.719 834.757 166.835 834.757 164.437ZM837.888 164.334C837.888 166.04 838.284 167.335 839.069 168.218C839.858 169.095 840.857 169.534 842.07 169.534C843.283 169.534 844.275 169.099 845.047 168.229C845.829 167.352 846.218 166.04 846.218 164.293C846.218 162.567 845.839 161.278 845.078 160.429C844.325 159.579 843.322 159.155 842.07 159.155C840.815 159.155 839.806 159.586 839.041 160.45C838.273 161.306 837.888 162.601 837.888 164.334ZM856.192 171.877V156.812H859.151L865.314 166.872V156.812H868.14V171.877H865.086L859.018 162.053V171.877H856.192ZM875.011 166.975L877.97 166.687C878.145 167.681 878.507 168.41 879.046 168.876C879.593 169.342 880.33 169.575 881.255 169.575C882.233 169.575 882.969 169.37 883.464 168.959C883.965 168.54 884.214 168.054 884.214 167.499C884.214 167.143 884.109 166.842 883.895 166.595C883.688 166.341 883.327 166.122 882.805 165.937C882.451 165.814 881.637 165.595 880.372 165.279C878.741 164.875 877.598 164.379 876.943 163.789C876.017 162.96 875.555 161.95 875.555 160.758C875.555 159.99 875.772 159.275 876.203 158.61C876.641 157.939 877.265 157.428 878.082 157.079C878.903 156.729 879.891 156.555 881.048 156.555C882.941 156.555 884.361 156.969 885.311 157.798C886.272 158.627 886.773 159.734 886.822 161.117L883.783 161.251C883.653 160.477 883.373 159.922 882.941 159.586C882.514 159.244 881.876 159.073 881.02 159.073C880.137 159.073 879.443 159.254 878.945 159.617C878.622 159.85 878.461 160.162 878.461 160.552C878.461 160.908 878.612 161.214 878.913 161.467C879.295 161.789 880.228 162.125 881.707 162.474C883.187 162.823 884.277 163.187 884.985 163.563C885.697 163.933 886.251 164.444 886.647 165.095C887.05 165.739 887.254 166.537 887.254 167.489C887.254 168.352 887.015 169.161 886.535 169.914C886.055 170.668 885.378 171.229 884.501 171.6C883.625 171.963 882.531 172.144 881.223 172.144C879.32 172.144 877.858 171.706 876.838 170.829C875.818 169.945 875.208 168.66 875.011 166.975Z" fill="#818286"/>
</svg>
