<svg width="50" height="35" viewBox="0 0 50 35" fill="none" xmlns="http://www.w3.org/2000/svg">
<path d="M17.217 34.4508C16.9987 34.4508 16.7826 34.4064 16.5819 34.3204C16.3813 34.2344 16.2001 34.1085 16.0496 33.9504L0.483573 18.3845C0.330261 18.2311 0.208648 18.0491 0.125677 17.8488C0.0427051 17.6485 0 17.4338 0 17.217C0 17.0002 0.0427051 16.7855 0.125677 16.5852C0.208648 16.3849 0.330261 16.2029 0.483573 16.0496C0.636885 15.8962 0.818892 15.7746 1.0192 15.6917C1.21951 15.6087 1.43421 15.566 1.65102 15.566C1.86784 15.566 2.08253 15.6087 2.28284 15.6917C2.48315 15.7746 2.66516 15.8962 2.81847 16.0496L17.217 30.4203L47.1815 0.483574C47.4912 0.173947 47.9111 0 48.349 0C48.7869 0 49.2068 0.173947 49.5164 0.483574C49.8261 0.793201 50 1.21314 50 1.65102C50 2.0889 49.8261 2.50884 49.5164 2.81847L18.3845 33.9504C18.2339 34.1085 18.0528 34.2344 17.8521 34.3204C17.6514 34.4064 17.4353 34.4508 17.217 34.4508Z" fill="#ED1B24"/>
</svg>
