<svg width="24" height="24" viewBox="0 0 24 24" fill="none" xmlns="http://www.w3.org/2000/svg">
<path d="M19 21.5H14.3631C15.142 20.8045 15.8766 20.0608 16.5625 19.2734C19.1359 16.3138 20.5 13.1937 20.5 10.25C20.5 8.06196 19.6308 5.96354 18.0836 4.41637C16.5365 2.86919 14.438 2 12.25 2C10.062 2 7.96354 2.86919 6.41637 4.41637C4.86919 5.96354 4 8.06196 4 10.25C4 13.1937 5.36031 16.3138 7.9375 19.2734C8.62338 20.0608 9.35795 20.8045 10.1369 21.5H5.5C5.30109 21.5 5.11032 21.579 4.96967 21.7197C4.82902 21.8603 4.75 22.0511 4.75 22.25C4.75 22.4489 4.82902 22.6397 4.96967 22.7803C5.11032 22.921 5.30109 23 5.5 23H19C19.1989 23 19.3897 22.921 19.5303 22.7803C19.671 22.6397 19.75 22.4489 19.75 22.25C19.75 22.0511 19.671 21.8603 19.5303 21.7197C19.3897 21.579 19.1989 21.5 19 21.5ZM5.5 10.25C5.5 8.45979 6.21116 6.7429 7.47703 5.47703C8.7429 4.21116 10.4598 3.5 12.25 3.5C14.0402 3.5 15.7571 4.21116 17.023 5.47703C18.2888 6.7429 19 8.45979 19 10.25C19 15.6153 13.7997 20.0938 12.25 21.3125C10.7003 20.0938 5.5 15.6153 5.5 10.25ZM16 10.25C16 9.50832 15.7801 8.7833 15.368 8.16661C14.956 7.54993 14.3703 7.06928 13.6851 6.78545C12.9998 6.50162 12.2458 6.42736 11.5184 6.57205C10.791 6.71675 10.1228 7.0739 9.59835 7.59835C9.0739 8.1228 8.71675 8.79098 8.57205 9.51841C8.42736 10.2458 8.50162 10.9998 8.78545 11.6851C9.06928 12.3703 9.54993 12.956 10.1666 13.368C10.7833 13.7801 11.5083 14 12.25 14C13.2446 14 14.1984 13.6049 14.9017 12.9017C15.6049 12.1984 16 11.2446 16 10.25ZM10 10.25C10 9.80499 10.132 9.36998 10.3792 8.99997C10.6264 8.62996 10.9778 8.34157 11.389 8.17127C11.8001 8.00097 12.2525 7.95642 12.689 8.04323C13.1254 8.13005 13.5263 8.34434 13.841 8.65901C14.1557 8.97368 14.37 9.37459 14.4568 9.81105C14.5436 10.2475 14.499 10.6999 14.3287 11.111C14.1584 11.5222 13.87 11.8736 13.5 12.1208C13.13 12.368 12.695 12.5 12.25 12.5C11.6533 12.5 11.081 12.2629 10.659 11.841C10.2371 11.419 10 10.8467 10 10.25Z" fill="white"/>
</svg>
