<svg width="56" height="55" viewBox="0 0 56 55" fill="none" xmlns="http://www.w3.org/2000/svg">
<path d="M1.71814 5.56202L49.8136 53.2952C50.7622 54.2368 52.3003 54.2368 53.2489 53.2952C54.1976 52.3537 54.1976 50.8272 53.2489 49.8857L5.15353 2.15251C4.20487 1.21099 2.6668 1.21099 1.71814 2.1525C0.769487 3.09401 0.769487 4.62051 1.71814 5.56202Z" fill="#ED1B24"/>
<path d="M49.8483 1.70655L1.75285 49.4398C0.804195 50.3813 0.804193 51.9078 1.75285 52.8493C2.7015 53.7908 4.23958 53.7908 5.18824 52.8493L53.2836 5.11606C54.2323 4.17455 54.2323 2.64806 53.2836 1.70655C52.335 0.765036 50.7969 0.765037 49.8483 1.70655Z" fill="#ED1B24"/>
</svg>
