<svg width="75" height="55" viewBox="0 0 75 55" fill="none" xmlns="http://www.w3.org/2000/svg">
<g clip-path="url(#clip0_256_5)">
<path d="M72.5 0H2.5C1.11929 0 0 1.11929 0 2.5C0 3.88071 1.11929 5 2.5 5H72.5C73.8807 5 75 3.88071 75 2.5C75 1.11929 73.8807 0 72.5 0Z" fill="#ED1B24"/>
<path d="M47.5 25H2.5C1.11929 25 0 26.1193 0 27.5C0 28.8807 1.11929 30 2.5 30H47.5C48.8807 30 50 28.8807 50 27.5C50 26.1193 48.8807 25 47.5 25Z" fill="#ED1B24"/>
<path d="M62.5 50H2.5C1.11929 50 0 51.1193 0 52.5C0 53.8807 1.11929 55 2.5 55H62.5C63.8807 55 65 53.8807 65 52.5C65 51.1193 63.8807 50 62.5 50Z" fill="#ED1B24"/>
</g>
<defs>
<clipPath id="clip0_256_5">
<rect width="75" height="55" fill="white"/>
</clipPath>
</defs>
</svg>
