<svg width="24" height="24" viewBox="0 0 24 24" fill="none" xmlns="http://www.w3.org/2000/svg">
<g clip-path="url(#clip0_266_21)">
<path d="M21 4H2.33333C1.97971 4 1.64057 4.14048 1.39052 4.39052C1.14048 4.64057 1 4.97971 1 5.33333V18.6667C1 19.0203 1.14048 19.3594 1.39052 19.6095C1.64057 19.8595 1.97971 20 2.33333 20H21C21.3536 20 21.6928 19.8595 21.9428 19.6095C22.1929 19.3594 22.3333 19.0203 22.3333 18.6667V5.33333C22.3333 4.97971 22.1929 4.64057 21.9428 4.39052C21.6928 4.14048 21.3536 4 21 4ZM19.9733 18.6667H3.44L8.10667 13.84L7.14667 12.9133L2.33333 17.8933V6.34667L10.62 14.5933C10.8698 14.8417 11.2078 14.9811 11.56 14.9811C11.9122 14.9811 12.2502 14.8417 12.5 14.5933L21 6.14V17.8067L16.0933 12.9L15.1533 13.84L19.9733 18.6667ZM3.20667 5.33333H19.92L11.56 13.6467L3.20667 5.33333Z" fill="white"/>
</g>
<defs>
<clipPath id="clip0_266_21">
<rect width="24" height="24" fill="white"/>
</clipPath>
</defs>
</svg>
