<svg width="24" height="24" viewBox="0 0 24 24" fill="none" xmlns="http://www.w3.org/2000/svg">
<path d="M14.2753 4.30575C14.3008 4.21056 14.3447 4.12133 14.4047 4.04315C14.4647 3.96496 14.5394 3.89935 14.6248 3.85008C14.7101 3.8008 14.8043 3.76882 14.902 3.75596C14.9996 3.74309 15.0989 3.74961 15.1941 3.77512C16.5844 4.13789 17.853 4.86473 18.869 5.88078C19.8851 6.89684 20.6119 8.16538 20.9747 9.55575C21.0002 9.65092 21.0067 9.75018 20.9939 9.84786C20.981 9.94555 20.949 10.0397 20.8997 10.1251C20.8505 10.2104 20.7849 10.2852 20.7067 10.3451C20.6285 10.4051 20.5393 10.449 20.4441 10.4745C20.3807 10.4911 20.3155 10.4996 20.25 10.4998C20.0847 10.4998 19.9241 10.4452 19.793 10.3445C19.662 10.2438 19.5679 10.1026 19.5253 9.94294C19.2295 8.80792 18.6363 7.77235 17.8069 6.94296C16.9775 6.11356 15.9419 5.52036 14.8069 5.2245C14.7116 5.19914 14.6223 5.15525 14.544 5.09533C14.4657 5.03542 14.4 4.96066 14.3506 4.87533C14.3013 4.79 14.2692 4.69577 14.2563 4.59803C14.2433 4.5003 14.2498 4.40098 14.2753 4.30575ZM14.0569 8.2245C15.3497 8.5695 16.1803 9.40012 16.5253 10.6929C16.5679 10.8526 16.662 10.9938 16.793 11.0945C16.9241 11.1952 17.0847 11.2498 17.25 11.2498C17.3155 11.2496 17.3807 11.2411 17.4441 11.2245C17.5393 11.199 17.6285 11.1551 17.7067 11.0951C17.7849 11.0352 17.8505 10.9604 17.8997 10.8751C17.949 10.7897 17.981 10.6955 17.9939 10.5979C18.0067 10.5002 18.0002 10.4009 17.9747 10.3057C17.4947 8.5095 16.2403 7.25512 14.4441 6.77512C14.3489 6.7497 14.2497 6.74327 14.152 6.7562C14.0544 6.76913 13.9602 6.80117 13.8749 6.85049C13.7897 6.8998 13.7149 6.96543 13.655 7.04363C13.5951 7.12182 13.5512 7.21105 13.5258 7.30622C13.5004 7.40138 13.4939 7.50063 13.5069 7.59828C13.5198 7.69593 13.5518 7.79008 13.6012 7.87535C13.6505 7.96062 13.7161 8.03534 13.7943 8.09525C13.8725 8.15516 13.9617 8.19907 14.0569 8.2245ZM21.7388 17.1636C21.5716 18.4339 20.9477 19.6 19.9837 20.4439C19.0196 21.2879 17.7813 21.7521 16.5 21.7498C9.05626 21.7498 3.00001 15.6936 3.00001 8.24981C2.99771 6.96852 3.4619 5.73021 4.30588 4.76615C5.14986 3.80209 6.31592 3.17822 7.58626 3.01106C7.9075 2.97184 8.2328 3.03756 8.51362 3.19841C8.79444 3.35926 9.0157 3.60662 9.14438 3.90356L11.1244 8.32387V8.33512C11.2229 8.56242 11.2636 8.81058 11.2428 9.05744C11.222 9.3043 11.1404 9.54217 11.0053 9.74981C10.9884 9.77512 10.9706 9.79856 10.9519 9.822L9.00001 12.1357C9.7022 13.5626 11.1947 15.042 12.6403 15.7461L14.9222 13.8045C14.9446 13.7857 14.9681 13.7681 14.9925 13.752C15.2 13.6136 15.4387 13.5292 15.687 13.5062C15.9353 13.4833 16.1854 13.5227 16.4147 13.6207L16.4269 13.6264L20.8434 15.6054C21.1409 15.7337 21.3889 15.9547 21.5503 16.2356C21.7116 16.5164 21.7778 16.842 21.7388 17.1636ZM20.25 16.9761H20.2397L15.8334 15.0026L13.5506 16.9442C13.5285 16.9629 13.5053 16.9805 13.4813 16.9967C13.2654 17.1407 13.0159 17.2262 12.7571 17.245C12.4983 17.2637 12.239 17.215 12.0047 17.1036C10.2488 16.2551 8.49845 14.5179 7.64907 12.7807C7.5366 12.5481 7.48613 12.2904 7.50255 12.0325C7.51898 11.7746 7.60174 11.5254 7.74282 11.3089C7.75872 11.2835 7.77659 11.2593 7.79626 11.2367L9.75001 8.92012L7.78126 4.51387C7.78089 4.51013 7.78089 4.50636 7.78126 4.50262C6.87212 4.62122 6.03739 5.06715 5.43339 5.75692C4.8294 6.44669 4.49755 7.33297 4.50001 8.24981C4.50348 11.4313 5.76888 14.4816 8.01856 16.7313C10.2682 18.9809 13.3185 20.2463 16.5 20.2498C17.4163 20.253 18.3023 19.9223 18.9925 19.3196C19.6827 18.7169 20.1297 17.8835 20.25 16.9751V16.9761Z" fill="white"/>
</svg>
