<svg xmlns="http://www.w3.org/2000/svg" width="50" height="50" viewBox="0 0 50 50" fill="none"><path d="M41.217 34.8373C41.2738 34.6241 41.398 34.4349 41.5711 34.2981C41.7442 34.1613 41.957 34.0842 42.1776 34.0782H43.3952C43.5765 34.0782 43.7521 34.0152 43.892 33.8999C44.0318 33.7847 44.1273 33.6244 44.162 33.4465C44.4053 32.2082 44.5289 30.9494 44.5312 29.6875C44.5313 29.5849 44.5111 29.4833 44.4718 29.3885C44.4326 29.2937 44.375 29.2076 44.3025 29.135C44.2299 29.0625 44.1438 29.0049 44.049 28.9657C43.9542 28.9264 43.8526 28.9062 43.75 28.9062H35.9375V18.75C35.9375 18.5802 35.8822 18.415 35.7799 18.2795C35.6776 18.144 35.5339 18.0455 35.3706 17.9989L30.4688 16.5984V12.5C30.4688 12.3974 30.4486 12.2958 30.4093 12.201C30.3701 12.1062 30.3125 12.0201 30.24 11.9475C30.1674 11.875 30.0813 11.8174 29.9865 11.7782C29.8917 11.7389 29.7901 11.7187 29.6875 11.7188H20.3125C20.2099 11.7187 20.1083 11.7389 20.0135 11.7782C19.9187 11.8174 19.8326 11.875 19.76 11.9475C19.6875 12.0201 19.6299 12.1062 19.5907 12.201C19.5514 12.2958 19.5312 12.3974 19.5312 12.5V16.5984L14.6294 17.9989C14.4661 18.0455 14.3224 18.144 14.2201 18.2795C14.1178 18.415 14.0625 18.5802 14.0625 18.75V28.9062H6.25C6.1474 28.9062 6.04579 28.9264 5.951 28.9657C5.8562 29.0049 5.77006 29.0625 5.69751 29.135C5.62496 29.2076 5.56742 29.2937 5.52816 29.3885C5.48891 29.4833 5.46872 29.5849 5.46875 29.6875C5.47106 30.9494 5.59472 32.2082 5.83802 33.4465C5.87271 33.6244 5.96816 33.7847 6.10805 33.8999C6.24793 34.0152 6.42352 34.0782 6.60477 34.0782H7.82242C8.04301 34.0842 8.25575 34.1613 8.42888 34.2981C8.602 34.4349 8.72622 34.6241 8.78296 34.8373C9.07618 35.7578 9.44755 36.6516 9.89304 37.5088C10.004 37.7001 10.0501 37.9222 10.0244 38.1419C9.99869 38.3616 9.90255 38.5671 9.75037 38.7276L8.88443 39.5935C8.75633 39.7217 8.67676 39.8904 8.65936 40.0708C8.64197 40.2512 8.68782 40.432 8.78906 40.5823C10.2001 42.682 12.0056 44.4876 14.1052 45.8988C14.2556 46 14.4364 46.0457 14.6168 46.0283C14.7972 46.0108 14.9658 45.9312 15.094 45.8031L15.9599 44.9371C16.1211 44.7866 16.3262 44.6915 16.5453 44.6658C16.7643 44.6401 16.9859 44.685 17.1776 44.7941C18.0354 45.2399 18.9297 45.6114 19.8509 45.9045C20.064 45.9614 20.253 46.0856 20.3896 46.2586C20.5263 46.4316 20.6034 46.6443 20.6093 46.8647V48.0823C20.6093 48.2636 20.6723 48.4392 20.7876 48.5791C20.9028 48.719 21.0631 48.8144 21.241 48.8491C23.7228 49.342 26.2772 49.342 28.759 48.8491C28.9369 48.8144 29.0972 48.719 29.2124 48.5791C29.3276 48.4392 29.3907 48.2636 29.3907 48.0823V46.8647C29.3966 46.6443 29.4736 46.4317 29.6103 46.2586C29.747 46.0856 29.936 45.9614 30.149 45.9045C31.07 45.6115 31.9642 45.24 32.8216 44.7941C33.0134 44.6849 33.2351 44.6399 33.4543 44.6657C33.6735 44.6914 33.8787 44.7865 34.04 44.9371L34.906 45.8031C35.0341 45.9312 35.2028 46.0108 35.3832 46.0282C35.5636 46.0457 35.7444 45.9999 35.8947 45.8988C37.9944 44.4876 39.7999 42.682 41.2109 40.5823C41.3122 40.432 41.358 40.2512 41.3406 40.0708C41.3232 39.8904 41.2437 39.7217 41.1156 39.5935L40.2496 38.7276C40.0975 38.5671 40.0013 38.3617 39.9756 38.1421C39.9499 37.9225 39.996 37.7004 40.107 37.5092C40.5524 36.6518 40.9238 35.7579 41.217 34.8373V34.8373ZM30.4688 18.2231L34.375 19.3394V28.9062H30.4688V18.2231ZM21.0938 13.2812H28.9062V28.9062H27.3438V25.7812C27.3438 25.6786 27.3236 25.577 27.2843 25.4822C27.2451 25.3874 27.1875 25.3013 27.115 25.2288C27.0424 25.1562 26.9563 25.0987 26.8615 25.0594C26.7667 25.0202 26.6651 25 26.5625 25H23.4375C23.3349 25 23.2333 25.0202 23.1385 25.0594C23.0437 25.0987 22.9576 25.1562 22.885 25.2288C22.8125 25.3013 22.7549 25.3874 22.7157 25.4822C22.6764 25.577 22.6562 25.6786 22.6562 25.7812V28.9062H21.0938V13.2812ZM25.7812 26.5625V28.9062H24.2188V26.5625H25.7812ZM15.625 19.3394L19.5312 18.2231V28.9062H15.625V19.3394ZM35.7598 30.4688C35.5654 33.1897 34.3474 35.736 32.3509 37.5949C30.3545 39.4538 27.7279 40.4873 25 40.4873C22.2721 40.4873 19.6455 39.4538 17.6491 37.5949C15.6526 35.736 14.4346 33.1897 14.2402 30.4688H35.7598ZM39.7278 34.3636C39.4616 35.1994 39.1244 36.0109 38.72 36.7893C38.4572 37.2756 38.3567 37.8331 38.4331 38.3806C38.5096 38.928 38.759 39.4366 39.1449 39.8323L39.5478 40.2351C38.4341 41.7715 37.084 43.1216 35.5477 44.2352L35.1448 43.8324C34.7494 43.4456 34.2405 43.1957 33.6926 43.1193C33.1448 43.0429 32.5869 43.144 32.1007 43.4078C31.3229 43.8125 30.5117 44.1496 29.6761 44.4153C29.1473 44.5734 28.6828 44.8963 28.3504 45.3369C28.018 45.7775 27.8351 46.3128 27.8282 46.8647V47.4277C25.955 47.7314 24.0451 47.7314 22.1718 47.4277V46.8647C22.165 46.3128 21.982 45.7775 21.6496 45.3369C21.3172 44.8963 20.8528 44.5734 20.324 44.4153C19.4882 44.1495 18.6767 43.8124 17.8986 43.4078C17.4124 43.1443 16.8547 43.0433 16.3071 43.1197C15.7594 43.1961 15.2506 43.4459 14.8552 43.8324L14.4524 44.2352C12.916 43.1216 11.5659 41.7715 10.4523 40.2352L10.8551 39.8323C11.2411 39.4366 11.4905 38.9279 11.567 38.3804C11.6434 37.8329 11.5429 37.2753 11.2801 36.789C10.8756 36.0107 10.5384 35.1993 10.2723 34.3636C10.1139 33.8349 9.79085 33.3705 9.35022 33.0382C8.90959 32.7058 8.37437 32.5228 7.82249 32.5157H7.25937C7.15102 31.8379 7.08072 31.1545 7.0488 30.4688H12.6777C12.8724 33.6047 14.2554 36.5483 16.5449 38.7001C18.8344 40.8519 21.8581 42.0498 25 42.0498C28.142 42.0498 31.1657 40.8519 33.4552 38.7001C35.7447 36.5483 37.1277 33.6047 37.3224 30.4688H42.9513C42.9193 31.1545 42.849 31.8379 42.7407 32.5157H42.1776C41.6257 32.5228 41.0905 32.7058 40.6498 33.0382C40.2092 33.3705 39.8862 33.8349 39.7278 34.3636H39.7278Z" fill="#ED1B24"></path><path d="M25.7813 10.9375V5.32478C26.3026 5.1405 26.7419 4.77787 27.0217 4.30097C27.3015 3.82408 27.4037 3.26364 27.3102 2.71869C27.2167 2.17375 26.9336 1.67939 26.5109 1.323C26.0882 0.966613 25.5531 0.771135 25.0002 0.771118C24.4473 0.771102 23.9121 0.966548 23.4894 1.32291C23.0667 1.67928 22.7835 2.17361 22.69 2.71855C22.5965 3.26349 22.6987 3.82394 22.9784 4.30085C23.2582 4.77776 23.6975 5.14042 24.2188 5.32473V10.9375H25.7813ZM25 2.34374C25.1545 2.34374 25.3056 2.38956 25.4341 2.4754C25.5625 2.56125 25.6627 2.68326 25.7218 2.82602C25.7809 2.96877 25.7964 3.12585 25.7663 3.2774C25.7361 3.42895 25.6617 3.56816 25.5525 3.67742C25.4432 3.78668 25.304 3.86108 25.1524 3.89123C25.0009 3.92137 24.8438 3.9059 24.7011 3.84677C24.5583 3.78764 24.4363 3.6875 24.3504 3.55903C24.2646 3.43055 24.2188 3.2795 24.2188 3.12499C24.219 2.91785 24.3014 2.71926 24.4478 2.57279C24.5943 2.42632 24.7929 2.34395 25 2.34374V2.34374Z" fill="#ED1B24"></path><path d="M32.8125 10.9375V16.4063H34.375V11.261L35.7146 9.92141C36.0274 10.0741 36.3706 10.1544 36.7188 10.1563C37.1823 10.1563 37.6354 10.0188 38.0209 9.76126C38.4063 9.50372 38.7067 9.13768 38.8841 8.70942C39.0615 8.28115 39.1079 7.8099 39.0175 7.35526C38.927 6.90062 38.7038 6.483 38.376 6.15522C38.0483 5.82744 37.6306 5.60422 37.176 5.51379C36.7213 5.42335 36.2501 5.46977 35.8218 5.64716C35.3936 5.82455 35.0275 6.12496 34.77 6.51038C34.5125 6.89581 34.375 7.34895 34.375 7.8125C34.3768 8.16062 34.4571 8.50384 34.6098 8.81667L33.0414 10.3852C32.8949 10.5316 32.8126 10.7303 32.8125 10.9375V10.9375ZM36.7188 7.03125C36.8733 7.03125 37.0243 7.07707 37.1528 7.16292C37.2813 7.24876 37.3814 7.37077 37.4405 7.51353C37.4997 7.65628 37.5151 7.81337 37.485 7.96492C37.4548 8.11646 37.3804 8.25567 37.2712 8.36493C37.1619 8.47419 37.0227 8.54859 36.8712 8.57874C36.7196 8.60888 36.5625 8.59341 36.4198 8.53428C36.277 8.47515 36.155 8.37502 36.0692 8.24654C35.9833 8.11806 35.9375 7.96702 35.9375 7.8125C35.9377 7.60536 36.0201 7.40677 36.1666 7.2603C36.313 7.11383 36.5116 7.03146 36.7188 7.03125Z" fill="#ED1B24"></path><path d="M13.2812 5.46875C12.6596 5.46875 12.0635 5.71568 11.624 6.15522C11.1844 6.59476 10.9375 7.1909 10.9375 7.8125C10.9375 8.4341 11.1844 9.03024 11.624 9.46978C12.0635 9.90932 12.6596 10.1562 13.2812 10.1562C13.6294 10.1544 13.9726 10.0741 14.2854 9.92141L15.625 11.261V16.4062H17.1875V10.9375C17.1874 10.7303 17.1051 10.5316 16.9586 10.3852L15.3902 8.81667C15.5429 8.50384 15.6232 8.16062 15.625 7.8125C15.6243 7.19111 15.3772 6.59536 14.9378 6.15597C14.4984 5.71658 13.9026 5.46943 13.2812 5.46875V5.46875ZM13.2812 8.59375C13.1267 8.59375 12.9757 8.54793 12.8472 8.46209C12.7187 8.37624 12.6186 8.25423 12.5595 8.11147C12.5003 7.96872 12.4849 7.81163 12.515 7.66009C12.5452 7.50854 12.6196 7.36933 12.7288 7.26007C12.8381 7.15081 12.9773 7.07641 13.1288 7.04626C13.2804 7.01612 13.4375 7.03159 13.5802 7.09072C13.723 7.14985 13.845 7.24998 13.9308 7.37846C14.0167 7.50694 14.0625 7.65798 14.0625 7.8125C14.0623 8.01964 13.9799 8.21823 13.8334 8.3647C13.687 8.51117 13.4884 8.59354 13.2812 8.59375Z" fill="#ED1B24"></path><path d="M5.46878 14.0625C5.08461 14.0614 4.70606 14.1548 4.36645 14.3344C4.02684 14.514 3.73659 14.7743 3.52124 15.0925C3.30589 15.4106 3.17205 15.7768 3.1315 16.1589C3.09095 16.5409 3.14493 16.927 3.28869 17.2833C3.43245 17.6396 3.66158 17.955 3.95592 18.2019C4.25025 18.4488 4.60077 18.6196 4.97661 18.6992C5.35245 18.7787 5.74209 18.7647 6.11124 18.6583C6.48039 18.5519 6.81773 18.3564 7.09356 18.089L9.37503 19.2322V25H10.9375V18.75C10.9375 18.6051 10.8972 18.463 10.821 18.3397C10.7449 18.2163 10.636 18.1166 10.5065 18.0516L7.78411 16.6872C7.79932 16.5942 7.80882 16.5004 7.81253 16.4063C7.81185 15.7849 7.56471 15.1891 7.12532 14.7497C6.68592 14.3103 6.09018 14.0632 5.46878 14.0625V14.0625ZM5.46878 17.1875C5.31427 17.1875 5.16322 17.1417 5.03474 17.0558C4.90627 16.97 4.80613 16.848 4.747 16.7052C4.68787 16.5625 4.6724 16.4054 4.70254 16.2538C4.73269 16.1023 4.8071 15.9631 4.91636 15.8538C5.02562 15.7446 5.16482 15.6702 5.31637 15.64C5.46792 15.6099 5.625 15.6253 5.76775 15.6845C5.91051 15.7436 6.03252 15.8437 6.11837 15.9722C6.20421 16.1007 6.25003 16.2517 6.25003 16.4063C6.24983 16.6134 6.16745 16.812 6.02098 16.9585C5.87451 17.1049 5.67592 17.1873 5.46878 17.1875Z" fill="#ED1B24"></path><path d="M9.375 26.5625H10.9375V28.125H9.375V26.5625Z" fill="#ED1B24"></path><path d="M46.875 16.4062C46.875 15.7846 46.6281 15.1885 46.1885 14.749C45.749 14.3094 45.1529 14.0625 44.5312 14.0625C43.9096 14.0625 43.3135 14.3094 42.874 14.749C42.4344 15.1885 42.1875 15.7846 42.1875 16.4062C42.1912 16.5004 42.2007 16.5942 42.2159 16.6872L39.4936 18.0516C39.364 18.1166 39.2551 18.2163 39.179 18.3397C39.1029 18.463 39.0625 18.6051 39.0625 18.75V25H40.625V19.2322L42.9065 18.089C43.2366 18.4095 43.6538 18.6256 44.1061 18.7101C44.5583 18.7947 45.0255 18.744 45.4491 18.5644C45.8727 18.3848 46.2339 18.0842 46.4875 17.7003C46.7411 17.3165 46.8759 16.8663 46.875 16.4062V16.4062ZM43.75 16.4062C43.75 16.2517 43.7958 16.1007 43.8817 15.9722C43.9675 15.8437 44.0895 15.7436 44.2323 15.6845C44.375 15.6253 44.5321 15.6099 44.6837 15.64C44.8352 15.6702 44.9744 15.7446 45.0837 15.8538C45.1929 15.9631 45.2673 16.1023 45.2975 16.2538C45.3276 16.4054 45.3122 16.5625 45.253 16.7052C45.1939 16.848 45.0938 16.97 44.9653 17.0558C44.8368 17.1417 44.6858 17.1875 44.5312 17.1875C44.3241 17.1873 44.1255 17.1049 43.9791 16.9584C43.8326 16.812 43.7502 16.6134 43.75 16.4062V16.4062Z" fill="#ED1B24"></path><path d="M39.0625 26.5625H40.625V28.125H39.0625V26.5625Z" fill="#ED1B24"></path><path d="M22.6562 15.625H27.3438V17.1875H22.6562V15.625Z" fill="#ED1B24"></path><path d="M22.6562 18.75H27.3438V20.3125H22.6562V18.75Z" fill="#ED1B24"></path><path d="M22.6562 21.875H27.3438V23.4375H22.6562V21.875Z" fill="#ED1B24"></path><path d="M31.25 20.3125H33.5938V21.875H31.25V20.3125Z" fill="#ED1B24"></path><path d="M31.25 23.4375H33.5938V25H31.25V23.4375Z" fill="#ED1B24"></path><path d="M16.4062 20.3125H18.75V21.875H16.4062V20.3125Z" fill="#ED1B24"></path><path d="M16.4062 23.4375H18.75V25H16.4062V23.4375Z" fill="#ED1B24"></path></svg>