<svg width="200" height="200" viewBox="0 0 200 200" fill="none" xmlns="http://www.w3.org/2000/svg">
<path d="M162.5 22H37.5C34.1848 22 31.0054 23.3214 28.6612 25.6735C26.317 28.0257 25 31.2158 25 34.5422V80.5566C25 150.636 84.2188 173.918 96.0938 177.837C98.631 178.675 101.369 178.675 103.906 177.837C115.781 173.918 175 150.636 175 80.5566V34.5422C175 31.2158 173.683 28.0257 171.339 25.6735C168.995 23.3214 165.815 22 162.5 22ZM162.5 80.5566C162.5 141.857 110.625 162.395 100 165.922C89.4531 162.395 37.5 141.935 37.5 80.5566V34.5422H162.5V80.5566ZM61.3281 98.6645C60.6932 98.1087 60.1769 97.4298 59.8101 96.6687C59.4434 95.9075 59.2338 95.0798 59.194 94.2354C59.1542 93.3909 59.2849 92.5471 59.5784 91.7546C59.8719 90.9621 60.3221 90.2374 60.9018 89.6239C61.4816 89.0104 62.179 88.5209 62.9521 88.1848C63.7253 87.8487 64.5581 87.6729 65.4007 87.668C66.2432 87.6631 67.0781 87.8292 67.8551 88.1562C68.632 88.4833 69.335 88.9647 69.9219 89.5713L88.5156 107.366L130.078 67.6224C131.293 66.5586 132.871 66.0073 134.482 66.0838C136.093 66.1602 137.612 66.8586 138.722 68.0328C139.832 69.207 140.446 70.7661 140.437 72.3843C140.428 74.0025 139.795 75.5544 138.672 76.7155L92.8906 120.613C91.7071 121.731 90.1405 122.348 88.5156 122.338C86.9146 122.344 85.3739 121.726 84.2188 120.613L61.3281 98.6645Z" fill="#ED1B24"/>
</svg>
