<svg width="200" height="200" viewBox="0 0 200 200" fill="none" xmlns="http://www.w3.org/2000/svg">
<path d="M174.996 157.516C174.996 159.051 174.388 160.523 173.306 161.608C172.224 162.693 170.757 163.303 169.227 163.303H30.7691C29.239 163.303 27.7716 162.693 26.6897 161.608C25.6078 160.523 25 159.051 25 157.516V41.7865C25 40.2518 25.6078 38.78 26.6897 37.6948C27.7716 36.6096 29.239 36 30.7691 36C32.2991 36 33.7665 36.6096 34.8484 37.6948C35.9303 38.78 36.5382 40.2518 36.5382 41.7865V110.067L73.0997 77.952C74.095 77.0704 75.3632 76.5601 76.6901 76.5074C78.017 76.4547 79.3213 76.8628 80.3831 77.6627L122.786 109.561L165.405 72.1655C165.973 71.6621 166.635 71.2758 167.352 71.0288C168.069 70.7818 168.827 70.6789 169.584 70.7259C170.341 70.7729 171.081 70.969 171.762 71.3029C172.443 71.6367 173.052 72.1019 173.554 72.6718C174.056 73.2418 174.441 73.9053 174.687 74.6244C174.933 75.3436 175.036 76.1044 174.989 76.8634C174.942 77.6224 174.747 78.3647 174.414 79.0479C174.081 79.7311 173.617 80.3418 173.049 80.8453L126.896 121.351C125.901 122.232 124.633 122.743 123.306 122.795C121.979 122.848 120.675 122.44 119.613 121.64L77.2101 89.742L36.5382 125.401V151.73H169.227C170.757 151.73 172.224 152.339 173.306 153.424C174.388 154.51 174.996 155.981 174.996 157.516Z" fill="#ED1B24"/>
</svg>
