<svg width="200" height="200" viewBox="0 0 200 200" fill="none" xmlns="http://www.w3.org/2000/svg">
<path d="M25 25V169.643C25 171.064 25.5644 172.426 26.5691 173.431C27.5737 174.436 28.9363 175 30.3571 175H175" stroke="#ED1B24" stroke-width="10" stroke-linecap="round" stroke-linejoin="round"/>
<path d="M66.518 89.2852H53.1251C49.4268 89.2852 46.4287 92.2832 46.4287 95.9816V146.874C46.4287 150.573 49.4268 153.571 53.1251 153.571H66.518C70.2163 153.571 73.2144 150.573 73.2144 146.874V95.9816C73.2144 92.2832 70.2163 89.2852 66.518 89.2852Z" stroke="#ED1B24" stroke-width="10" stroke-linecap="round" stroke-linejoin="round"/>
<path d="M114.732 73.2148H101.339C97.6412 73.2148 94.6431 76.2129 94.6431 79.9113V146.876C94.6431 150.574 97.6412 153.572 101.339 153.572H114.732C118.431 153.572 121.429 150.574 121.429 146.876V79.9113C121.429 76.2129 118.431 73.2148 114.732 73.2148Z" stroke="#ED1B24" stroke-width="10" stroke-linecap="round" stroke-linejoin="round"/>
<path d="M162.826 51.7852H149.433C145.734 51.7852 142.736 54.7832 142.736 58.4816V146.874C142.736 150.573 145.734 153.571 149.433 153.571H162.826C166.524 153.571 169.522 150.573 169.522 146.874V58.4816C169.522 54.7832 166.524 51.7852 162.826 51.7852Z" stroke="#ED1B24" stroke-width="10" stroke-linecap="round" stroke-linejoin="round"/>
</svg>
