<svg width="204" height="204" viewBox="0 0 204 204" fill="none" xmlns="http://www.w3.org/2000/svg">
<path d="M150.3 73.9C150.844 74.462 151.27 75.1264 151.554 75.8546C151.839 76.5828 151.976 77.3603 151.957 78.1418C151.938 78.9234 151.765 79.6935 151.446 80.4073C151.127 81.1211 150.67 81.7645 150.1 82.3L91.5 138.3C90.3593 139.368 88.8624 139.974 87.3 140C85.7663 139.978 84.2992 139.37 83.2 138.3L53.9 110.3C52.7596 109.213 52.0979 107.717 52.0603 106.141C52.0228 104.566 52.6127 103.04 53.7 101.9C54.7874 100.76 56.2833 100.098 57.8586 100.06C59.4339 100.023 60.9596 100.613 62.1 101.7L87.3 125.7L141.9 73.7C142.462 73.1565 143.126 72.7302 143.855 72.4457C144.583 72.1613 145.36 72.0244 146.142 72.043C146.923 72.0616 147.694 72.2353 148.407 72.5541C149.121 72.8729 149.765 73.3304 150.3 73.9ZM204 102C204 122.174 198.018 141.894 186.81 158.668C175.602 175.442 159.672 188.516 141.034 196.236C122.396 203.956 101.887 205.976 82.1008 202.04C62.3148 198.104 44.1401 188.39 29.8752 174.125C15.6102 159.86 5.89564 141.685 1.95995 121.899C-1.97574 102.113 0.0441933 81.6044 7.76433 62.9663C15.4845 44.3282 28.5581 28.398 45.3319 17.1901C62.1057 5.98219 81.8264 0 102 0C129.036 0.0528562 154.949 10.8162 174.067 29.9335C193.184 49.0508 203.947 74.9642 204 102ZM192 102C192 84.1997 186.722 66.7991 176.832 51.9987C166.943 37.1983 152.887 25.6627 136.442 18.8508C119.996 12.039 101.9 10.2567 84.4419 13.7293C66.9836 17.202 50.9472 25.7737 38.3604 38.3604C25.7737 50.9471 17.202 66.9836 13.7294 84.4419C10.2567 101.9 12.039 119.996 18.8509 136.442C25.6628 152.887 37.1983 166.943 51.9987 176.832C66.7991 186.722 84.1997 192 102 192C125.861 191.974 148.738 182.483 165.61 165.61C182.483 148.738 191.974 125.861 192 102Z" fill="#EE1B24"/>
</svg>
