<svg xmlns:xlink="http://www.w3.org/1999/xlink" xmlns="http://www.w3.org/2000/svg" width="50" height="50" viewBox="0 0 50 50" fill="none"><g clip-path="url(#clip0_64_163)" fill="none"><path d="M20.833 50.0001H29.1662C29.6264 50.0001 29.9995 49.6274 29.9995 49.1668V41.3483L31.2056 40.7453C31.488 40.6045 31.6662 40.316 31.6662 40.0002V35.0003C31.6662 33.3194 30.4162 31.9262 28.7963 31.6987C29.038 31.1686 29.1662 30.5912 29.1662 30.0004C29.1662 27.7026 27.2973 25.8337 24.9996 25.8337C22.7023 25.8337 20.833 27.7026 20.833 30.0004C20.833 30.5912 20.9616 31.1686 21.2033 31.6987C19.583 31.9262 18.333 33.3194 18.333 35.0003V40.0002C18.333 40.316 18.5116 40.6045 18.794 40.7461L19.9997 41.3483V49.1668C19.9997 49.6274 20.3732 50.0001 20.833 50.0001V50.0001ZM19.9997 35.0003C19.9997 34.0811 20.7471 33.3337 21.6663 33.3337H22.8154C23.1629 33.3337 23.4737 33.1176 23.5954 32.7937C23.7171 32.4694 23.6255 32.102 23.3639 31.8737C22.8072 31.385 22.4996 30.7202 22.4996 30.0004C22.4996 28.6218 23.6214 27.5004 24.9996 27.5004C26.3782 27.5004 27.4996 28.6218 27.4996 30.0004C27.4996 30.7202 27.1924 31.385 26.6345 31.8729C26.3729 32.1012 26.2813 32.4686 26.403 32.7929C26.5246 33.1168 26.8363 33.3337 27.1838 33.3337H28.3329C29.2521 33.3337 29.9995 34.0811 29.9995 35.0003V39.4851L28.7939 40.0885C28.5115 40.2293 28.3329 40.5178 28.3329 40.8336V48.3335H21.6663V40.8336C21.6663 40.5178 21.4881 40.2293 21.2057 40.0877L19.9997 39.4851V35.0003Z" fill="#ED1B24"></path><path d="M24.1663 39.167H25.833V36.3484L27.0391 35.7462L26.294 34.2545L24.9997 34.9018L23.7057 34.2545L22.9607 35.7462L24.1663 36.3484V39.167Z" fill="#ED1B24"></path><path d="M4.99996 50.0001H13.3332C13.7934 50.0001 14.1665 49.6274 14.1665 49.1668V30.8337H17.4998C17.8233 30.8337 18.1175 30.6461 18.255 30.3536C18.3925 30.061 18.3474 29.7151 18.1399 29.4669L9.80663 19.467C9.49006 19.0878 8.8435 19.0878 8.52653 19.467L0.193293 29.4669C-0.0142246 29.7159 -0.0581694 30.0618 0.0785478 30.3536C0.216079 30.6461 0.510265 30.8337 0.833341 30.8337H4.16664V49.1668C4.16664 49.6274 4.54017 50.0001 4.99996 50.0001V50.0001ZM2.6127 29.167L9.16658 21.3021L15.7209 29.167H13.3332C12.8734 29.167 12.4999 29.5394 12.4999 30.0004V48.3335H5.83328V30.0004C5.83328 29.5394 5.46016 29.167 4.99996 29.167H2.6127Z" fill="#ED1B24"></path><path d="M34.0883 21.187C34.2258 20.8944 34.1806 20.5486 33.9731 20.3004L25.6399 10.3005C25.3233 9.92125 24.6768 9.92125 24.3598 10.3005L16.0265 20.3004C15.819 20.5494 15.7751 20.8952 15.9118 21.187C16.0493 21.4795 16.3435 21.6671 16.6666 21.6671H19.9999V25.8337H21.6665V20.8338C21.6665 20.3728 21.2934 20.0005 20.8332 20.0005H18.446L24.9998 12.1356L31.5541 20.0005H29.1664C28.7067 20.0005 28.3331 20.3728 28.3331 20.8338V25.8337H29.9998V21.6671H33.3331C33.6566 21.6671 33.9507 21.4795 34.0883 21.187Z" fill="#ED1B24"></path><path d="M36.6662 50.0001H44.9995C45.4597 50.0001 45.8328 49.6274 45.8328 49.1668V11.6672H49.1661C49.4896 11.6672 49.7837 11.4797 49.9213 11.1871C50.0588 10.8945 50.0136 10.5487 49.8061 10.3005L41.4729 0.300595C41.1563 -0.0786325 40.5098 -0.0786325 40.1928 0.300595L31.8596 10.3005C31.652 10.5495 31.6081 10.8954 31.7448 11.1871C31.8823 11.4797 32.1765 11.6672 32.4996 11.6672H35.8329V49.1668C35.8329 49.6274 36.2064 50.0001 36.6662 50.0001ZM34.279 10.0006L40.8328 2.1357L47.3871 10.0006H44.9995C44.5397 10.0006 44.1661 10.3729 44.1661 10.8339V48.3335H37.4995V10.8339C37.4995 10.3729 37.1264 10.0006 36.6662 10.0006H34.279Z" fill="#ED1B24"></path><path d="M2.5 6.66734H4.16667V4.16734H6.66667V2.50067H4.16667V0.000671387H2.5V2.50067H0V4.16734H2.5V6.66734Z" fill="#ED1B24"></path><path d="M12.4998 8.33396H14.9998V10.834H16.6664V8.33396H19.1664V6.6673H16.6664V4.1673H14.9998V6.6673H12.4998V8.33396Z" fill="#ED1B24"></path><path d="M0.833252 16.6672H2.49992V18.3338H0.833252V16.6672Z" fill="#ED1B24"></path><path d="M28.333 0.834045H29.9997V2.50071H28.333V0.834045Z" fill="#ED1B24"></path><path d="M48.3328 47.5001H49.9994V49.1668H48.3328V47.5001Z" fill="#ED1B24"></path></g><defs><clipPath id="clip0_64_163"><rect width="50" height="50" fill="white"></rect></clipPath></defs></svg>