<svg xmlns="http://www.w3.org/2000/svg" width="50" height="50" viewBox="0 0 50 50" fill="none"><g clip-path="url(#clip0_64_199)"><path d="M26.5662 43.0563H6.21239C6.18455 43.0563 6.1619 43.0337 6.1619 43.0059V8.51054H11.6922C12.5278 8.51054 13.2076 7.83073 13.2076 6.99517V1.46488H35.9603C35.9881 1.46488 36.0108 1.48743 36.0108 1.51536V28.132C36.0108 28.5366 36.3386 28.8644 36.7432 28.8644C37.1478 28.8644 37.4757 28.5366 37.4757 28.132V1.51536C37.4757 0.6798 36.7959 0 35.9603 0H12.3407C11.7271 0 11.15 0.23897 10.7157 0.673061L5.37028 6.01868C4.93619 6.45258 4.69702 7.02984 4.69702 7.64372V43.006C4.69702 43.8416 5.37682 44.5213 6.21239 44.5213H26.5662C26.9708 44.5213 27.2987 44.1934 27.2987 43.7888C27.2987 43.3842 26.9707 43.0563 26.5662 43.0563V43.0563ZM11.7427 1.71781V6.99517C11.7427 7.023 11.7201 7.04566 11.6922 7.04566H6.41503L11.7427 1.71781Z" fill="#ED1B24"></path><path d="M44.6309 46.0779L40.2025 41.6495C39.4876 40.9348 38.416 40.7922 37.5565 41.2177L35.9146 39.5758C36.8897 38.3732 37.4755 36.8428 37.4755 35.1775C37.4755 31.3204 34.3375 28.1824 30.4804 28.1824C26.6232 28.1824 23.4851 31.3204 23.4851 35.1775C23.4851 39.0347 26.6232 42.1727 30.4804 42.1727C32.1456 42.1727 33.676 41.5869 34.8786 40.6117L36.5204 42.2536C36.0949 43.1131 36.2375 44.1848 36.9523 44.8996L41.3808 49.3281C41.8289 49.7761 42.4173 50.0001 43.0058 50.0001C43.5942 50.0001 44.1828 49.7761 44.6309 49.3281C45.5269 48.432 45.5269 46.974 44.6309 46.0779V46.0779ZM30.4805 40.7078C27.431 40.7078 24.9501 38.227 24.9501 35.1775C24.9501 32.1281 27.431 29.6472 30.4805 29.6472C33.53 29.6472 36.0108 32.1281 36.0108 35.1775C36.0108 38.227 33.5299 40.7078 30.4805 40.7078ZM37.9883 42.6854C38.1508 42.5229 38.3641 42.4418 38.5775 42.4418C38.7909 42.4418 39.0042 42.5229 39.1666 42.6854L39.9457 43.4645L38.7675 44.6428L37.9883 43.8637C37.6633 43.5389 37.6633 43.0102 37.9883 42.6854ZM43.595 48.2922C43.2701 48.6173 42.7415 48.6169 42.4168 48.2922L39.8033 45.6787L40.9817 44.5004L43.5951 47.1138C43.9199 47.4386 43.9199 47.9674 43.595 48.2922Z" fill="#ED1B24"></path><path d="M32.829 26.5159C33.2336 26.5159 33.5614 26.188 33.5614 25.7834C33.5614 25.3788 33.2336 25.051 32.829 25.051H32.7786V11.6922C32.7786 11.2876 32.4508 10.9598 32.0462 10.9598H28.9148C28.5102 10.9598 28.1824 11.2876 28.1824 11.6922V25.051H26.516V20.3035C26.516 19.8989 26.1881 19.5711 25.7835 19.5711H22.6521C22.2475 19.5711 21.9197 19.8989 21.9197 20.3035V25.051H20.2532V17.9549C20.2532 17.5503 19.9254 17.2225 19.5208 17.2225H16.3895C15.9849 17.2225 15.657 17.5503 15.657 17.9549V25.051H13.9906V22.652C13.9906 22.2474 13.6628 21.9196 13.2582 21.9196H10.1268C9.72224 21.9196 9.3944 22.2474 9.3944 22.652V25.051H9.34401C8.93941 25.051 8.61157 25.3788 8.61157 25.7834C8.61157 26.188 8.93941 26.5159 9.34401 26.5159H32.829ZM29.6473 12.4247H31.3137V25.051H29.6473V12.4247ZM23.3845 21.0359H25.0511V25.0509H23.3845V21.0359ZM17.1218 18.6873H18.7883V25.0509H17.1218V18.6873ZM10.8591 23.3844H12.5255V25.0509H10.8591V23.3844Z" fill="#ED1B24"></path><path d="M24.1673 28.9148C24.1673 28.5102 23.8395 28.1824 23.4349 28.1824H9.34377C8.93917 28.1824 8.61133 28.5102 8.61133 28.9148C8.61133 29.3194 8.93917 29.6472 9.34377 29.6472H23.4349C23.8395 29.6472 24.1673 29.3194 24.1673 28.9148Z" fill="#ED1B24"></path><path d="M21.8187 32.0462C21.8187 31.6416 21.4909 31.3138 21.0863 31.3138H9.34377C8.93917 31.3138 8.61133 31.6416 8.61133 32.0462C8.61133 32.4508 8.93917 32.7787 9.34377 32.7787H21.0863C21.4909 32.7787 21.8187 32.4507 21.8187 32.0462Z" fill="#ED1B24"></path><path d="M9.34377 34.4451C8.93917 34.4451 8.61133 34.7729 8.61133 35.1775C8.61133 35.5821 8.93917 35.9099 9.34377 35.9099H20.3036C20.7082 35.9099 21.036 35.5821 21.036 35.1775C21.036 34.7729 20.7082 34.4451 20.3036 34.4451H9.34377Z" fill="#ED1B24"></path><path d="M31.2631 9.29321C31.6677 9.29321 31.9956 8.96538 31.9956 8.56079C31.9956 8.1562 31.6677 7.82837 31.2631 7.82837H29.6975C29.2929 7.82837 28.9651 8.1562 28.9651 8.56079C28.9651 8.96538 29.2929 9.29321 29.6975 9.29321H31.2631Z" fill="#ED1B24"></path><path d="M25.0004 17.9045C25.405 17.9045 25.7329 17.5767 25.7329 17.1721C25.7329 16.7675 25.405 16.4397 25.0004 16.4397H23.4348C23.0302 16.4397 22.7024 16.7675 22.7024 17.1721C22.7024 17.5767 23.0302 17.9045 23.4348 17.9045H25.0004Z" fill="#ED1B24"></path><path d="M18.7377 15.556C19.1423 15.556 19.4702 15.2281 19.4702 14.8235C19.4702 14.419 19.1423 14.0911 18.7377 14.0911H17.1721C16.7675 14.0911 16.4397 14.419 16.4397 14.8235C16.4397 15.2281 16.7675 15.556 17.1721 15.556H18.7377Z" fill="#ED1B24"></path><path d="M12.4751 20.2531C12.8797 20.2531 13.2076 19.9252 13.2076 19.5206C13.2076 19.116 12.8797 18.7882 12.4751 18.7882H10.9094C10.5048 18.7882 10.177 19.116 10.177 19.5206C10.177 19.9252 10.5048 20.2531 10.9094 20.2531H12.4751Z" fill="#ED1B24"></path></g><defs><clipPath id="clip0_64_199"><rect width="50" height="50" fill="white"></rect></clipPath></defs></svg>