<svg xmlns="http://www.w3.org/2000/svg" width="50" height="50" viewBox="0 0 50 50" fill="none"><path d="M11.7188 3.90625H16.4062V5.46875H11.7188V3.90625Z" fill="#ED1B24"></path><path d="M14.0625 41.4062C12.7703 41.4062 11.7188 42.4578 11.7188 43.75C11.7188 45.0422 12.7703 46.0938 14.0625 46.0938C15.3547 46.0938 16.4062 45.0422 16.4062 43.75C16.4062 42.4578 15.3547 41.4062 14.0625 41.4062ZM14.0625 44.5312C13.632 44.5312 13.2812 44.1812 13.2812 43.75C13.2812 43.3188 13.632 42.9688 14.0625 42.9688C14.493 42.9688 14.8438 43.3188 14.8438 43.75C14.8438 44.1812 14.493 44.5312 14.0625 44.5312Z" fill="#ED1B24"></path><path d="M11.8133 14.6148C10.9539 13.7547 9.81016 13.2812 8.59375 13.2812C7.37734 13.2812 6.23359 13.7547 5.37422 14.6148L5.23984 14.7492C4.39219 15.5969 3.90625 16.7703 3.90625 17.9688C3.90625 19.1555 4.27031 20.293 4.96016 21.257L7.95781 25.4539C8.10469 25.6594 8.34141 25.7812 8.59375 25.7812C8.84609 25.7812 9.08281 25.6594 9.22891 25.4539L12.2266 21.257C12.9172 20.293 13.2812 19.1555 13.2812 17.9688C13.2812 16.7703 12.7953 15.5969 11.9477 14.7492L11.8133 14.6148ZM10.9555 20.3492L8.59375 23.6555L6.23125 20.3492C5.73203 19.65 5.46875 18.8281 5.46875 17.9688C5.46875 17.1812 5.78828 16.4109 6.34453 15.8539L6.47891 15.7195C7.04375 15.1547 7.79531 14.8438 8.59375 14.8438C9.39219 14.8438 10.1437 15.1547 10.7086 15.7195L10.843 15.8539C11.3992 16.4109 11.7188 17.1812 11.7188 17.9688C11.7188 18.8281 11.4555 19.65 10.9555 20.3492V20.3492Z" fill="#ED1B24"></path><path d="M47.8852 36.6242L47.7508 36.4898C46.8914 35.6297 45.7477 35.1562 44.5312 35.1562C43.3148 35.1562 42.1711 35.6297 41.3117 36.4898L41.1773 36.6242C40.3297 37.4719 39.8438 38.6453 39.8438 39.8438C39.8438 41.0305 40.2078 42.168 40.8977 43.132L43.8953 47.3289C44.0422 47.5344 44.2789 47.6562 44.5312 47.6562C44.7836 47.6562 45.0203 47.5344 45.1664 47.3289L48.1641 43.132C48.8547 42.168 49.2188 41.0305 49.2188 39.8438C49.2188 38.6453 48.7328 37.4719 47.8852 36.6242V36.6242ZM46.893 42.2242L44.5312 45.5305L42.1688 42.2242C41.6695 41.525 41.4062 40.7031 41.4062 39.8438C41.4062 39.0562 41.7258 38.2859 42.282 37.7289L42.4164 37.5945C42.9812 37.0297 43.7328 36.7188 44.5312 36.7188C45.3297 36.7188 46.0813 37.0297 46.6461 37.5945L46.7805 37.7289C47.3367 38.2859 47.6562 39.0562 47.6562 39.8438C47.6562 40.7031 47.393 41.525 46.893 42.2242Z" fill="#ED1B24"></path><path d="M7.8125 27.3438H9.375V28.9062H7.8125V27.3438Z" fill="#ED1B24"></path><path d="M7.8125 30.4688H9.375V32.0312H7.8125V30.4688Z" fill="#ED1B24"></path><path d="M7.8125 33.5938H9.375V35.1562H7.8125V33.5938Z" fill="#ED1B24"></path><path d="M10.9375 33.5938H12.5V35.1562H10.9375V33.5938Z" fill="#ED1B24"></path><path d="M14.0625 33.5938H15.625V35.1562H14.0625V33.5938Z" fill="#ED1B24"></path><path d="M17.1875 33.5938H18.75V35.1562H17.1875V33.5938Z" fill="#ED1B24"></path><path d="M20.3125 33.5938H21.875V35.1562H20.3125V33.5938Z" fill="#ED1B24"></path><path d="M23.4375 33.5938H25V35.1562H23.4375V33.5938Z" fill="#ED1B24"></path><path d="M28.125 33.5938H29.6875V35.1562H28.125V33.5938Z" fill="#ED1B24"></path><path d="M31.25 33.5938H32.8125V35.1562H31.25V33.5938Z" fill="#ED1B24"></path><path d="M31.25 36.7188H32.8125V38.2812H31.25V36.7188Z" fill="#ED1B24"></path><path d="M31.25 39.8438H32.8125V41.4062H31.25V39.8438Z" fill="#ED1B24"></path><path d="M31.25 42.9688H32.8125V44.5312H31.25V42.9688Z" fill="#ED1B24"></path><path d="M31.25 46.0938H32.8125V47.6562H31.25V46.0938Z" fill="#ED1B24"></path><path d="M34.375 46.0938H35.9375V47.6562H34.375V46.0938Z" fill="#ED1B24"></path><path d="M37.5 46.0938H39.0625V47.6562H37.5V46.0938Z" fill="#ED1B24"></path><path d="M40.625 46.0938H42.1875V47.6562H40.625V46.0938Z" fill="#ED1B24"></path><path d="M46.875 13.2812C46.875 8.97344 43.3703 5.46875 39.0625 5.46875C35.2898 5.46875 32.1336 8.15703 31.4078 11.7188H27.3438V5.46875C27.3438 2.88359 25.2414 0.78125 22.6562 0.78125H5.46875C2.88359 0.78125 0.78125 2.88359 0.78125 5.46875V44.5312C0.78125 47.1164 2.88359 49.2188 5.46875 49.2188H22.6562C25.2414 49.2188 27.3438 47.1164 27.3438 44.5312V30.4688H35.9375C36.3687 30.4688 36.7188 30.1195 36.7188 29.6875V20.7336C37.4594 20.9664 38.2461 21.0938 39.0625 21.0938C43.3703 21.0938 46.875 17.5891 46.875 13.2812ZM25 13.2812H28.125V18.4266L27.1148 17.4164C26.8094 17.1109 26.3156 17.1109 26.0102 17.4164L25 18.4266V13.2812ZM5.46875 2.34375H22.6562C24.3797 2.34375 25.7812 3.74531 25.7812 5.46875V7.03125H2.34375V5.46875C2.34375 3.74531 3.74531 2.34375 5.46875 2.34375ZM22.6562 47.6562H5.46875C3.74531 47.6562 2.34375 46.2547 2.34375 44.5312V39.8438H25.7812V44.5312C25.7812 46.2547 24.3797 47.6562 22.6562 47.6562ZM25.7812 38.2812H2.34375V8.59375H25.7812V11.7188H17.1875C16.7563 11.7188 16.4062 12.068 16.4062 12.5V29.6875C16.4062 30.1195 16.7563 30.4688 17.1875 30.4688H25.7812V38.2812ZM17.9688 28.9062V27.3438H35.1562V28.9062H17.9688ZM35.1562 25.7812H17.9688V13.2812H23.4375V20.3125C23.4375 20.6281 23.6281 20.9141 23.9195 21.0344C24.2117 21.1562 24.5469 21.0883 24.7711 20.8648L26.5625 19.0734L28.3539 20.8648C28.5031 21.0141 28.7031 21.0938 28.9062 21.0938C29.007 21.0938 29.1086 21.075 29.2055 21.0344C29.4969 20.9141 29.6875 20.6281 29.6875 20.3125V13.2812H31.25C31.25 16.1648 32.825 18.6836 35.1562 20.0367V25.7812ZM39.0625 19.5312C35.6164 19.5312 32.8125 16.7273 32.8125 13.2812C32.8125 9.83516 35.6164 7.03125 39.0625 7.03125C42.5086 7.03125 45.3125 9.83516 45.3125 13.2812C45.3125 16.7273 42.5086 19.5312 39.0625 19.5312Z" fill="#ED1B24"></path><path d="M37.5001 14.5203L36.4899 13.5101L35.3853 14.6148L36.9478 16.1773C37.1001 16.3297 37.3001 16.4062 37.5001 16.4062C37.7001 16.4062 37.9001 16.3297 38.0524 16.1773L42.7399 11.4898L41.6353 10.3851L37.5001 14.5203Z" fill="#ED1B24"></path></svg>