<svg xmlns:xlink="http://www.w3.org/1999/xlink" xmlns="http://www.w3.org/2000/svg" width="50" height="50" viewBox="0 0 50 50" fill="none"><path d="M49.9999 7.20371C49.9999 5.01572 48.2199 3.23564 46.0319 3.23564H41.9109V2.35029C41.9109 1.0543 40.8566 0 39.5606 0H10.4396C9.1436 0 8.0894 1.0543 8.0894 2.35029V3.23564H3.96831C1.78032 3.23564 0.000244141 5.01572 0.000244141 7.20371V36.3251C0.000244141 38.5131 1.78032 40.2931 3.96831 40.2931H7.38462C7.78921 40.2931 8.11704 39.9651 8.11704 39.5606C8.11704 39.1562 7.78921 38.8282 7.38462 38.8282H3.96821C2.58794 38.8282 1.46499 37.7053 1.46499 36.3251V35.4394H48.535V36.3251C48.535 37.7054 47.4121 38.8282 46.0318 38.8282H10.3143C9.90972 38.8282 9.58188 39.1562 9.58188 39.5606C9.58188 39.9651 9.90972 40.2931 10.3143 40.2931H18.6052L18.6053 45.2996H14.4566C13.6219 45.2996 12.9429 45.9786 12.9429 46.8133V48.4863C12.9429 49.321 13.6219 50 14.4566 50H29.1977C29.6023 50 29.9301 49.6721 29.9301 49.2676C29.9301 48.8631 29.6023 48.5352 29.1977 48.5352H14.4566C14.4297 48.5352 14.4078 48.5133 14.4078 48.4863V46.8133C14.4078 46.7863 14.4297 46.7645 14.4566 46.7645H35.5438C35.5707 46.7645 35.5926 46.7863 35.5926 46.8133V48.4863C35.5926 48.5133 35.5707 48.5352 35.5438 48.5352H32.1275C31.7229 48.5352 31.3951 48.8631 31.3951 49.2676C31.3951 49.6721 31.7229 50 32.1275 50H35.5438C36.3785 50 37.0575 49.321 37.0575 48.4863V46.8133C37.0575 45.9786 36.3785 45.2996 35.5438 45.2996H31.3951V40.2931H46.032C48.22 40.2931 50 38.513 50 36.3251V7.20371H49.9999ZM25.8856 45.2996H24.1147V43.6049C24.1147 43.5627 24.1491 43.5284 24.1912 43.5284H25.809C25.8512 43.5284 25.8855 43.5627 25.8855 43.6049V45.2996H25.8856ZM29.9301 45.2996H27.3504V43.6049C27.3504 42.755 26.659 42.0636 25.8091 42.0636H24.1913C23.3414 42.0636 22.65 42.755 22.65 43.6049V45.2996H20.0703L20.0702 40.2931H29.9302V45.2996H29.9301ZM45.2997 33.9744H41.9109V7.93633H44.4143C44.9025 7.93633 45.2997 8.3335 45.2997 8.82168V33.9744ZM8.0894 33.9744H4.70054V8.82168C4.70054 8.3335 5.09771 7.93633 5.58589 7.93633H8.08931V33.9744H8.0894ZM9.55425 25.7324H16.1786V33.9744H9.55425V25.7324ZM14.4077 12.0573C14.4077 10.6771 15.5306 9.5541 16.911 9.5541C18.2913 9.5541 19.4142 10.6771 19.4142 12.0573C19.4142 13.4376 18.2912 14.5605 16.9109 14.5605C15.5306 14.5605 14.4077 13.4376 14.4077 12.0573V12.0573ZM16.9109 16.0254C17.4574 16.0254 17.9877 16.131 18.4809 16.3346L17.4639 17.1482C17.1383 17.4088 16.6834 17.4088 16.3578 17.1482L15.3427 16.3362C15.8265 16.1363 16.3559 16.0254 16.9109 16.0254ZM14.0538 17.1809L15.4428 18.292C15.875 18.6378 16.393 18.8107 16.911 18.8107C17.429 18.8107 17.9469 18.6379 18.3792 18.292L19.8199 17.1394L21.3291 18.1484C21.7228 18.4109 22.207 18.4783 22.6573 18.3328C23.1076 18.1876 23.4611 17.8502 23.6273 17.4071L23.7234 17.1508L25.4041 17.7122L24.2116 20.8923C24.1162 21.1468 23.9129 21.3406 23.6542 21.4241C23.3998 21.5064 23.1142 21.4668 22.8914 21.3181L22.4969 21.0552V20.1465C22.4969 19.742 22.1691 19.4141 21.7645 19.4141C21.3599 19.4141 21.0321 19.742 21.0321 20.1465V21.4453C21.0321 21.4487 21.032 21.4521 21.0321 21.4557V24.2676H12.7899V20.1465C12.7898 18.9827 13.2754 17.931 14.0538 17.1809ZM24.383 15.3919C24.386 15.3843 24.3889 15.3766 24.3916 15.3688L24.9801 13.7993C25.0632 13.5779 25.2275 13.4021 25.4429 13.3042C25.6108 13.2279 25.7941 13.2068 25.9715 13.2404L25.9073 13.4976C25.8092 13.8899 26.0478 14.2876 26.4402 14.3857C26.4999 14.4007 26.5596 14.4078 26.6184 14.4078C26.6267 14.4078 26.6348 14.4061 26.6431 14.4058C26.6413 14.4109 26.6401 14.4161 26.6381 14.4213L25.9186 16.34L24.2378 15.7786L24.383 15.3919ZM27.9488 13.1377C27.8651 12.9534 27.7578 12.7851 27.6338 12.6315L28.9463 7.38135C29.0444 6.98896 28.8058 6.59131 28.4134 6.49316C28.0208 6.39502 27.6234 6.63359 27.5251 7.02607L26.3273 11.8178C25.8291 11.7041 25.3102 11.7554 24.837 11.9705C24.5615 12.0957 24.3184 12.27 24.1147 12.4817V4.77705C24.1147 4.73486 24.1491 4.70059 24.1912 4.70059H37.1338C37.176 4.70059 37.2103 4.73496 37.2103 4.77705V14.4841C37.2103 14.5263 37.1759 14.5606 37.1338 14.5606H28.1158C28.21 14.0831 28.1541 13.5896 27.9488 13.1377V13.1377ZM17.6433 25.7324H40.4459V33.9744H17.6433V25.7324ZM10.4396 1.46484H39.5606C40.0488 1.46484 40.4459 1.86201 40.4459 2.35029V24.2676H22.4969V22.7575C22.7766 22.8715 23.0761 22.9317 23.3826 22.9317C23.628 22.9317 23.8707 22.8936 24.1039 22.8183C24.7905 22.5968 25.3297 22.0823 25.5831 21.4066L27.601 16.0253H37.1338C37.9837 16.0253 38.6751 15.3338 38.6751 14.4839V4.77686C38.6751 3.92695 37.9837 3.23555 37.1338 3.23555H24.1912C23.3413 3.23555 22.6499 3.92695 22.6499 4.77686V14.4839C22.6499 14.7658 22.7266 15.0338 22.8651 15.2675L22.2556 16.8928C22.2524 16.9013 22.2426 16.9273 22.2076 16.9387C22.1722 16.9499 22.1491 16.9345 22.1424 16.9301L20.1977 15.6298C19.9434 15.4444 19.6766 15.2828 19.3998 15.1445C20.301 14.4165 20.879 13.3033 20.879 12.0571C20.879 9.86914 19.099 8.08906 16.9109 8.08906C14.7228 8.08906 12.9427 9.86914 12.9427 12.0571C12.9427 13.3044 13.5216 14.4184 14.4244 15.1464C14.1581 15.2794 13.9041 15.4331 13.664 15.6053C13.6295 15.626 13.5963 15.6493 13.5652 15.676C12.206 16.6958 11.325 18.32 11.325 20.1463V24.2674H9.55425V2.35029C9.55425 1.86201 9.95142 1.46484 10.4396 1.46484V1.46484ZM1.46509 7.20371C1.46509 5.82344 2.58804 4.70049 3.96831 4.70049H8.0894V6.47148H5.58599C4.28999 6.47148 3.23579 7.52578 3.23579 8.82168V33.9744H1.46509V7.20371ZM46.7645 33.9744V8.82168C46.7645 7.52578 45.7102 6.47148 44.4143 6.47148H41.9109V4.70049H46.0319C47.4122 4.70049 48.5351 5.82344 48.5351 7.20371V33.9744H46.7645Z" fill="#ED1B24"></path><path d="M37.9428 29.1211H25.615C25.3064 28.1828 24.4225 27.5033 23.3822 27.5033C22.342 27.5033 21.458 28.1829 21.1495 29.1211H20.1465C19.7419 29.1211 19.4141 29.449 19.4141 29.8535C19.4141 30.258 19.7419 30.5859 20.1465 30.5859H21.1494C21.458 31.5242 22.342 32.2038 23.3821 32.2038C24.4224 32.2038 25.3063 31.5242 25.6149 30.5859H37.9427C38.3473 30.5859 38.6751 30.258 38.6751 29.8535C38.6752 29.449 38.3473 29.1211 37.9428 29.1211ZM23.3822 30.7389C22.894 30.7389 22.4969 30.3418 22.4969 29.8535C22.4969 29.3653 22.894 28.9681 23.3822 28.9681C23.8704 28.9681 24.2676 29.3653 24.2676 29.8535C24.2677 30.3417 23.8704 30.7389 23.3822 30.7389Z" fill="#ED1B24"></path><path d="M13.2708 29.1211H12.4619C12.0573 29.1211 11.7295 29.449 11.7295 29.8535C11.7295 30.258 12.0573 30.5859 12.4619 30.5859H13.2708C13.6754 30.5859 14.0032 30.258 14.0032 29.8535C14.0032 29.449 13.6754 29.1211 13.2708 29.1211Z" fill="#ED1B24"></path></svg>