<svg xmlns="http://www.w3.org/2000/svg" width="50" height="50" viewBox="0 0 50 50" fill="none"><g clip-path="url(#clip0_64_236)"><path d="M29.8838 31.5086C30.5026 31.5086 31.0814 31.2646 31.5136 30.8217L35.3525 26.8857C36.2287 25.9873 36.2105 24.5436 35.312 23.6673C34.4135 22.7912 32.9694 22.8094 32.0932 23.7077L29.8412 26.0165L29.4467 25.6329C28.5469 24.7583 27.1029 24.7783 26.2278 25.678C25.353 26.5777 25.3732 28.0215 26.273 28.8964L28.2971 30.8644C28.7243 31.2798 29.2879 31.5086 29.8838 31.5086ZM27.2804 26.7013C27.5913 26.3815 28.1043 26.3749 28.4235 26.6853L29.3433 27.5798C29.6336 27.8621 30.0976 27.8558 30.3805 27.566L33.1441 24.7326C33.4555 24.4134 33.9682 24.4072 34.2872 24.7182C34.6063 25.0294 34.6127 25.5421 34.3016 25.8611L30.4627 29.797C30.166 30.1143 29.6256 30.121 29.3204 29.8122L27.2964 27.8442C26.9769 27.5335 26.9696 27.0207 27.2804 26.7013V26.7013Z" fill="#ED1B24"></path><path d="M24.2106 32.0081C23.9664 31.6845 23.5064 31.6201 23.1826 31.8642C22.8589 32.1084 22.7947 32.5685 23.0387 32.8921C23.306 33.2463 23.6017 33.5859 23.9173 33.9015C25.7219 35.7059 28.1212 36.6996 30.6733 36.6996C33.2253 36.6996 35.6246 35.7059 37.4291 33.9015C39.2338 32.0972 40.2276 29.6982 40.2276 27.1466C40.2276 24.5948 39.2337 22.1959 37.4291 20.3916C33.7039 16.6669 27.6426 16.667 23.9173 20.3916C21.3776 22.9309 20.4789 26.6353 21.5719 30.0592C21.6952 30.4453 22.1084 30.6582 22.4943 30.5351C22.8804 30.4119 23.0936 29.9989 22.9703 29.6129C22.045 26.7146 22.8056 23.5789 24.9554 21.4295C28.1081 18.277 33.2384 18.277 36.3912 21.4295C37.9185 22.9566 38.7597 24.987 38.7597 27.1467C38.7597 29.3063 37.9185 31.3367 36.3912 32.8638C34.8639 34.3909 32.8332 35.232 30.6733 35.232C28.5134 35.232 26.4827 34.391 24.9553 32.8638C24.6875 32.5959 24.437 32.3081 24.2106 32.0081V32.0081Z" fill="#ED1B24"></path><path d="M48.9903 40.5538L44.36 35.924C44.0732 35.6375 43.6086 35.6374 43.3219 35.924L43.2936 35.9523L41.5116 34.1707C42.7095 32.324 43.4231 30.1903 43.5636 27.9635C43.5891 27.559 43.2817 27.2104 42.8772 27.1849C42.473 27.1603 42.1242 27.4667 42.0985 27.8711C41.9232 30.6513 40.7405 33.2685 38.7683 35.2404C36.5394 37.4691 33.6123 38.5848 30.6844 38.5876C30.6807 38.5875 30.6771 38.587 30.6732 38.587H30.6149C27.7028 38.5724 24.7952 37.4571 22.5782 35.2404C20.4159 33.0785 19.2251 30.204 19.2251 27.1465C19.2251 24.089 20.4159 21.2145 22.5782 19.0525C27.0418 14.5895 34.3047 14.5895 38.7683 19.0525C40.4308 20.7148 41.5278 22.8116 41.941 25.1164C42.0126 25.5153 42.3942 25.7804 42.793 25.7093C43.192 25.6378 43.4574 25.2564 43.3859 24.8574C42.9195 22.2562 41.6817 19.8899 39.8062 18.0146C38.877 17.0854 37.8398 16.3283 36.7351 15.7421V9.82744C36.7345 9.63428 36.6564 9.44521 36.5201 9.3085L27.4254 0.214941C27.2886 0.0788086 27.0996 0.000488281 26.9063 0H2.20195C0.987891 0 9.76563e-05 0.987598 9.76563e-05 2.20156V8.36982C9.76563e-05 8.7751 0.328613 9.10371 0.734082 9.10371C1.13945 9.10371 1.46807 8.7752 1.46807 8.36982V2.20156C1.46807 1.79688 1.79727 1.46768 2.20205 1.46768H26.1726V8.35977C26.1726 9.57373 27.1604 10.5613 28.3744 10.5613H35.2674V15.0774C33.8354 14.5349 32.3256 14.2562 30.8134 14.2398C30.8062 14.2389 30.7991 14.2374 30.7916 14.2374H14.4049C13.9995 14.2374 13.6709 14.566 13.6709 14.9713C13.6709 15.3766 13.9995 15.7052 14.4049 15.7052H24.6809C23.6339 16.2526 22.647 16.9534 21.7532 17.8072H14.4049C13.9995 17.8072 13.6709 18.1358 13.6709 18.5411C13.6709 18.9464 13.9995 19.275 14.4049 19.275H20.4322C19.2342 20.8269 18.4154 22.6142 18.0235 24.5221H14.405C13.9996 24.5221 13.671 24.8507 13.671 25.256C13.671 25.6612 13.9996 25.9898 14.405 25.9898H17.8092C17.7754 26.3724 17.7575 26.7581 17.7575 27.1467C17.7575 27.4654 17.7691 27.7824 17.7919 28.0972H14.4051C13.9997 28.0972 13.6711 28.4258 13.6711 28.8311C13.6711 29.2363 13.9997 29.5649 14.4051 29.5649H17.9832C18.3575 31.5514 19.1921 33.4127 20.4345 35.021H14.4051C13.9997 35.021 13.6711 35.3495 13.6711 35.7549C13.6711 36.1603 13.9997 36.4888 14.4051 36.4888H21.7562C22.6486 37.341 23.634 38.0406 24.6791 38.5874H14.4047C13.9993 38.5874 13.6707 38.916 13.6707 39.3213C13.6707 39.7266 13.9993 40.0552 14.4047 40.0552H30.6732C32.232 40.055 33.7909 39.775 35.2672 39.2157V47.7988C35.2672 48.2034 34.938 48.5327 34.5332 48.5327H2.20195C1.79727 48.5327 1.46797 48.2035 1.46797 47.7988V11.3057C1.46797 10.9004 1.13936 10.5718 0.733984 10.5718C0.328613 10.5718 0 10.9003 0 11.3057V47.7988C9.76563e-05 49.0124 0.987891 50 2.20195 50H34.5333C35.7474 50 36.7352 49.0124 36.7352 47.7984V38.5507C37.0627 38.3769 37.3842 38.1878 37.6987 37.9839L39.4803 39.7651C39.172 40.0343 39.1555 40.5472 39.4519 40.8313L44.0823 45.4612C45.374 46.8074 47.6986 46.8073 48.9902 45.4612C50.3367 44.1696 50.3366 41.8453 48.9903 40.5538V40.5538ZM28.3743 9.09365C27.9696 9.09365 27.6403 8.76445 27.6403 8.35977V2.50557L34.2293 9.09365H28.3743ZM38.896 37.1053C39.2092 36.8464 39.5133 36.5712 39.8062 36.2783C40.0975 35.9871 40.373 35.6831 40.6332 35.3682L42.2555 36.9901L40.5182 38.7271L38.896 37.1053ZM47.9523 44.4233C47.207 45.2002 45.8657 45.2 45.1203 44.4233L41.0088 40.3124L43.8409 37.4807L47.9524 41.5916C48.7292 42.337 48.7293 43.678 47.9523 44.4233Z" fill="#ED1B24"></path><path d="M6.66074 20.0003H9.87168C10.777 20.0003 11.5135 19.264 11.5135 18.3589V15.1483C11.5135 14.2432 10.7771 13.5068 9.87168 13.5068H6.66074C5.75557 13.5068 5.01904 14.2432 5.01904 15.1483V18.3589C5.01904 19.264 5.75557 20.0003 6.66074 20.0003V20.0003ZM6.48701 15.1483C6.48701 15.0525 6.56504 14.9746 6.66074 14.9746H9.87168C9.96758 14.9746 10.0455 15.0525 10.0455 15.1483V18.3589C10.0455 18.4547 9.96748 18.5326 9.87168 18.5326H6.66074C6.56494 18.5326 6.48701 18.4547 6.48701 18.3589V15.1483Z" fill="#ED1B24"></path><path d="M5.01904 28.6486C5.01904 29.5537 5.75547 30.2901 6.66074 30.2901H9.87168C10.777 30.2901 11.5135 29.5537 11.5135 28.6486V25.4381C11.5135 24.533 10.7771 23.7967 9.87168 23.7967H6.66074C5.75557 23.7967 5.01904 24.533 5.01904 25.4381V28.6486ZM6.48701 25.4381C6.48701 25.3423 6.56504 25.2644 6.66074 25.2644H9.87168C9.96758 25.2644 10.0455 25.3423 10.0455 25.4381V28.6486C10.0455 28.7444 9.96748 28.8224 9.87168 28.8224H6.66074C6.56494 28.8224 6.48701 28.7444 6.48701 28.6486V25.4381Z" fill="#ED1B24"></path><path d="M5.01904 39.1475C5.01904 40.0525 5.75547 40.7889 6.66074 40.7889H9.87168C10.777 40.7889 11.5135 40.0525 11.5135 39.1475V35.9369C11.5135 35.0317 10.7771 34.2954 9.87168 34.2954H6.66074C5.75557 34.2954 5.01904 35.0317 5.01904 35.9369V39.1475ZM6.48701 35.9369C6.48701 35.8411 6.56504 35.7632 6.66074 35.7632H9.87168C9.96758 35.7632 10.0455 35.8411 10.0455 35.9369V39.1475C10.0455 39.2433 9.96748 39.3212 9.87168 39.3212H6.66074C6.56494 39.3212 6.48701 39.2433 6.48701 39.1475V35.9369Z" fill="#ED1B24"></path></g><defs><clipPath id="clip0_64_236"><rect width="50" height="50" fill="white"></rect></clipPath></defs></svg>