<svg width="30" height="31" viewBox="0 0 30 31" fill="none" xmlns="http://www.w3.org/2000/svg">
<path fill-rule="evenodd" clip-rule="evenodd" d="M6.23125 3.22803C4.51875 3.22803 3.2525 4.72678 3.31 6.35053C3.36375 7.91303 3.29375 9.93428 2.785 11.583C2.2725 13.2355 1.41 14.283 0 14.418V15.9368C1.41 16.0705 2.27375 17.118 2.78375 18.7718C3.29375 20.4205 3.36375 22.4418 3.30875 24.003C3.2525 25.628 4.51875 27.1268 6.23125 27.1268H23.7713C25.4838 27.1268 26.75 25.628 26.6925 24.003C26.6388 22.4418 26.7088 20.4205 27.2175 18.7718C27.7288 17.118 28.59 16.0718 30 15.9368V14.418C28.59 14.283 27.7288 13.2355 27.2175 11.583C26.7088 9.93303 26.6388 7.91178 26.6925 6.35053C26.75 4.72553 25.4825 3.22803 23.7713 3.22803H6.23125ZM20.3375 17.9393C20.3375 20.1768 18.6688 21.533 15.9 21.533H11.1863C11.0513 21.533 10.9219 21.4794 10.8265 21.384C10.7311 21.2886 10.6775 21.1592 10.6775 21.0243V9.32928C10.6778 9.19457 10.7316 9.06548 10.827 8.97034C10.9223 8.87521 11.0515 8.82178 11.1863 8.82178H15.8738C18.1825 8.82178 19.6987 10.0718 19.6987 11.993C19.6987 13.3405 18.6788 14.5468 17.38 14.7593V14.8293C19.1488 15.023 20.3387 16.248 20.3387 17.9393H20.3375ZM15.3875 10.433H12.7V14.2305H14.9637C16.7137 14.2305 17.6787 13.5255 17.6787 12.2655C17.6787 11.0855 16.8488 10.433 15.3875 10.433ZM12.7 15.7368V19.9205H15.4875C17.3088 19.9205 18.275 19.1893 18.275 17.8155C18.275 16.4405 17.2825 15.7368 15.37 15.7368H12.7V15.7368Z" fill="black"/>
</svg>
