<svg width="320" height="257" viewBox="0 0 320 257" fill="none" xmlns="http://www.w3.org/2000/svg">
<g clip-path="url(#clip0_1_232)">
<path d="M270.002 109.737C270.002 109.737 251.379 110.503 243.097 123.506C243.097 123.506 261.218 125.084 270.002 109.737Z" fill="black"/>
<path d="M147.522 105.356C147.522 105.356 132.337 99.492 122.06 106.411C122.06 106.411 138.838 111.322 147.522 105.356Z" fill="black"/>
<path d="M215.603 196.507C215.603 196.507 240.086 208.627 239.483 256.504H161.779C161.779 256.504 157.968 228.626 167.704 196.507C177.44 164.387 215.603 196.507 215.603 196.507Z" fill="#C84500"/>
<path d="M202.067 110.602C202.067 110.602 228.64 123.783 233.459 131.661C238.278 139.539 238.674 197.624 234.948 201.26C231.221 204.897 176.685 209.935 161.044 198.728C155.955 195.083 154.415 141.369 155.153 136.913C156.759 127.217 183.663 111.997 185.435 113.025C187.206 114.054 202.067 110.602 202.067 110.602Z" fill="#ED744C"/>
<path d="M179.912 58.47C180.305 55.9089 181.643 53.0186 183.932 51.829C186.221 50.6394 189.074 50.6217 191.377 51.7823C192.103 50.0784 194.225 49.0964 196.037 48.76C201.363 47.7708 207.103 48.7157 211.605 51.7453C216.108 54.7748 219.228 59.9502 219.39 65.3976C219.479 68.3651 218.437 71.7013 215.777 72.9859C220.361 70.1681 226.865 71.2305 230.723 74.9909C234.581 78.7512 235.849 84.8047 234.309 89.9832C232.77 95.1618 228.667 99.3834 223.75 101.559C221.841 102.404 219.788 102.969 217.702 103.005C212.193 103.103 206.871 99.0759 205.436 93.7235C206.296 95.8564 207.369 97.5796 206.915 99.8349C206.461 102.09 204.965 104.212 202.813 104.993C201.198 105.579 198.992 105.328 197.287 105.12C195.509 97.7696 194.334 90.2142 193.009 82.7684C194.157 83.8405 195.643 84.7105 197.209 84.6654C197.9 84.6453 196.362 78.0623 196.965 77.725C199.306 76.4163 203.058 80.1099 203.072 77.4159C203.083 75.1953 201.91 72.8386 199.835 72.0837C198.036 71.4293 196.514 71.9855 195.029 73.1984C195.933 71.3134 196.107 69.3278 196.346 67.248C196.5 65.9159 196.506 64.5404 196.098 63.263C195.728 62.1032 195.028 61.0706 194.199 60.1828C190.553 56.2775 184.491 55.7334 179.912 58.47Z" fill="black"/>
<path d="M198.362 80.048C199.316 82.6654 202.269 83.323 205.484 80.3063C207.99 77.9537 209.286 73.9607 207.111 71.295C206.009 69.9452 204.417 68.9423 202.685 68.8071C200.954 68.6727 199.118 69.5138 198.295 71.0519C198.049 66.4424 196.397 61.7628 194.716 59.7297C192.746 57.3481 190.279 55.9573 187.302 55.8985C184.187 55.8374 181.064 57.0028 178.742 59.0931C175.461 62.0486 173.972 66.5044 173.025 70.8322C172.072 75.1898 171.53 79.6383 171.409 84.0981C171.361 85.9203 171.453 87.9349 172.697 89.2598C173.677 90.3029 175.156 90.6739 176.56 90.9299C179.685 91.4997 182.87 91.7364 186.045 91.6333C191.235 91.449 197.548 86.9264 198.362 80.048Z" fill="#F1A8A9"/>
<path d="M181.19 70.6711C181.28 71.5444 181.018 72.4297 180.494 73.1284C180.234 73.4753 179.917 73.7755 179.547 74.0024C179.186 74.2246 178.778 74.3566 178.402 74.5522C178.106 74.7067 177.73 74.9184 177.757 75.3088C177.788 75.7466 178.255 76.0951 178.542 76.3768C179.16 76.9837 179.6 77.8964 179.001 78.6643C178.673 79.0844 178.092 78.4928 178.417 78.0767C178.656 77.7701 178.238 77.2493 178.037 77.0416C177.734 76.7294 177.399 76.4485 177.17 76.0718C176.741 75.3675 176.933 74.5691 177.577 74.0878C178.195 73.6258 178.994 73.4986 179.557 72.9497C180.168 72.3533 180.45 71.517 180.363 70.6711C180.309 70.1399 181.136 70.1439 181.19 70.6711Z" fill="black"/>
<path d="M182.841 78.9026C181.709 80.8013 178.944 81.4315 177.13 80.1501C176.698 79.8451 177.11 79.1247 177.546 79.433C178.991 80.4536 181.211 80.0197 182.127 78.4832C182.401 78.0253 183.115 78.443 182.841 78.9026Z" fill="black"/>
<path d="M180.978 82.5359C180.466 82.552 179.953 82.568 179.441 82.5833C179.225 82.5898 179.018 82.3878 179.028 82.168C179.038 81.937 179.209 81.76 179.441 81.7527C179.953 81.7366 180.466 81.7205 180.978 81.7052C181.194 81.6988 181.401 81.9008 181.391 82.1205C181.381 82.3507 181.21 82.5286 180.978 82.5359Z" fill="black"/>
<path d="M187.107 72.1665C187.033 72.9391 187.439 73.6104 188.014 73.6668C188.59 73.7231 189.116 73.142 189.19 72.3693C189.265 71.5966 188.858 70.9253 188.283 70.869C187.708 70.8127 187.182 71.3938 187.107 72.1665Z" fill="black"/>
<path d="M176.259 71.0847C176.196 71.7383 176.54 72.3057 177.026 72.3532C177.513 72.4007 177.957 71.9089 178.021 71.2562C178.083 70.6026 177.74 70.0352 177.253 69.9877C176.767 69.941 176.321 70.432 176.259 71.0847Z" fill="black"/>
<path d="M204.467 72.6076C203.073 72.8306 201.771 73.5872 200.956 74.7607C200.079 76.0219 199.805 77.626 200.186 79.1126C200.319 79.631 199.523 79.8515 199.39 79.3332C198.958 77.6454 199.244 75.778 200.243 74.3413C201.177 72.998 202.637 72.0644 204.248 71.8068C204.768 71.7239 204.991 72.5239 204.467 72.6076Z" fill="black"/>
<path d="M200.468 74.8668C201.69 75.662 202.46 77.048 202.48 78.5137C202.487 79.0481 201.661 79.049 201.654 78.5137C201.638 77.3603 201.029 76.2206 200.051 75.584C199.864 75.4624 199.787 75.2153 199.903 75.0157C200.012 74.8282 200.28 74.7445 200.468 74.8668Z" fill="black"/>
<path d="M198.274 78.3706L202.067 110.602C202.067 110.602 190.418 117.42 185.435 113.026L188.149 87.5727C188.149 87.5736 197.521 76.3488 198.274 78.3706Z" fill="#F1A8A9"/>
<path d="M187.738 91.4247C187.738 91.4247 197.393 90.2247 197.995 81.8162C197.995 81.8162 199.627 91.5696 187.366 94.9123L187.738 91.4247Z" fill="black"/>
<path d="M184.58 76.4971C184.565 75.3992 185.749 74.492 187.226 74.4708C188.703 74.4495 189.913 75.3223 189.928 76.4201C189.944 77.518 188.759 78.4252 187.283 78.4464C185.806 78.4677 184.596 77.5949 184.58 76.4971Z" fill="#EA8B96"/>
<path d="M172.728 75.9503C173.089 76.987 174.166 77.5504 175.135 77.2083C176.104 76.8671 176.597 75.7499 176.237 74.714C175.876 73.6773 174.798 73.1139 173.829 73.456C172.861 73.7973 172.367 74.9144 172.728 75.9503Z" fill="#EA8B96"/>
<path d="M191.953 70.9769C192.15 70.9656 192.339 70.9085 192.422 70.7386C192.52 70.5398 192.409 70.3056 192.292 70.1173C191.457 68.7691 190.118 67.3034 188.417 67.2986C188.006 67.2978 187.56 67.3976 187.303 67.7203C187.079 68.0021 187.049 68.4053 187.161 68.7482C187.273 69.0902 187.511 69.3784 187.778 69.619C188.828 70.5664 190.305 70.8489 191.709 70.9712C191.788 70.9777 191.871 70.9809 191.953 70.9769Z" fill="black"/>
<path d="M172.976 69.1749C172.84 69.1531 172.715 69.096 172.677 68.9599C172.632 68.7998 172.737 68.6267 172.841 68.4891C173.582 67.5055 174.689 66.464 175.877 66.5759C176.164 66.6025 176.464 66.7103 176.605 66.9767C176.728 67.2093 176.701 67.5224 176.582 67.7792C176.464 68.036 176.264 68.242 176.049 68.4094C175.205 69.0694 174.141 69.1877 173.146 69.1869C173.091 69.1869 173.033 69.1837 172.976 69.1749Z" fill="black"/>
<path d="M188.759 74.0804C188.902 74.0804 189.031 73.9839 189.067 73.839C189.109 73.6675 189.006 73.4937 188.836 73.451C188.754 73.4301 186.808 72.9399 185.413 73.0365C185.238 73.0478 185.105 73.1999 185.117 73.3762C185.129 73.5524 185.267 73.6941 185.455 73.674C186.742 73.5951 188.662 74.066 188.681 74.0708C188.708 74.078 188.733 74.0804 188.759 74.0804Z" fill="black"/>
<path d="M177.139 72.6762C177.276 72.6762 177.402 72.5868 177.444 72.4484C177.493 72.2794 177.399 72.1015 177.232 72.05C177.186 72.0363 176.085 71.7103 174.673 71.9421C174.5 71.9711 174.383 72.1353 174.411 72.3091C174.439 72.4846 174.609 72.6029 174.776 72.5731C176.033 72.3639 177.038 72.6593 177.048 72.6625C177.079 72.6721 177.109 72.6762 177.139 72.6762Z" fill="black"/>
<path d="M192.407 75.1608C192.972 73.8336 193.228 72.3929 193.164 70.9505C193.109 69.7014 192.846 68.2864 192.064 67.2771C190.73 65.5579 188.189 65.1071 186.377 66.2984C184.502 67.5314 183.683 70.0185 183.535 72.1659C183.38 74.4115 184.008 77.0563 186.327 77.9384C188.668 78.8294 191.454 77.4104 192.407 75.1608C192.664 74.5523 193.548 75.0771 193.292 75.6816C192.292 78.0447 189.483 79.6013 186.957 79.1723C184.055 78.6797 182.596 75.9866 182.493 73.2291C182.396 70.6302 183.218 67.5926 185.259 65.8605C187.288 64.1373 190.24 64.2137 192.236 65.9667C193.443 67.026 193.931 68.5979 194.121 70.1513C194.353 72.0484 194.038 73.9326 193.292 75.6824C193.032 76.2901 192.149 75.7653 192.407 75.1608Z" fill="black"/>
<path d="M177.112 72.5842C177.677 71.2569 177.933 69.8162 177.869 68.3739C177.814 67.1247 177.551 65.7097 176.769 64.7004C175.435 62.9812 172.894 62.5305 171.082 63.7217C169.207 64.954 168.388 67.4418 168.24 69.5892C168.085 71.8348 168.713 74.4796 171.032 75.3618C173.373 76.2528 176.159 74.8338 177.112 72.5842C177.369 71.9757 178.253 72.5005 177.997 73.1049C176.997 75.468 174.188 77.0247 171.662 76.5957C168.76 76.1031 167.301 73.41 167.198 70.6525C167.101 68.0535 167.923 65.0159 169.964 63.2838C171.993 61.5606 174.945 61.6371 176.941 63.3901C178.148 64.4493 178.636 66.0212 178.826 67.5746C179.058 69.4717 178.743 71.3559 177.997 73.1057C177.738 73.7134 176.854 73.1886 177.112 72.5842Z" fill="black"/>
<path d="M213.011 76.6553C214.743 73.9308 218.105 73.7312 220.969 74.3687C222.749 74.7647 224.649 75.2734 226.156 76.3447C227.413 77.2381 228.414 78.4736 229.205 79.7927C232.433 85.179 231.605 92.9919 225.738 96.2041C222.769 97.83 219.004 97.7052 216.209 95.7751C215.797 95.4902 216.188 94.8069 216.605 95.095C219.542 97.1241 223.535 96.9881 226.387 94.8535C229.185 92.7593 230.592 89.2025 230.333 85.7488C230.062 82.1341 228.024 78.0228 224.673 76.3777C221.547 74.8436 215.957 73.4793 213.685 77.0529C213.417 77.4787 212.739 77.0843 213.011 76.6553Z" fill="white"/>
<path d="M226.535 83.9064C227.393 85.7375 227.335 87.9525 226.261 89.687C225.274 91.2806 223.57 92.3012 221.725 92.4952C221.225 92.5475 221.229 91.7595 221.725 91.7072C223.285 91.543 224.754 90.6287 225.585 89.2886C226.505 87.806 226.598 85.8799 225.859 84.3032C225.645 83.8476 226.32 83.4476 226.535 83.9064Z" fill="white"/>
<path d="M211.434 92.6047C209.479 90.351 208.764 87.1669 209.602 84.2911C209.744 83.8058 210.499 84.0127 210.357 84.5004C209.601 87.0969 210.216 90.0049 211.988 92.0477C212.317 92.4276 211.766 92.987 211.434 92.6047Z" fill="white"/>
<path d="M201.98 109.859L215.603 117.969C215.603 117.969 185.221 144.699 173.049 119.09C173.049 119.09 179.247 113.783 186.174 111.435C193.101 109.087 201.98 109.859 201.98 109.859Z" fill="#F1A8A9"/>
<path d="M128.574 110.402C128.574 110.402 129.378 103.394 127.089 97.7302C124.799 92.0663 123.688 91.2043 123.922 83.7946C123.922 83.7946 120.745 84.5053 121.19 80.0036C121.637 75.502 124.338 75.6251 124.338 75.6251C124.338 75.6251 125.322 74.2037 126.95 74.9474C126.95 74.9474 128.43 71.6836 131.176 74.0854V62.6747C131.176 62.6747 131.114 59.6468 133.678 59.4439C136.243 59.2411 136.458 62.492 136.458 62.492C136.458 62.492 136.622 72.6712 136.282 77.4956C136.282 77.4956 140.745 78.2329 142.41 83.0291C144.074 87.8254 141.766 110.403 141.766 110.403H128.574V110.402Z" fill="#F1A8A9"/>
<path d="M141.802 82.3161C140.702 79.1867 136.823 77.4852 133.694 77.7846C132.915 77.8595 132.105 78.0848 131.485 78.5847C130.693 79.2245 130.464 80.2137 130.432 81.1957C130.401 82.1704 130.624 83.3777 131.661 83.7455C132.586 84.0731 133.137 83.1918 133.741 82.6605C134.324 82.1486 135.028 81.871 135.789 82.1478C136.534 82.4199 137.008 83.0783 137.081 83.859C137.13 84.391 136.304 84.3878 136.255 83.859C136.206 83.3382 135.74 82.9012 135.223 82.8618C134.734 82.8247 134.356 83.2071 134.036 83.5242C133.459 84.0964 132.869 84.6864 131.997 84.6542C129.8 84.5721 129.427 81.9281 129.7 80.2403C130.367 76.1153 135.597 76.5854 138.439 77.8482C140.319 78.6837 141.904 80.1179 142.6 82.0955C142.777 82.5994 141.979 82.8167 141.802 82.3161Z" fill="black"/>
<path d="M134.594 85.8494C133.844 86.6687 133.667 87.8712 134.077 88.8918C134.161 89.0995 133.986 89.3482 133.789 89.4029C133.553 89.4681 133.365 89.3216 133.281 89.1131C132.762 87.8221 133.08 86.2792 134.01 85.2626C134.161 85.0976 134.441 85.1089 134.594 85.2626C134.757 85.4268 134.746 85.6844 134.594 85.8494Z" fill="black"/>
<path d="M131.615 64.0526C131.647 68.6509 131.638 73.2491 131.67 77.8473C131.674 78.3818 130.848 78.3826 130.844 77.8473C130.812 73.2491 130.822 68.6509 130.79 64.0526C130.786 63.5174 131.611 63.5166 131.615 64.0526Z" fill="black"/>
<path d="M130.884 74.3792C130.386 73.7924 129.606 73.4809 128.849 73.7232C128.107 73.9606 127.638 74.6504 127.331 75.3313C126.614 76.9242 126.387 78.835 126.366 80.5638C126.348 82.1285 126.343 84.4224 127.578 85.5822C128.947 86.8676 130.572 85.5661 130.782 83.9926C130.852 83.4702 131.678 83.4638 131.608 83.9926C131.43 85.3238 130.585 86.7235 129.158 86.936C127.619 87.1654 126.458 85.8599 126.012 84.5174C125.4 82.6758 125.438 80.5083 125.679 78.6064C125.881 77.0159 126.206 75.1269 127.268 73.86C128.366 72.5497 130.343 72.4636 131.469 73.7924C131.811 74.1965 131.23 74.7872 130.884 74.3792Z" fill="black"/>
<path d="M126.525 75.2684C125.464 74.8676 124.719 75.9172 124.446 76.8098C124.117 77.8867 123.91 79.0723 123.817 80.1934C123.733 81.2108 123.796 82.2652 124.231 83.2029C124.416 83.6013 124.658 83.9715 124.97 84.2806C125.204 84.5124 125.829 85.071 126.171 84.745C126.557 84.3772 127.141 84.9631 126.755 85.3326C125.832 86.2147 124.56 85.1756 123.98 84.3933C123.173 83.3051 122.911 81.9175 122.967 80.5846C123.001 79.795 123.133 79.0119 123.282 78.2368C123.421 77.5148 123.543 76.7743 123.829 76.0942C124.302 74.9706 125.477 73.9887 126.745 74.4676C127.238 74.6535 127.025 75.4568 126.525 75.2684Z" fill="black"/>
<path d="M124.36 76.1635C122.494 76.2303 121.778 78.3101 121.649 79.8748C121.577 80.7457 121.506 81.7381 121.878 82.5534C122.162 83.1756 122.932 83.7752 123.633 83.4404C124.11 83.2118 124.53 83.9281 124.05 84.1575C123.139 84.593 122.099 84.2412 121.48 83.4718C120.741 82.5542 120.736 81.2696 120.803 80.1501C120.873 78.9975 121.08 77.7821 121.766 76.8243C122.379 75.9679 123.294 75.3699 124.359 75.3321C124.891 75.3136 124.89 76.145 124.36 76.1635Z" fill="black"/>
<path d="M124.334 83.7944C124.073 86.0883 124.018 88.437 124.509 90.7051C125.017 93.0585 126.285 94.9846 127.345 97.103C127.584 97.5795 126.872 98.0005 126.633 97.5224C125.539 95.3387 124.237 93.3515 123.713 90.9264C123.206 88.5834 123.238 86.1656 123.509 83.7944C123.569 83.2697 124.395 83.2632 124.334 83.7944Z" fill="black"/>
<path d="M138.066 95.7928C137.089 96.0302 136.11 95.6785 135.346 95.0612C134.569 94.4333 134.059 93.5319 133.575 92.6723C133.313 92.2063 134.026 91.7869 134.288 92.2529C134.71 93.0023 135.137 93.7701 135.783 94.3488C136.333 94.8414 137.108 95.1714 137.847 94.9919C138.363 94.8664 138.583 95.6672 138.066 95.7928Z" fill="black"/>
<path d="M130.521 90.0284C130.394 91.2743 130.266 92.5194 130.14 93.7646C130.118 93.9875 129.966 94.1799 129.727 94.1799C129.521 94.1799 129.291 93.9891 129.314 93.7646C129.442 92.5186 129.568 91.2735 129.695 90.0284C129.718 89.8054 129.869 89.613 130.108 89.613C130.313 89.613 130.543 89.8038 130.521 90.0284Z" fill="black"/>
<path d="M130.481 79.6848C131.215 80.0076 131.783 80.6563 132.042 81.4153C132.318 82.229 132.186 83.1691 131.728 83.8903C131.443 84.3394 130.728 83.9233 131.015 83.4709C131.363 82.922 131.456 82.2548 131.246 81.6358C131.054 81.07 130.602 80.6378 130.065 80.4012C129.86 80.3118 129.814 80.01 129.917 79.8329C130.039 79.6212 130.275 79.5947 130.481 79.6848Z" fill="black"/>
<path d="M128.625 86.0571C128.634 86.0386 128.642 86.0201 128.651 86.0008C128.63 86.0531 128.627 86.0571 128.643 86.0145C128.652 85.9855 128.663 85.9565 128.671 85.9268C128.682 85.8873 128.691 85.8479 128.699 85.8084C128.702 85.794 128.705 85.7787 128.707 85.7634C128.712 85.732 128.71 85.7432 128.702 85.798C128.729 85.7497 128.712 85.641 128.71 85.5847C128.71 85.5533 128.716 85.4905 128.702 85.4623C128.704 85.4792 128.706 85.4953 128.709 85.5122C128.706 85.4921 128.702 85.472 128.698 85.4519C128.686 85.381 128.668 85.311 128.646 85.2426C128.634 85.2032 128.619 85.1653 128.605 85.1267C128.629 85.1911 128.617 85.1549 128.597 85.113C128.566 85.0486 128.53 84.9851 128.492 84.9255C128.473 84.8957 128.45 84.8675 128.431 84.837C128.413 84.8128 128.419 84.8201 128.449 84.8603C128.436 84.8442 128.422 84.8289 128.41 84.8136C128.362 84.7605 128.312 84.7098 128.258 84.6631C128.223 84.6325 128.192 84.6156 128.247 84.6526C128.214 84.6301 128.181 84.606 128.146 84.585C128.121 84.5689 128.094 84.5544 128.067 84.54C128.049 84.5303 128.031 84.5214 128.013 84.5134C128.065 84.5343 128.07 84.5367 128.027 84.5198C127.938 84.4892 127.85 84.4643 127.759 84.4458C127.63 84.4192 127.829 84.4482 127.698 84.4369C127.64 84.4321 127.582 84.4289 127.525 84.4273C127.422 84.4257 127.321 84.4305 127.219 84.4393C127.175 84.4434 127.131 84.4482 127.088 84.453C127.037 84.4595 127.03 84.4603 127.066 84.4554C127.045 84.4587 127.022 84.4619 127.001 84.4651C126.892 84.482 126.783 84.5013 126.675 84.5214C126.463 84.5601 126.22 84.4635 126.167 84.2317C126.122 84.0289 126.228 83.7624 126.455 83.7206C127.173 83.5902 127.985 83.4703 128.628 83.9089C129.15 84.2655 129.462 84.8362 129.529 85.4623C129.566 85.8133 129.49 86.1602 129.34 86.4757C129.246 86.6721 128.952 86.7397 128.775 86.6246C128.573 86.4958 128.525 86.2672 128.625 86.0571Z" fill="black"/>
<path d="M123.417 82.1976C123.774 82.0391 124.163 82.0061 124.535 82.1445C124.871 82.2701 125.171 82.4785 125.394 82.7627C125.915 83.4243 125.954 84.2935 125.963 85.1024C125.966 85.3197 125.771 85.5282 125.55 85.5177C125.325 85.5073 125.14 85.335 125.138 85.1024C125.136 84.9342 125.134 84.766 125.126 84.5978C125.122 84.5173 125.117 84.4368 125.11 84.3563C125.106 84.3128 125.101 84.2694 125.097 84.2251C125.095 84.2106 125.094 84.1961 125.091 84.1816C125.095 84.213 125.095 84.2138 125.091 84.1841C125.065 84.0207 125.03 83.8581 124.977 83.7011C124.966 83.6673 124.953 83.6335 124.94 83.5997C124.93 83.5732 124.93 83.5732 124.94 83.5997C124.934 83.5868 124.928 83.574 124.922 83.5603C124.886 83.4895 124.85 83.4194 124.807 83.3534C124.802 83.3454 124.746 83.2657 124.777 83.3076C124.805 83.3454 124.738 83.2617 124.729 83.252C124.685 83.2021 124.636 83.1578 124.587 83.1128C124.503 83.0355 124.651 83.1538 124.558 83.0878C124.533 83.0709 124.509 83.0532 124.483 83.0379C124.428 83.0025 124.37 82.9743 124.312 82.9437C124.39 82.9856 124.296 82.9389 124.281 82.9333C124.248 82.922 124.214 82.9124 124.182 82.9035C124.154 82.8963 124.126 82.8922 124.098 82.8858C124.05 82.8745 124.169 82.8858 124.089 82.8866C124.055 82.8866 124.021 82.8834 123.987 82.885C123.962 82.8858 123.872 82.9075 123.962 82.8842C123.93 82.893 123.896 82.8979 123.863 82.9075C123.843 82.9132 123.749 82.9518 123.832 82.9148C123.635 83.0017 123.379 82.9792 123.267 82.7659C123.174 82.5856 123.206 82.291 123.417 82.1976Z" fill="black"/>
<path d="M121.235 80.9688C121.912 80.976 122.531 81.3124 122.928 81.859C123.314 82.391 123.403 83.1532 123.171 83.7665C123.094 83.9693 122.89 84.1303 122.663 84.0571C122.466 83.9935 122.293 83.7633 122.375 83.546C122.398 83.484 122.419 83.422 122.435 83.3584C122.442 83.3295 122.45 83.3005 122.455 83.2707C122.458 83.2554 122.469 83.1427 122.462 83.2393C122.47 83.1186 122.473 83.0019 122.462 82.8812C122.453 82.7661 122.482 82.9624 122.457 82.849C122.45 82.82 122.445 82.7902 122.438 82.7612C122.423 82.6968 122.402 82.6349 122.382 82.5721C122.357 82.498 122.398 82.5978 122.375 82.5552C122.362 82.5286 122.35 82.5012 122.336 82.4747C122.306 82.4167 122.272 82.3604 122.234 82.3065C122.223 82.2896 122.171 82.2324 122.227 82.2944C122.208 82.2735 122.19 82.2509 122.171 82.2292C122.129 82.1825 122.084 82.1383 122.037 82.0972C122.029 82.09 121.955 82.0312 121.999 82.0642C122.043 82.098 121.967 82.0417 121.958 82.036C121.906 82.0006 121.853 81.9684 121.798 81.9386C121.772 81.925 121.746 81.9129 121.721 81.9C121.622 81.8509 121.798 81.9258 121.694 81.8887C121.64 81.8702 121.586 81.8517 121.53 81.8372C121.475 81.8227 121.419 81.8123 121.363 81.8026C121.464 81.8203 121.354 81.8034 121.337 81.8026C121.302 81.8002 121.269 81.7994 121.234 81.7994C121.018 81.797 120.811 81.6103 120.822 81.3841C120.833 81.1611 121.004 80.9664 121.235 80.9688Z" fill="black"/>
<path d="M166.458 123.667C166.458 123.667 151.123 134.579 145.35 145.751L147.522 105.356C147.522 105.356 135.951 108.835 122.06 106.411C122.06 106.411 127.2 179 133.446 182.232C139.691 185.464 162.927 156.711 162.927 156.711L166.458 123.667Z" fill="#ED744C"/>
<path d="M167.69 123.616C165.813 133.664 158.434 141.44 155.913 151.245C154.354 157.309 155.377 163.566 156.142 169.667C156.948 176.087 157.753 182.507 158.558 188.926C158.625 189.455 157.798 189.45 157.733 188.926C156.914 182.394 156.094 175.862 155.274 169.329C154.535 163.434 153.599 157.41 154.99 151.538C157.368 141.496 164.986 133.609 166.894 123.396C166.992 122.871 167.788 123.093 167.69 123.616Z" fill="black"/>
<path d="M146.529 128.638C145.921 136.171 145.403 143.688 146.112 151.233C146.666 157.135 147.525 163.477 144.28 168.789C144.002 169.244 143.288 168.827 143.567 168.37C146.933 162.859 145.703 156.197 145.184 150.113C144.573 142.952 145.126 135.782 145.702 128.639C145.746 128.109 146.572 128.104 146.529 128.638Z" fill="black"/>
<path d="M146.069 147.869C147.919 151.476 148.888 155.477 148.882 159.539C148.882 160.073 148.056 160.074 148.057 159.539C148.062 155.626 147.139 151.767 145.356 148.288C145.113 147.814 145.825 147.393 146.069 147.869Z" fill="black"/>
<path d="M124.552 113.064C125.638 120.442 126.459 127.856 127.006 135.294C127.046 135.827 126.22 135.824 126.181 135.294C125.638 127.93 124.832 120.589 123.756 113.284C123.679 112.762 124.474 112.536 124.552 113.064Z" fill="black"/>
<path d="M127.804 140.153C127.924 141.16 128.043 142.168 128.163 143.176C128.189 143.399 127.954 143.591 127.75 143.591C127.506 143.591 127.364 143.399 127.337 143.176C127.217 142.168 127.098 141.16 126.978 140.153C126.952 139.93 127.187 139.737 127.391 139.737C127.636 139.737 127.778 139.929 127.804 140.153Z" fill="black"/>
<path d="M209.259 182.751C194.971 174.316 179.237 168.602 162.889 165.9C162.366 165.814 162.589 165.013 163.109 165.099C179.521 167.812 195.33 173.565 209.675 182.034C210.133 182.305 209.718 183.023 209.259 182.751Z" fill="black"/>
<path d="M189.857 179.343C183.848 176.597 177.52 174.63 171.024 173.465C170.502 173.371 170.723 172.57 171.243 172.664C177.813 173.842 184.197 175.85 190.273 178.626C190.757 178.846 190.338 179.562 189.857 179.343Z" fill="black"/>
<path d="M246.833 77.3725C247.131 76.508 247.893 75.456 248.702 75.8722C249.157 76.1064 249.285 76.6891 249.355 77.1978C249.849 80.7787 249.985 84.4087 249.762 88.0161C249.728 88.5682 249.704 89.18 250.052 89.6081C250.506 90.1659 251.352 90.1345 252.058 90.0178C260.286 88.6568 266.824 82.6025 274.049 78.4148C274.565 78.1154 275.145 77.8143 275.729 77.9343C276.655 78.1234 277.069 79.3492 276.703 80.2249C276.337 81.1006 275.465 82.2492 274.573 82.5607C275.377 81.7131 276.674 81.3107 277.698 80.8173C278.722 80.3247 280.33 80.4294 280.549 81.5498C280.654 82.0906 280.36 82.6235 280.044 83.0726C278.976 84.5898 277.508 85.8188 275.832 86.6019C277.594 85.5596 278.888 85.1636 279.293 86.7718C279.517 89.3683 274.46 92.562 270.931 93.6591C273.105 92.847 276.755 88.817 277.455 91.2235C277.561 94.4326 274.468 95.6994 272.209 97.2239C268.976 99.4051 265.743 101.586 262.51 103.767C261.725 104.298 260.893 104.885 260.565 105.777C260.228 106.693 260.501 107.709 260.776 108.646C262.334 113.954 263.893 119.262 265.45 124.57C261.957 128.053 257.126 130.142 252.211 130.294C252.233 130.293 251.168 124.99 251.045 124.516C250.621 122.881 250.116 121.265 249.622 119.649C248.695 116.618 247.245 113.782 246.319 110.742C244.214 103.828 243.504 96.4866 244.229 89.2926C244.638 85.2361 245.504 81.2254 246.833 77.3725Z" fill="#F1A8A9"/>
<path d="M276.122 93.8805C276.487 93.4128 277.362 92.1613 277.184 91.4836C276.912 90.4493 275.563 91.3435 275.019 91.6196C273.518 92.3802 272.035 93.1835 270.544 93.9642C269.14 94.6998 267.736 95.4355 266.332 96.1711C265.077 96.8287 263.797 97.665 262.419 98.0409C261.121 98.3958 259.817 98.0924 258.509 97.9733C257.018 97.8372 255.497 97.8735 254.035 98.2252C251.141 98.923 248.665 100.986 248.115 104.013C248.02 104.538 247.224 104.316 247.319 103.793C247.851 100.861 250.096 98.6703 252.84 97.7109C254.482 97.1362 256.271 96.9921 257.997 97.1024C259.069 97.1708 260.159 97.4517 261.234 97.3897C262.56 97.3133 263.714 96.6074 264.862 96.0061C266.793 94.9944 268.723 93.9827 270.654 92.9718C272.333 92.092 274.092 90.8509 275.908 90.2948C279.125 89.3104 277.79 93.078 276.705 94.468C276.378 94.8882 275.798 94.2966 276.122 93.8805Z" fill="black"/>
<path d="M276.509 90.2624C277.182 89.6869 277.758 89.0487 278.228 88.2929C278.491 87.8695 278.949 87.2095 278.797 86.688C278.636 86.1407 277.947 85.9861 277.464 85.999C276.503 86.0264 275.63 86.6284 274.846 87.1258C274.009 87.6562 273.174 88.1899 272.34 88.7243C269.048 90.8307 265.77 92.9587 262.505 95.1061C262.058 95.3999 261.645 94.6804 262.088 94.389C266.341 91.5929 270.579 88.7404 274.928 86.0964C276.166 85.3438 278.417 84.4504 279.416 86.0787C280.385 87.6587 278.177 89.9236 277.092 90.85C276.689 91.1937 276.103 90.6085 276.509 90.2624Z" fill="black"/>
<path d="M277.583 84.9019C278.386 84.353 279.077 83.6858 279.629 82.8809C279.763 82.6845 279.922 82.472 280.015 82.2491C280.144 81.9392 280.331 81.2969 280.162 80.9862C279.841 80.3946 278.744 80.7351 278.293 80.9001C276.364 81.6044 274.626 82.7859 272.92 83.9103C269.234 86.3394 265.549 88.771 261.863 91.2009C261.418 91.4947 261.003 90.7759 261.446 90.4837C263.921 88.8523 266.395 87.22 268.87 85.5885C271.206 84.048 273.505 82.3722 275.977 81.0554C277.234 80.3858 280.204 78.7704 281.052 80.8711C281.408 81.7533 280.744 82.7312 280.259 83.4234C279.646 84.2991 278.878 85.0194 278.001 85.6199C277.559 85.9209 277.146 85.2013 277.583 84.9019Z" fill="black"/>
<path d="M262.338 97.4863C261.89 94.5783 261.388 91.5527 259.612 89.1269C259.297 88.6962 260.013 88.2809 260.325 88.7075C262.142 91.1881 262.675 94.2901 263.134 97.2649C263.214 97.7889 262.418 98.0143 262.338 97.4863Z" fill="black"/>
<path d="M270.002 109.737C270.002 109.737 261.35 123.168 243.097 123.506L252.542 150.265C252.542 150.265 233.594 130.283 228.442 126.529L237.391 167.098C237.391 167.098 276.528 190.139 279.842 188.927C283.154 187.715 270.002 109.737 270.002 109.737Z" fill="#ED744C"/>
<path d="M227.031 126.046C222.83 140.226 226.808 156.211 237.165 166.72C237.539 167.1 236.956 167.687 236.581 167.307C226.023 156.595 221.95 140.284 226.234 125.825C226.386 125.314 227.184 125.531 227.031 126.046Z" fill="black"/>
<path d="M248.066 135.897C250.506 142.292 252.951 148.7 254.793 155.3C256.542 161.57 257.071 168.443 260.328 174.178C260.592 174.643 259.879 175.062 259.615 174.597C256.418 168.966 255.85 162.31 254.17 156.149C252.31 149.328 249.787 142.715 247.27 136.118C247.079 135.619 247.878 135.402 248.066 135.897Z" fill="black"/>
<path d="M255.027 156.954C254.022 159.796 253.889 162.869 254.665 165.785C254.802 166.301 254.005 166.523 253.869 166.005C253.058 162.956 253.179 159.708 254.231 156.733C254.408 156.233 255.205 156.449 255.027 156.954Z" fill="black"/>
<path d="M271.533 131.544C273.588 139.654 275.097 147.89 276.061 156.203C276.123 156.732 275.297 156.728 275.236 156.203C274.28 147.964 272.773 139.802 270.737 131.764C270.606 131.246 271.402 131.025 271.533 131.544Z" fill="black"/>
<path d="M276.932 160.146C277.16 162.264 277.387 164.382 277.615 166.5C277.672 167.032 276.846 167.027 276.79 166.5C276.562 164.382 276.334 162.264 276.106 160.146C276.05 159.615 276.875 159.619 276.932 160.146Z" fill="black"/>
<path d="M233.358 162.437C235.339 171.841 235.929 181.554 234.893 191.119C234.546 194.326 233.834 197.773 230.843 199.526C229.284 200.44 227.477 200.785 225.726 201.115C223.213 201.59 220.695 202.044 218.179 202.508C217.66 202.604 217.437 201.804 217.96 201.707C220.056 201.321 222.153 200.934 224.249 200.547C226.028 200.219 227.869 199.967 229.54 199.241C233.769 197.403 233.996 192.542 234.302 188.518C234.962 179.86 234.35 171.151 232.561 162.659C232.451 162.136 233.247 161.913 233.358 162.437Z" fill="black"/>
<path d="M216.418 202.726C214.51 203.211 212.534 203.4 210.57 203.277C210.042 203.244 210.038 202.414 210.57 202.447C212.465 202.565 214.358 202.393 216.198 201.925C216.714 201.795 216.933 202.596 216.418 202.726Z" fill="black"/>
<path d="M233.469 220.711C231.509 221.56 229.262 221.007 227.338 220.295C225.37 219.566 223.549 218.466 221.99 217.055C218.708 214.087 216.819 209.812 216.664 205.392C216.646 204.885 217.429 204.885 217.447 205.392C217.589 209.431 219.259 213.336 222.165 216.144C223.529 217.461 225.133 218.522 226.873 219.265C228.699 220.045 231.154 220.861 233.074 220.03C233.531 219.833 233.93 220.511 233.469 220.711Z" fill="white"/>
<path d="M229.685 220.212C234.28 231.404 236.655 243.385 236.693 255.494C236.694 256.001 235.911 256.001 235.909 255.494C235.873 243.45 233.5 231.551 228.929 220.421C228.737 219.954 229.494 219.749 229.685 220.212Z" fill="white"/>
<path d="M187.965 255.91C187.561 247.198 186.593 235.992 177.398 232.029C176.937 231.83 177.335 231.152 177.794 231.349C187.25 235.425 188.332 246.937 188.749 255.91C188.772 256.417 187.989 256.416 187.965 255.91Z" fill="white"/>
<path d="M180.355 236.403C179.411 235.613 178.31 235.017 177.139 234.649C176.66 234.498 176.865 233.738 177.347 233.889C178.654 234.299 179.857 234.965 180.909 235.846C181.071 235.982 181.049 236.262 180.909 236.403C180.748 236.565 180.518 236.539 180.355 236.403Z" fill="white"/>
<path d="M227.059 208.883C216.764 211.562 206.103 212.717 195.477 212.244C190.364 212.017 185.266 211.424 180.237 210.464C175.444 209.549 169.794 208.719 165.727 205.821C165.319 205.53 165.709 204.847 166.122 205.141C170.113 207.984 175.73 208.804 180.445 209.705C185.614 210.692 190.854 211.281 196.112 211.484C206.462 211.881 216.826 210.733 226.851 208.124C227.339 207.997 227.547 208.756 227.059 208.883Z" fill="white"/>
<path d="M53.6767 239.994L107.846 244.385C109.341 244.506 110.649 243.385 110.769 241.882L116.568 169.473C116.688 167.97 115.574 166.653 114.081 166.532L59.9111 162.142C58.4167 162.021 57.1078 163.141 56.9878 164.644L51.1895 237.053C51.0687 238.556 52.1823 239.872 53.6767 239.994Z" fill="white"/>
<path d="M108.067 244.91C109.729 244.91 111.144 243.621 111.281 241.924L117.079 169.514C117.222 167.73 115.895 166.161 114.122 166.018L59.9527 161.627C58.1775 161.491 56.6191 162.818 56.4767 164.602L50.6775 237.011C50.6079 237.876 50.8775 238.716 51.4367 239.377C51.9951 240.037 52.7759 240.439 53.6351 240.509L107.805 244.9C107.893 244.906 107.98 244.91 108.067 244.91ZM59.6927 162.648C59.7519 162.648 59.8103 162.65 59.8703 162.655L114.04 167.047C115.249 167.144 116.154 168.215 116.057 169.432L110.259 241.841C110.161 243.058 109.117 243.978 107.888 243.871L53.7183 239.481C53.1311 239.434 52.5983 239.159 52.2175 238.708C51.8359 238.256 51.6511 237.684 51.6999 237.095L57.4991 164.686C57.5911 163.528 58.5583 162.648 59.6927 162.648Z" fill="black"/>
<path d="M73.4647 166.402L63.9559 165.631C62.7767 165.535 61.7439 166.42 61.6487 167.606L56.0511 237.505C55.9559 238.692 56.8351 239.731 58.0143 239.827L111.965 244.199C113.144 244.295 114.177 243.411 114.272 242.224L119.869 172.326C119.965 171.139 119.085 170.1 117.906 170.005L108.398 169.233" fill="#111A53"/>
<path d="M81.8423 159.355C82.1935 154.968 86.0135 151.698 90.3743 152.052L93.9895 152.345C98.3503 152.698 101.601 156.541 101.249 160.929C101.168 161.933 101.913 162.813 102.91 162.894L107.057 163.231C108.056 163.312 108.8 164.192 108.72 165.196L108.073 173.274C107.992 174.278 107.117 175.027 106.119 174.946L74.8023 172.407C73.8039 172.326 73.0599 171.446 73.1407 170.442L73.7879 162.364C73.8679 161.359 74.7431 160.611 75.7407 160.692L79.8879 161.029C80.8871 161.108 81.7615 160.36 81.8423 159.355Z" fill="#FBBF46"/>
<path d="M106.267 175.467C107.465 175.467 108.485 174.537 108.585 173.314L109.231 165.237C109.281 164.614 109.087 164.008 108.684 163.532C108.282 163.055 107.718 162.766 107.099 162.716L102.953 162.379C102.605 162.351 102.29 162.189 102.066 161.923C101.841 161.657 101.733 161.318 101.761 160.97C102.133 156.307 98.6663 152.207 94.0311 151.83L90.4143 151.537C85.7655 151.166 81.7047 154.65 81.3295 159.314V159.314C81.3015 159.662 81.1415 159.979 80.8767 160.205C80.6127 160.432 80.2735 160.548 79.9287 160.513L75.7823 160.176C74.5303 160.073 73.3791 161.035 73.2751 162.321L72.6287 170.399C72.5255 171.686 73.4831 172.817 74.7607 172.92L106.077 175.459C106.141 175.464 106.205 175.467 106.267 175.467ZM89.7319 152.541C89.9311 152.541 90.1295 152.549 90.3311 152.566L93.9479 152.859C98.0199 153.189 101.066 156.791 100.737 160.887C100.687 161.51 100.881 162.116 101.285 162.592C101.686 163.068 102.25 163.357 102.869 163.409L107.016 163.744C107.363 163.773 107.678 163.934 107.902 164.201C108.128 164.466 108.236 164.804 108.208 165.153L107.561 173.231C107.504 173.951 106.858 174.507 106.161 174.431L74.8439 171.892C74.1287 171.834 73.5943 171.202 73.6519 170.482L74.2983 162.405C74.3559 161.686 74.9967 161.144 75.6999 161.206L79.8463 161.542C81.1063 161.627 82.2495 160.683 82.3519 159.396C82.6647 155.502 85.9159 152.541 89.7319 152.541Z" fill="black"/>
<path d="M91.2935 163.277H91.2943C92.9847 163.414 94.4647 162.147 94.6007 160.446C94.7367 158.745 93.4775 157.256 91.7871 157.119H91.7863C90.0959 156.983 88.6159 158.25 88.4799 159.95C88.3439 161.65 89.6031 163.139 91.2935 163.277Z" fill="black"/>
<path d="M72.2777 195.374L66.6065 191.517C66.2937 191.304 66.2113 190.877 66.4233 190.562C66.6353 190.247 67.0617 190.166 67.3721 190.378L72.0281 193.544L78.7697 185.573C79.0137 185.283 79.4449 185.251 79.7337 185.495C80.0209 185.742 80.0553 186.175 79.8113 186.465L72.2777 195.374Z" fill="white"/>
<path d="M85.4249 190.14C85.0721 190.14 84.7737 189.867 84.7457 189.508C84.7153 189.129 84.9953 188.798 85.3721 188.767L106.72 187.037C107.09 187.008 107.427 187.289 107.455 187.668C107.486 188.047 107.206 188.378 106.829 188.409L85.4809 190.139C85.4625 190.139 85.4433 190.14 85.4249 190.14Z" fill="white"/>
<path d="M73.6855 212.946L68.0143 209.089C67.7023 208.876 67.6191 208.449 67.8311 208.134C68.0431 207.819 68.4695 207.739 68.7799 207.95L73.4359 211.117L80.1775 203.146C80.4231 202.856 80.8527 202.823 81.1415 203.068C81.4287 203.314 81.4631 203.748 81.2191 204.038L73.6855 212.946Z" fill="white"/>
<path d="M86.8327 207.712C86.4807 207.712 86.1815 207.439 86.1535 207.08C86.1231 206.701 86.4031 206.37 86.7799 206.339L108.127 204.609C108.508 204.583 108.833 204.861 108.863 205.24C108.893 205.618 108.613 205.95 108.237 205.98L86.8887 207.71C86.8703 207.712 86.8511 207.712 86.8327 207.712Z" fill="white"/>
<path d="M75.0922 230.518L69.421 226.661C69.1082 226.448 69.0258 226.021 69.2378 225.706C69.4498 225.392 69.8762 225.311 70.1866 225.522L74.8426 228.689L81.5842 220.718C81.8298 220.428 82.2586 220.395 82.5482 220.64C82.8354 220.886 82.8698 221.32 82.6258 221.61L75.0922 230.518Z" fill="white"/>
<path d="M88.2394 225.285C87.8866 225.285 87.5882 225.012 87.5602 224.653C87.5298 224.274 87.8098 223.943 88.1866 223.912L109.535 222.182C109.914 222.16 110.241 222.434 110.27 222.813C110.3 223.191 110.02 223.523 109.643 223.553L88.2954 225.284C88.2762 225.284 88.2578 225.285 88.2394 225.285Z" fill="white"/>
<path d="M147.233 242.695L152.168 239.583C153.254 238.898 153.583 237.456 152.901 236.363L133.259 204.076L124.348 209.675L144.033 241.956C144.715 243.05 146.148 243.38 147.233 242.695Z" fill="#F08DA6"/>
<path d="M142.488 239.931C142.571 239.931 142.653 239.909 142.729 239.861L151.597 234.268C151.809 234.134 151.873 233.853 151.74 233.638C151.608 233.425 151.33 233.361 151.113 233.494L142.246 239.087C142.034 239.221 141.97 239.502 142.102 239.717C142.189 239.856 142.337 239.931 142.488 239.931Z" fill="white"/>
<path d="M146.837 237.061C146.919 237.061 147.001 237.039 147.073 236.994C147.287 236.862 147.355 236.582 147.225 236.367L129.192 206.639C129.061 206.422 128.781 206.355 128.569 206.487C128.355 206.618 128.287 206.899 128.418 207.114L146.451 236.842C146.536 236.983 146.685 237.061 146.837 237.061Z" fill="white"/>
<path d="M123.849 209.717C123.857 209.717 123.865 209.717 123.873 209.716C124.124 209.703 124.316 209.487 124.302 209.236L123.764 199.214C123.754 199.066 123.851 198.989 123.892 198.963C123.93 198.937 124.043 198.884 124.173 198.956L132.864 203.807C133.081 203.928 133.359 203.85 133.481 203.629C133.602 203.409 133.523 203.131 133.305 203.008L124.614 198.157C124.237 197.947 123.774 197.959 123.409 198.191C123.039 198.424 122.832 198.826 122.857 199.265L123.394 209.286C123.409 209.529 123.609 209.717 123.849 209.717Z" fill="white"/>
<path d="M161.121 55.5845V58.7034C161.121 61.1896 159.118 63.205 156.648 63.205H149.185C146.714 63.205 144.711 61.1896 144.711 58.7034V55.5845" fill="white"/>
<path d="M149.185 63.7435H156.647C159.41 63.7435 161.658 61.4826 161.658 58.7026V55.5837C161.658 55.2859 161.418 55.0444 161.122 55.0444C160.826 55.0444 160.586 55.2859 160.586 55.5837V58.7026C160.586 60.8878 158.82 62.665 156.648 62.665H149.186C147.014 62.665 145.247 60.8878 145.247 58.7026V55.5837C145.247 55.2859 145.008 55.0444 144.712 55.0444C144.416 55.0444 144.177 55.2859 144.177 55.5837V58.7026C144.175 61.4826 146.422 63.7435 149.185 63.7435Z" fill="black"/>
<path d="M156.851 63.1818C156.667 64.8825 155.257 66.3064 153.53 66.3796C151.871 66.4504 150.278 65.1208 150.012 63.4788C149.966 63.1915 150.086 62.8985 150.386 62.8156C150.642 62.7448 150.998 62.9034 151.046 63.1923C151.234 64.3521 152.254 65.3164 153.45 65.3035C154.578 65.2914 155.658 64.3151 155.78 63.1818C155.811 62.8929 156.004 62.6426 156.316 62.6426C156.581 62.6426 156.883 62.8905 156.851 63.1818Z" fill="black"/>
<path d="M162.385 52.1084V47.0336C162.385 45.5913 163.072 44.2335 164.24 43.398C169.529 39.6151 172.868 33.2534 172.446 26.1359C171.864 16.3196 163.95 8.32321 154.195 7.69944C142.81 6.97103 133.35 16.046 133.35 27.344C133.35 33.9568 136.591 39.8075 141.562 43.3771C142.74 44.223 143.449 45.58 143.449 47.036V52.1092" fill="#FBBF46"/>
<path d="M153.661 33.5432C154.431 33.5432 155.202 33.288 155.845 32.7697L160.146 29.3088C161.225 28.4411 161.4 26.8579 160.537 25.7737C159.673 24.6896 158.105 24.5133 157.023 25.3802L153.773 27.9952L148.503 22.6935C147.526 21.7115 145.946 21.7115 144.968 22.6935C143.992 23.6754 143.992 25.2683 144.968 26.2502L151.193 32.513C151.871 33.1947 152.765 33.5432 153.661 33.5432ZM154.729 28.9546C154.729 28.9554 154.73 28.9562 154.73 28.9562L154.729 28.9546Z" fill="white"/>
<path d="M153.017 39.9484C159.579 39.9484 166.605 35.1135 166.605 27.9179C166.605 20.7151 157.688 13.6716 151.032 13.6716C143.917 13.6716 138.958 21.1795 138.958 27.9179C138.958 35.0072 146.367 39.9484 153.017 39.9484ZM151.032 14.7502C157.097 14.7502 165.534 21.3855 165.534 27.9179C165.534 34.4688 159.061 38.8698 153.017 38.8698C146.873 38.8698 140.029 34.3722 140.029 27.9179C140.029 21.689 144.548 14.7502 151.032 14.7502Z" fill="black"/>
<path d="M142.849 58.4588H162.982C164.046 58.4588 164.907 57.5911 164.907 56.5215V54.0465C164.907 52.9768 164.045 52.1091 162.982 52.1091H142.849C141.786 52.1091 140.924 52.9768 140.924 54.0465V56.5215C140.924 57.5911 141.786 58.4588 142.849 58.4588Z" fill="black"/>
<path d="M156.699 53.1829C156.093 51.9908 155.781 50.563 156.066 49.2325C156.269 48.2892 157.365 47.3684 158.169 48.3456C158.973 49.3235 157.602 50.1887 156.707 49.6849C155.583 49.0522 155.273 47.2912 155.346 46.1201C155.407 45.1438 156.052 43.6395 157.305 44.1811C158.252 44.59 158.108 46.1153 157.001 46.1394C154.745 46.1893 154.318 41.4486 156.568 41.2031C157.753 41.0735 158.25 42.8636 157.026 43.109C155.636 43.3875 155.334 40.8594 155.408 39.9741C155.465 39.2875 156.537 39.2819 156.479 39.9741C156.422 40.651 156.59 41.1411 156.776 41.7722C156.918 41.9001 156.911 42.0152 156.755 42.1199C156.668 42.2502 156.564 42.3661 156.442 42.466C156.297 42.6591 156.227 42.9489 156.19 43.1847C156.121 43.6306 156.181 44.12 156.402 44.5176C156.571 44.8218 156.785 44.858 156.741 45.2082C156.6 45.3184 156.514 45.4625 156.485 45.6396C156.454 45.7506 156.436 45.8641 156.43 45.9792C156.363 46.5861 156.437 47.2139 156.632 47.7918C156.705 48.0075 156.789 48.2385 156.919 48.4269C157.002 48.5629 157.112 48.6723 157.247 48.756C157.273 48.9653 157.237 49.1609 157.141 49.342C156.926 50.4785 157.098 51.6085 157.622 52.6404C157.937 53.2553 157.013 53.8018 156.699 53.1829Z" fill="black"/>
<path d="M150.335 52.9188C150.512 52.2347 150.553 51.5425 150.399 50.8487C150.335 50.5606 150.21 50.3304 150.104 50.0664C149.928 49.6293 150.027 49.4957 150.184 49.0973C150.398 48.5532 150.602 47.9455 150.576 47.3523C150.565 47.1052 150.526 46.8614 150.412 46.6384C150.21 46.4058 150.137 46.1265 150.193 45.8005C150.286 45.7007 150.366 45.5913 150.432 45.4721C150.863 44.7341 150.891 43.3127 150.114 42.7565C150.036 42.6849 149.944 42.6446 149.839 42.635C149.901 42.4764 149.963 42.3187 150.025 42.1601C150.127 41.8864 150.208 41.6232 150.262 41.3327C150.388 40.6534 150.381 39.9692 150.298 39.2851C150.216 38.5977 151.288 38.6042 151.37 39.2851C151.5 40.3773 151.566 42.251 150.659 43.0688C149.955 43.7038 148.557 43.0857 149.001 42.0772C149.458 41.0405 150.743 41.748 151.194 42.3782C151.842 43.2845 151.97 44.528 151.57 45.5631C151.293 46.2827 150.279 47.589 149.432 46.764C148.55 45.9044 149.928 44.8419 150.807 45.4641C151.828 46.1869 151.741 47.7073 151.431 48.7649C151.19 49.5891 150.483 51.3856 149.297 50.5928C148.197 49.8587 149.517 48.3946 150.541 49.0088C151.797 49.7621 151.678 52.0077 151.369 53.2054C151.195 53.8766 150.162 53.5917 150.335 52.9188Z" fill="black"/>
<path d="M165.855 37.5457C166.892 36.3239 167.588 34.8445 167.909 33.2734C167.967 32.9885 168.302 32.8235 168.568 32.8967C168.862 32.978 169.001 33.2734 168.942 33.56C168.583 35.3162 167.769 36.9461 166.614 38.3079C166.426 38.5292 166.05 38.5027 165.856 38.3079C165.638 38.0882 165.667 37.7678 165.855 37.5457Z" fill="black"/>
<path d="M168.862 30.6133C168.862 30.4886 168.862 30.363 168.862 30.2382C168.859 30.1642 168.875 30.095 168.909 30.0306C168.93 29.9638 168.967 29.9058 169.019 29.8575C169.068 29.8052 169.126 29.7682 169.191 29.7457C169.255 29.7119 169.324 29.6966 169.398 29.699C169.445 29.7054 169.493 29.7119 169.54 29.7183C169.63 29.744 169.71 29.7899 169.776 29.8567C169.804 29.893 169.832 29.9292 169.86 29.9662C169.909 30.0499 169.933 30.1409 169.933 30.2382C169.933 30.363 169.933 30.4886 169.933 30.6133C169.935 30.6874 169.92 30.7566 169.886 30.821C169.865 30.8878 169.828 30.9457 169.775 30.994C169.726 31.0463 169.67 31.0834 169.603 31.1059C169.539 31.1397 169.47 31.155 169.397 31.1526C169.35 31.1461 169.302 31.1397 169.254 31.1333C169.164 31.1075 169.085 31.0616 169.018 30.9948C168.99 30.9586 168.962 30.9224 168.934 30.8862C168.887 30.8008 168.863 30.7107 168.862 30.6133Z" fill="black"/>
<path d="M137.538 37.0218C135.297 32.8332 134.47 28.0491 135.133 23.343C135.229 22.6588 136.262 22.9502 136.166 23.6295C135.546 28.0314 136.37 32.5668 138.463 36.4777C138.79 37.0886 137.866 37.6335 137.538 37.0218Z" fill="black"/>
<path d="M136.062 20.526C136.123 20.3384 136.183 20.1501 136.244 19.9618C136.261 19.8917 136.293 19.8306 136.34 19.7782C136.378 19.7195 136.428 19.6736 136.49 19.6398C136.552 19.6004 136.618 19.5786 136.69 19.5762C136.761 19.5601 136.832 19.5633 136.903 19.5859C136.946 19.6036 136.989 19.6221 137.031 19.6398C137.112 19.6881 137.176 19.7525 137.223 19.833C137.289 19.9577 137.322 20.1099 137.278 20.2483C137.217 20.4366 137.157 20.6242 137.096 20.8125C137.079 20.8825 137.047 20.9437 137 20.996C136.962 21.0548 136.912 21.1007 136.85 21.1345C136.788 21.1739 136.722 21.1948 136.65 21.198C136.579 21.2141 136.508 21.2109 136.437 21.1884C136.394 21.1707 136.351 21.1522 136.309 21.1337C136.228 21.0862 136.164 21.021 136.117 20.9405C136.051 20.8165 136.018 20.6652 136.062 20.526Z" fill="black"/>
<path d="M136.703 11.5766C135.973 10.5689 135.229 9.63281 134.389 8.66455C134.205 8.45206 134.166 8.10838 134.389 7.90233C134.591 7.7156 134.95 7.67536 135.147 7.90233C136.02 8.90762 136.847 9.95395 137.629 11.0325C137.794 11.2611 137.675 11.6434 137.437 11.7698C137.157 11.9178 136.88 11.8213 136.703 11.5766Z" fill="black"/>
<path d="M132.62 19.4386C131.689 18.8752 130.758 18.3118 129.827 17.7484C129.587 17.6027 129.477 17.2582 129.635 17.0111C129.791 16.768 130.111 16.6626 130.368 16.8179C131.299 17.3813 132.23 17.9448 133.161 18.5082C133.401 18.6538 133.511 18.9991 133.353 19.2454C133.198 19.4877 132.877 19.5939 132.62 19.4386Z" fill="black"/>
<path d="M131.76 29.8592C130.705 29.7827 129.65 29.7055 128.596 29.629C128.317 29.6089 128.046 29.3956 128.06 29.0897C128.072 28.8153 128.297 28.5287 128.596 28.5505C129.651 28.6269 130.705 28.7042 131.76 28.7807C132.039 28.8008 132.309 29.0141 132.296 29.3199C132.284 29.5944 132.06 29.8809 131.76 29.8592Z" fill="black"/>
<path d="M135.868 40.9302C135.312 41.62 134.755 42.309 134.199 42.9987C134.117 43.0994 133.943 43.1565 133.82 43.1565C133.689 43.1565 133.532 43.0977 133.441 42.9987C133.348 42.8957 133.278 42.7613 133.285 42.618C133.291 42.4667 133.347 42.354 133.441 42.2365C133.997 41.5468 134.554 40.8578 135.11 40.168C135.192 40.0674 135.366 40.0103 135.489 40.0103C135.62 40.0103 135.777 40.069 135.867 40.168C135.961 40.271 136.03 40.4054 136.024 40.5487C136.018 40.7 135.962 40.8135 135.868 40.9302Z" fill="black"/>
<path d="M148.412 6.61367C148.194 4.86789 147.977 3.12212 147.759 1.37716C147.723 1.08821 148.031 0.837891 148.295 0.837891C148.614 0.837891 148.794 1.0866 148.831 1.37716C149.049 3.12293 149.266 4.8687 149.484 6.61367C149.52 6.90262 149.212 7.15293 148.948 7.15293C148.628 7.15213 148.448 6.90342 148.412 6.61367Z" fill="black"/>
<path d="M158.825 7.03869C159.073 5.62211 159.532 4.25463 160.169 2.96763C160.298 2.70685 160.664 2.63442 160.902 2.77446C161.166 2.9298 161.223 3.25014 161.094 3.51173C160.498 4.71501 160.09 6.00201 159.858 7.32522C159.807 7.61176 159.458 7.77353 159.198 7.7019C158.898 7.619 158.774 7.32683 158.825 7.03869Z" fill="black"/>
<path d="M169.552 11.0782C170.246 10.5285 170.938 9.97872 171.631 9.42899C171.747 9.33643 171.856 9.27124 172.01 9.27124C172.141 9.27124 172.298 9.33 172.388 9.42899C172.566 9.62297 172.623 10.0045 172.388 10.1912C171.695 10.7409 171.002 11.2907 170.309 11.8404C170.193 11.933 170.084 11.9982 169.93 11.9982C169.799 11.9982 169.642 11.9394 169.552 11.8404C169.375 11.6456 169.317 11.2641 169.552 11.0782Z" fill="black"/>
<path d="M175.475 21.3614C177.142 20.4672 178.809 19.573 180.475 18.6796C181.083 18.3536 181.626 19.2833 181.016 19.61C179.35 20.5042 177.682 21.3985 176.016 22.2919C175.408 22.6186 174.866 21.689 175.475 21.3614Z" fill="black"/>
<path d="M174.388 29.8978C174.74 30.021 175.101 30.1167 175.468 30.1827C175.558 30.1988 175.648 30.2165 175.738 30.2262C175.597 30.2109 175.741 30.2262 175.763 30.2286C175.812 30.2342 175.861 30.2391 175.91 30.2439C176.099 30.2616 176.289 30.2713 176.478 30.2737C176.758 30.2777 177.027 30.5192 177.014 30.813C177.002 31.1019 176.779 31.3562 176.478 31.3522C175.673 31.341 174.865 31.2033 174.103 30.9377C173.839 30.846 173.636 30.5643 173.729 30.2745C173.813 30.0113 174.105 29.7988 174.388 29.8978Z" fill="black"/>
<path d="M171.89 38.9793C171.926 39.0276 171.967 39.0751 172.001 39.1258C171.983 39.0992 171.941 39.0501 171.984 39.1041C172.003 39.1282 172.021 39.1523 172.041 39.1765C172.109 39.2626 172.178 39.3487 172.249 39.4332C172.398 39.6119 172.55 39.7866 172.708 39.9564C173.02 40.292 173.349 40.6108 173.696 40.911C173.909 41.0961 173.898 41.4865 173.696 41.6732C173.469 41.8825 173.166 41.8704 172.938 41.6732C172.201 41.0325 171.548 40.3089 170.966 39.5234C170.889 39.4188 170.879 39.228 170.912 39.1081C170.946 38.9833 171.042 38.8473 171.158 38.7861C171.282 38.7201 171.434 38.6871 171.571 38.7314C171.711 38.7773 171.802 38.8602 171.89 38.9793Z" fill="black"/>
<path d="M168.61 44.1546C168.734 44.5917 168.859 45.0295 168.983 45.4666C169.06 45.7378 168.89 46.0654 168.609 46.1298C168.323 46.195 168.032 46.0437 167.95 45.7531C167.826 45.316 167.701 44.8782 167.577 44.4412C167.5 44.1699 167.67 43.8423 167.951 43.7779C168.237 43.7127 168.528 43.8641 168.61 44.1546Z" fill="black"/>
<path d="M242.141 80.5976C243.16 80.6459 243.205 79.103 242.729 78.4985C241.893 77.4369 240.039 77.7451 238.898 77.9222C238.439 77.9938 237.981 77.4433 238.4 77.0602C239.643 75.9197 240.15 74.058 239.478 72.47C238.804 70.8771 237.117 69.9604 235.436 70.0699C235.075 70.0932 234.889 69.723 234.941 69.4171C235.175 68.0577 234.421 66.5831 233.136 66.0559C231.847 65.5271 230.292 66.0519 229.509 67.186C229.134 67.7277 228.245 67.2125 228.623 66.6652C229.697 65.1102 231.751 64.3681 233.533 65.1062C235.319 65.8459 236.25 67.8235 235.929 69.6908C235.765 69.4734 235.6 69.2553 235.435 69.038C237.52 68.902 239.596 70.1173 240.42 72.07C241.245 74.0266 240.669 76.3712 239.124 77.7894C238.957 77.5021 238.791 77.2147 238.625 76.9274C240.338 76.661 243.01 76.3962 243.844 78.3939C244.387 79.6945 243.793 81.7059 242.141 81.6278C241.485 81.5989 241.481 80.567 242.141 80.5976Z" fill="white"/>
<path d="M263.741 75.3321C263.741 76.3897 264.593 77.2477 265.645 77.2477C266.697 77.2477 267.549 76.3897 267.549 75.3321C267.549 74.2745 266.696 73.4165 265.645 73.4165C264.594 73.4165 263.741 74.2745 263.741 75.3321Z" fill="white"/>
<path d="M114.718 60.8992C114.718 61.9568 115.571 62.8148 116.622 62.8148C117.674 62.8148 118.526 61.9568 118.526 60.8992C118.526 59.8416 117.674 58.9836 116.622 58.9836C115.571 58.9836 114.718 59.8408 114.718 60.8992Z" fill="white"/>
<path d="M105.855 61.0185C102.547 61.0185 99.8655 58.3205 99.8655 54.9924C99.8655 51.6643 102.547 48.9663 105.855 48.9663C109.163 48.9663 111.845 51.6643 111.845 54.9924C111.845 58.3205 109.163 61.0185 105.855 61.0185Z" fill="#FBBF46"/>
<path d="M106.871 57.6605L115.512 48.9662L106.87 40.272L98.2303 48.9662L106.871 57.6605ZM113.579 48.9662L106.871 55.7151L100.164 48.9662L106.871 42.2174L113.579 48.9662Z" fill="white"/>
<path d="M124.153 47.589C121.959 47.589 120.181 45.7995 120.181 43.592C120.181 41.3845 121.959 39.595 124.153 39.595C126.348 39.595 128.126 41.3845 128.126 43.592C128.126 45.7995 126.348 47.589 124.153 47.589Z" fill="white"/>
<path d="M256.549 71.6942C254.355 71.6942 252.577 69.9047 252.577 67.6972C252.577 65.4897 254.355 63.7002 256.549 63.7002C258.744 63.7002 260.522 65.4897 260.522 67.6972C260.522 69.9047 258.744 71.6942 256.549 71.6942Z" fill="white"/>
<path d="M290.568 117.88L293.617 106.659L282.465 103.591L279.416 114.811L290.568 117.88ZM291.938 107.624L289.609 116.19L281.095 113.847L283.424 105.281L291.938 107.624Z" fill="white"/>
<path d="M48.0711 161.236C44.2343 159.679 41.1087 155.982 41.1167 151.669C41.1239 147.711 44.2375 144.466 48.0767 143.914C51.0631 143.485 56.2615 145.92 54.4623 149.723C52.6519 153.55 46.5863 152.071 43.6415 150.921C39.3175 149.233 35.5679 146.12 33.1615 142.122C30.9559 138.459 29.3903 133.056 32.1311 129.238C34.0511 126.563 38.2791 126.172 40.6191 128.574C43.4823 131.514 40.2183 135.483 36.8783 135.789C31.5527 136.277 26.6943 130.477 24.2815 126.356C21.4231 121.473 20.2191 115.711 20.9535 110.092C21.0551 109.314 22.2871 109.304 22.1839 110.092C21.2359 117.346 23.6007 124.848 28.6575 130.14C31.1007 132.697 35.5519 136.344 39.0983 133.644C42.7263 130.881 38.4911 127.519 35.3391 128.372C31.4351 129.429 31.5743 134.75 32.5255 137.807C33.5767 141.188 35.8023 144.209 38.4887 146.461C41.1367 148.681 44.3831 150.235 47.7927 150.785C49.3279 151.033 51.1863 151.047 52.5255 150.115C54.8055 148.528 52.6663 145.934 50.7343 145.31C47.4103 144.237 43.4215 146.665 42.5535 149.989C41.4447 154.236 44.6167 158.508 48.3983 160.042C49.1231 160.336 48.8063 161.533 48.0711 161.236Z" fill="white"/>
<path d="M14.3567 120.074C15.1327 118.152 15.9807 116.26 16.9175 114.411C17.3919 113.475 17.8871 112.55 18.4023 111.636C18.8919 110.768 19.3575 109.775 19.9895 109.003C21.4559 107.213 23.1599 109.968 24.0119 110.999C25.4551 112.749 26.8975 114.498 28.3407 116.248C28.8431 116.857 27.9767 117.737 27.4711 117.123C26.2735 115.671 25.0751 114.218 23.8775 112.766C23.2783 112.04 22.6799 111.314 22.0807 110.587C21.9031 110.372 21.3887 109.547 21.0167 109.692C20.7831 109.782 20.4919 110.501 20.3783 110.691C18.5183 113.795 16.8999 117.044 15.5439 120.402C15.2495 121.131 14.0583 120.813 14.3567 120.074Z" fill="white"/>
<path d="M259.546 251.446C262.887 250.091 265.583 246.799 265.597 243.073C265.611 239.63 262.74 236.808 259.388 236.498C257.941 236.365 256.426 236.767 255.371 237.812C253.183 239.981 255.241 241.914 257.531 242.253C260.771 242.732 264.461 241.201 267.161 239.525C270.177 237.652 272.689 234.977 274.33 231.814C275.951 228.691 277.112 223.991 274.55 221.019C272.833 219.027 267.956 219.046 267.506 222.251C267.195 224.467 269.599 225.963 271.533 225.979C273.739 225.997 275.765 224.674 277.402 223.309C283.702 218.054 286.822 209.613 285.76 201.496C285.657 200.709 286.888 200.716 286.99 201.496C287.636 206.434 286.788 211.45 284.635 215.931C282.564 220.241 278.946 224.822 274.4 226.63C272.405 227.424 270.167 227.454 268.342 226.218C266.926 225.26 265.954 223.577 266.323 221.83C266.997 218.639 271.341 217.639 273.929 218.965C277.902 221.002 277.686 226.661 276.365 230.241C274.722 234.692 271.416 238.462 267.356 240.851C264.039 242.802 258.845 244.804 255.137 242.789C251.309 240.708 253.916 236.216 257.262 235.418C261.327 234.448 265.882 237.412 266.678 241.524C267.614 246.357 264.164 250.9 259.873 252.64C259.139 252.937 258.82 251.74 259.546 251.446Z" fill="white"/>
<path d="M292.401 211.807C291.045 208.449 289.426 205.2 287.566 202.097C287.434 201.877 287.175 201.205 286.928 201.097C286.587 200.95 286.105 201.7 285.945 201.894C285.346 202.62 284.748 203.346 284.149 204.073C282.924 205.558 281.698 207.043 280.473 208.528C279.967 209.142 279.101 208.262 279.604 207.653C281.02 205.937 282.435 204.221 283.85 202.505C284.708 201.465 286.463 198.588 287.954 200.41C288.562 201.152 289.009 202.104 289.481 202.937C289.999 203.85 290.496 204.774 290.971 205.71C291.929 207.593 292.795 209.52 293.586 211.48C293.885 212.215 292.696 212.537 292.401 211.807Z" fill="white"/>
<path d="M64.6671 104.271C42.5655 84.2638 32.0879 51.7638 38.7263 22.6065C39.0711 21.0933 39.6343 19.3781 41.0743 18.8203C41.9031 18.4992 42.8327 18.6545 43.6975 18.8566C49.1151 20.1226 54.0199 23.0306 58.4991 26.3475C78.4799 41.1451 91.5511 65.2302 92.8063 90.1603C92.8063 90.1603 81.2831 100.718 66.1047 104.209L64.6671 104.271Z" fill="#46AD54"/>
<path d="M68.7271 35.9706C57.5335 40.3266 47.1911 46.6778 38.2159 54.6944C37.7391 55.1201 37.0343 54.4159 37.5135 53.9877C46.6231 45.8504 57.1015 39.4283 68.4623 35.0063C69.0599 34.7745 69.3183 35.7404 68.7271 35.9706Z" fill="black"/>
<path d="M61.4663 29.0302C52.4983 32.2207 44.1823 37.4315 37.3711 44.1103C36.9127 44.5594 36.2103 43.8535 36.6687 43.4036C43.6063 36.6 52.0695 31.3152 61.2023 28.0659C61.8063 27.8518 62.0655 28.8169 61.4663 29.0302Z" fill="black"/>
<path d="M63.0173 37.9376C61.3261 35.2509 59.4421 32.7051 57.3645 30.3082C56.9461 29.8253 57.6461 29.1154 58.0669 29.6015C60.1989 32.062 62.1389 34.6755 63.8749 37.4338C64.2181 37.9787 63.3589 38.4801 63.0173 37.9376Z" fill="black"/>
<path d="M57.1303 40.7289C55.3407 38.1662 53.5519 35.6035 51.7623 33.0416C51.3943 32.5144 52.2551 32.0146 52.6199 32.5369C54.4095 35.0996 56.1983 37.6624 57.9879 40.2243C58.3559 40.7523 57.4951 41.2521 57.1303 40.7289Z" fill="black"/>
<path d="M50.2575 44.182C48.9231 41.5283 47.4055 38.9881 45.7015 36.5574C45.3327 36.031 46.1935 35.5312 46.5591 36.0528C48.2623 38.4835 49.7807 41.0237 51.1151 43.6773C51.4031 44.2504 50.5463 44.7567 50.2575 44.182Z" fill="black"/>
<path d="M43.5471 49.2486C41.7799 46.7583 40.4767 44.0395 39.6279 41.1017C39.4487 40.4827 40.4071 40.2187 40.5855 40.8361C41.4119 43.6966 42.6839 46.3205 44.4047 48.744C44.7767 49.2688 43.9159 49.7678 43.5471 49.2486Z" fill="black"/>
<path d="M54.7073 49.041C60.4545 46.273 67.7137 47.0248 72.5433 51.3212C77.3417 55.5894 78.6553 63.1134 75.8297 68.8562C74.2297 72.1079 71.2105 74.438 68.0801 76.0984C65.1697 77.643 62.0169 78.303 58.7489 77.8007C52.6817 76.8679 47.1578 72.2382 46.001 66.0399C44.7346 59.2605 48.3641 51.8162 54.7073 49.041C55.2881 48.7874 55.7937 49.6479 55.2089 49.9038C49.9985 52.184 46.7097 57.7199 46.7401 63.3895C46.7721 69.319 50.8682 74.3003 56.3498 76.1805C62.4698 78.2788 69.2634 75.6718 73.377 70.804C77.377 66.0713 77.2033 58.5087 73.4241 53.6996C69.1961 48.319 61.2138 47.0119 55.2082 49.9038C54.6346 50.1799 54.1305 49.3187 54.7073 49.041Z" fill="black"/>
<path d="M49.8015 62.6843C49.8015 68.7909 55.2567 74.2375 61.3263 74.2375C67.3959 74.2375 73.2623 68.9116 73.2623 62.8051C73.2623 56.6985 67.3959 51.1304 61.3263 51.1304C55.2567 51.1304 49.8015 56.5786 49.8015 62.6843Z" fill="black"/>
<path d="M68.9871 67.2633C69.6095 65.6825 69.7879 63.9553 69.4527 62.2844C69.3999 62.0204 69.5279 61.7451 69.7999 61.6694C70.0447 61.6018 70.3575 61.7523 70.4111 62.0188C70.7799 63.8595 70.6335 65.7799 69.9447 67.5289C69.8463 67.78 69.6127 67.9547 69.3335 67.8782C69.0967 67.813 68.8871 67.516 68.9871 67.2633Z" fill="white"/>
<path d="M67.9447 58.3412C67.3055 58.3412 67.3047 57.3416 67.9447 57.3416C68.5839 57.3424 68.5855 58.3412 67.9447 58.3412Z" fill="white"/>
<path d="M55.3495 70.9157C52.7311 67.8628 51.7247 63.6308 52.7151 59.7183C52.8727 59.0953 53.8311 59.3593 53.6727 59.9839C52.7735 63.5342 53.6695 67.4314 56.0511 70.209C56.4671 70.6936 55.7679 71.4035 55.3495 70.9157Z" fill="white"/>
<path d="M70.1743 80.7408C71.7351 80.468 73.7943 82.3771 74.7727 83.1997C76.6615 84.7877 78.2903 86.6784 79.6575 88.734C81.8007 91.9551 83.3119 95.5666 84.4671 99.2642C85.2055 101.627 85.8087 104.096 85.5623 106.561C85.4903 107.279 85.3087 108.054 84.7407 108.494C83.8479 109.186 82.5511 108.689 81.6135 108.062C79.2719 106.498 77.4527 104.264 75.8431 101.946C73.9783 99.261 72.3431 96.4149 70.9623 93.449C69.5167 90.3454 68.3311 87.0003 68.4967 83.5764C68.5343 82.7932 68.6623 81.969 69.1559 81.3622C69.4519 80.9984 69.7991 80.806 70.1743 80.7408Z" fill="white"/>
<path d="M70.1743 80.2411C71.9303 80.0857 73.4519 81.4307 74.7095 82.4931C76.5407 84.0401 78.1687 85.7609 79.5615 87.7192C82.6335 92.0381 84.9551 97.504 85.8631 102.742C86.1615 104.462 86.6783 107.551 85.0919 108.848C83.5095 110.141 81.3863 108.602 80.1335 107.58C76.0367 104.236 73.1343 99.1065 70.8655 94.4012C69.5943 91.7653 68.4663 89.0013 68.1055 86.0732C67.8599 84.0811 67.6487 80.9775 70.0415 80.2596C70.6551 80.0753 70.9175 81.0395 70.3055 81.223C67.6023 82.0335 69.3767 87.9139 69.9623 89.6726C70.8495 92.3391 72.1367 94.8898 73.5215 97.3261C74.8879 99.7303 76.4023 102.108 78.1855 104.224C79.3719 105.632 84.5183 110.933 85.0655 106.561C85.4263 103.681 84.4527 100.705 83.5375 98.0151C82.6671 95.4588 81.6047 92.9637 80.2487 90.628C78.9375 88.3695 77.3519 86.2728 75.4559 84.4771C74.1351 83.2264 72.1367 81.0661 70.1735 81.2399C69.5375 81.2963 69.5415 80.2966 70.1743 80.2411Z" fill="black"/>
<path d="M83.4319 96.1985C86.5807 94.386 89.5095 92.2281 92.2215 89.8062C92.6983 89.3805 93.4031 90.0847 92.9239 90.5129C90.1503 92.9895 87.1543 95.2069 83.9335 97.0614C83.3775 97.3817 82.8767 96.5181 83.4319 96.1985Z" fill="black"/>
<path d="M74.6055 101.41C71.5231 103.016 68.2191 104.149 64.7991 104.753C64.1743 104.863 63.9055 103.9 64.5351 103.789C67.8711 103.2 71.0959 102.114 74.1039 100.547C74.6711 100.252 75.1735 101.115 74.6055 101.41Z" fill="black"/>
<path d="M92.1055 82.7177C91.4751 83.5282 90.5143 84.1214 89.6919 84.7154C88.7567 85.3915 87.7999 86.0378 86.8247 86.6535C84.8727 87.8858 82.8447 88.9901 80.7575 89.9712C80.1815 90.2416 79.6767 89.3804 80.2559 89.1084C82.2823 88.1562 84.2519 87.0881 86.1511 85.8993C87.0711 85.323 87.9751 84.7194 88.8599 84.09C89.7279 83.4726 90.7415 82.8617 91.4039 82.011C91.7967 81.5047 92.4951 82.2162 92.1055 82.7177Z" fill="black"/>
<path d="M71.1095 94.2788C67.4159 96.4085 63.4743 98.1455 59.4151 99.4365C58.8039 99.6305 58.5423 98.6662 59.1511 98.473C63.1319 97.207 66.9855 95.5047 70.6079 93.416C71.1639 93.0957 71.6647 93.9593 71.1095 94.2788Z" fill="black"/>
<path d="M88.4623 66.9461C97.7295 64.4164 105.61 71.1049 109.617 78.9742C111.758 83.1796 112.969 87.9163 112.994 92.6482C113.001 93.8563 112.815 95.7655 111.369 96.1083C109.708 96.5011 108.167 94.0615 107.309 93.0104C105.553 90.8598 103.617 89.2082 100.883 88.4934C98.3055 87.8197 95.5775 88.0684 93.1815 89.2387C92.6087 89.518 92.1047 88.6568 92.6799 88.3759C95.6823 86.9094 99.1679 86.7227 102.305 87.897C103.779 88.4483 105.141 89.2701 106.286 90.3591C106.973 91.0127 107.564 91.7564 108.162 92.4904C108.515 92.9234 108.866 93.3597 109.245 93.771C109.406 93.9464 109.57 94.1203 109.742 94.2853C110.269 94.7899 110.327 94.971 111.085 94.7594C111.889 94.5348 111.937 94.1018 111.994 93.3009C112.033 92.7689 111.999 92.2192 111.976 91.6855C111.926 90.5281 111.806 89.3756 111.621 88.2326C111.274 86.0981 110.689 83.9966 109.894 81.9868C108.342 78.0623 105.94 74.3687 102.781 71.5637C98.8759 68.0955 93.8391 66.5131 88.7271 67.9088C88.1087 68.0778 87.8455 67.1144 88.4623 66.9461Z" fill="white"/>
<path d="M109.478 87.1656C108.905 84.5119 107.883 81.9918 106.443 79.6947C106.102 79.149 106.96 78.6468 107.301 79.1901C108.782 81.5532 109.847 84.169 110.436 86.8999C110.571 87.5269 109.614 87.795 109.478 87.1656Z" fill="black"/>
<path d="M104.809 77.1399C104.55 76.7922 104.292 76.4445 104.033 76.0968C103.961 76.0002 103.952 75.8231 103.982 75.7121C104.014 75.5962 104.103 75.4706 104.21 75.4135C104.325 75.3523 104.465 75.3217 104.593 75.3627C104.632 75.3796 104.672 75.3966 104.711 75.4135C104.785 75.4577 104.845 75.5181 104.889 75.5929C105.149 75.9406 105.407 76.2883 105.666 76.6361C105.738 76.7334 105.747 76.9097 105.717 77.0208C105.685 77.1367 105.596 77.2622 105.489 77.3194C105.373 77.3806 105.233 77.4112 105.106 77.3701C105.067 77.3532 105.027 77.3363 104.988 77.3194C104.913 77.2751 104.853 77.2148 104.809 77.1399Z" fill="black"/>
<path d="M49.9703 86.7203C39.7447 93.8193 43.5711 108.82 50.2735 117.014C51.0807 118.001 51.9511 118.937 52.8791 119.81C53.9127 120.782 55.8351 122.818 56.4263 120.242C56.7287 118.925 55.9279 116.975 55.7583 115.626C55.6231 114.547 55.6199 113.482 55.7767 112.406C56.3751 108.293 59.1151 104.697 62.8759 103.008C63.4543 102.748 63.9607 103.609 63.3775 103.871C58.6935 105.975 56.0503 110.907 56.8071 115.994C57.0383 117.549 58.1263 120.454 57.1047 121.921C56.3103 123.061 54.8007 122.581 53.8447 121.945C50.3943 119.651 47.6119 115.545 45.7927 111.887C43.7431 107.765 42.4871 103.07 42.7143 98.4369C42.9655 93.3219 45.2583 88.78 49.4695 85.8559C49.9967 85.4913 50.4935 86.3565 49.9703 86.7203Z" fill="white"/>
<path d="M50.3431 115.612C48.6519 113.392 47.3671 110.884 46.5327 108.217C46.3407 107.602 47.2991 107.339 47.4903 107.951C48.2999 110.539 49.5607 112.955 51.2007 115.107C51.3655 115.323 51.2319 115.664 51.0223 115.791C50.7687 115.944 50.5055 115.825 50.3431 115.612Z" fill="black"/>
<path d="M45.6511 105.312C45.5551 104.889 45.4583 104.465 45.3623 104.041C45.3327 103.912 45.3447 103.773 45.4127 103.656C45.4727 103.553 45.5911 103.454 45.7095 103.427C45.9623 103.369 46.2583 103.504 46.3207 103.776C46.4167 104.2 46.5127 104.624 46.6095 105.047C46.6391 105.177 46.6271 105.315 46.5599 105.432C46.4999 105.536 46.3815 105.635 46.2631 105.661C46.0095 105.719 45.7135 105.585 45.6511 105.312Z" fill="black"/>
<path d="M89.7175 92.5413C94.2095 94.5623 98.7975 96.9456 101.505 101.262C104.516 106.061 104.093 111.92 103.583 117.322C103.536 117.818 102.946 117.998 102.657 117.574C99.7575 113.318 96.8591 108.957 95.6543 103.87C95.5063 103.244 96.4639 102.978 96.6119 103.604C97.7967 108.607 100.663 112.885 103.515 117.069C103.206 117.154 102.898 117.237 102.59 117.321C103.082 112.098 103.557 106.412 100.648 101.766C98.0439 97.6055 93.5335 95.3455 89.2159 93.4033C88.6335 93.1417 89.1383 92.2805 89.7175 92.5413Z" fill="white"/>
<path d="M99.1175 110.439C97.7687 113.737 98.5591 117.112 99.5919 120.382C100.536 123.371 101.56 126.278 101.969 129.404C102.76 135.432 101.726 141.549 99.1327 147.027C98.9015 147.516 98.2447 147.22 98.2071 146.775C97.9127 143.264 96.8871 139.869 95.1167 136.821C93.3335 133.751 90.8151 131.338 88.1647 129.033C83.6911 125.143 78.8295 120.979 78.1751 114.674C78.1087 114.035 79.1023 114.04 79.1687 114.674C79.9303 122.007 86.7615 126.1 91.5591 130.767C95.9783 135.066 98.6823 140.598 99.2007 146.776C98.8919 146.691 98.5839 146.608 98.2751 146.524C101.104 140.547 101.976 133.722 100.598 127.234C99.4191 121.686 95.8191 115.895 98.1591 110.175C98.3999 109.587 99.3607 109.844 99.1175 110.439Z" fill="white"/>
<path d="M82.8079 122.815C83.2839 126.183 84.3871 129.485 86.5847 132.122C86.8351 132.422 86.7319 132.821 86.3655 132.957C83.5935 133.984 80.1463 131.207 78.0927 129.597C75.7119 127.729 73.6535 125.455 72.0287 122.894C68.3207 117.046 67.1591 109.883 68.5479 103.119C68.6775 102.489 69.6351 102.756 69.5055 103.384C68.2319 109.584 69.2095 116.144 72.4143 121.616C73.8063 123.992 75.5839 126.132 77.6511 127.943C78.6967 128.86 79.8167 129.688 80.9983 130.418C82.4463 131.315 84.3663 132.636 86.1007 131.994C86.0279 132.272 85.9543 132.551 85.8815 132.829C83.5695 130.055 82.3511 126.636 81.8495 123.081C81.7615 122.452 82.7183 122.18 82.8079 122.815Z" fill="white"/>
<path d="M72.4847 101.802C73.3631 105.719 75.6823 109.158 78.3039 112.185C80.9255 115.212 83.8903 117.931 86.4111 121.043C85.9063 119.533 85.7295 117.912 85.8983 116.327C88.7903 121.369 92.3655 126.014 96.4951 130.092C93.1951 122.27 96.7247 112.991 94.1679 104.893C92.8839 100.827 90.0447 97.2804 86.3703 95.1531C85.4415 95.661 84.5951 96.0948 83.6663 96.6027C84.9959 99.7079 85.7583 102.947 85.5983 106.326C85.5599 107.134 85.4167 108.048 84.7495 108.499C83.9015 109.073 82.7631 108.559 81.9119 107.991C79.0031 106.052 76.5143 103.479 74.6663 100.501C73.9567 101.003 73.3471 101.704 72.4847 101.802Z" fill="white"/>
<path d="M37.8495 72.3218C34.7215 66.1967 32.8751 59.5074 32.4119 52.637C32.3687 51.9947 33.3623 51.9979 33.4055 52.637C33.8567 59.3255 35.6631 65.8546 38.7079 71.8172C38.9991 72.3878 38.1423 72.8941 37.8495 72.3218Z" fill="black"/>
<path d="M32.9767 67.6859C32.0479 65.091 31.3303 62.4269 30.8287 59.7161C30.7127 59.0874 31.6695 58.8178 31.7863 59.4504C32.2879 62.1613 33.0055 64.8262 33.9343 67.4203C34.1519 68.0264 33.1927 68.2872 32.9767 67.6859Z" fill="black"/>
<path d="M87.4935 56.5875C85.1871 48.9307 81.2527 41.8535 75.9703 35.8724C75.5471 35.3935 76.2471 34.6836 76.6727 35.1658C82.0711 41.2764 86.0943 48.4969 88.4519 56.3219C88.6375 56.9392 87.6791 57.2024 87.4935 56.5875Z" fill="black"/>
<path d="M87.9279 47.3065C86.8695 44.858 85.4911 42.5529 83.8135 40.4827C83.4127 39.9885 84.1111 39.277 84.5159 39.7761C86.2495 41.9154 87.6919 44.2697 88.7855 46.8018C88.8935 47.0513 88.8567 47.3354 88.6071 47.4851C88.3983 47.6115 88.0351 47.5535 87.9279 47.3065Z" fill="black"/>
<path d="M104.462 127.21C105.16 131.169 105.29 135.198 104.818 139.193C104.743 139.824 103.749 139.831 103.824 139.193C104.285 135.291 104.186 131.344 103.503 127.475C103.393 126.846 104.35 126.576 104.462 127.21Z" fill="black"/>
<path d="M107.855 129.655C107.975 130.465 108.095 131.276 108.215 132.085C108.236 132.223 108.238 132.345 108.165 132.47C108.105 132.574 107.986 132.673 107.868 132.699C107.632 132.753 107.298 132.627 107.257 132.35C107.137 131.54 107.017 130.729 106.897 129.919C106.877 129.781 106.873 129.659 106.947 129.535C107.007 129.431 107.125 129.333 107.244 129.305C107.48 129.252 107.814 129.379 107.855 129.655Z" fill="black"/>
<path d="M79.2127 134.587C75.1743 131.538 71.8159 127.661 69.3959 123.2C69.0895 122.635 69.9471 122.13 70.2535 122.695C72.5879 126.998 75.8143 130.779 79.7135 133.723C80.2191 134.106 79.7247 134.974 79.2127 134.587Z" fill="white"/>
<path d="M72.8271 131.688C71.2623 130.569 70.0071 129.042 69.2575 127.26C69.1527 127.012 69.1831 126.725 69.4359 126.577C69.6439 126.455 70.0103 126.506 70.1151 126.756C70.7967 128.376 71.8999 129.804 73.3287 130.825C73.5471 130.981 73.6511 131.261 73.5071 131.508C73.3799 131.726 73.0463 131.845 72.8271 131.688Z" fill="black"/>
<path d="M105.965 114.172C106.315 111.026 105.884 107.866 104.705 104.931C104.466 104.334 105.426 104.075 105.663 104.665C106.869 107.67 107.316 110.952 106.958 114.172C106.889 114.804 105.894 114.811 105.965 114.172Z" fill="black"/>
<path d="M108.908 112.414C108.908 111.487 108.908 110.561 108.908 109.634C108.908 109.372 109.136 109.122 109.405 109.134C109.673 109.146 109.901 109.353 109.901 109.634C109.901 110.561 109.901 111.487 109.901 112.414C109.901 112.676 109.673 112.926 109.405 112.914C109.135 112.902 108.908 112.695 108.908 112.414Z" fill="black"/>
</g>
<defs>
<clipPath id="clip0_1_232">
<rect width="320" height="256" fill="white" transform="matrix(-1 0 0 1 320 0.748047)"/>
</clipPath>
</defs>
</svg>
