<svg width="127" height="85" viewBox="0 0 127 85" fill="none" xmlns="http://www.w3.org/2000/svg">
<g clip-path="url(#clip0_1_159)">
<path d="M13.9489 77.4624C13.5707 75.4756 12.8963 73.4907 12.885 71.5026C12.8084 68.6334 13.0685 65.765 13.6602 62.9551C17.7364 45.632 26.8908 31.1614 42.1352 21.9316C57.6923 12.5135 74.7268 11.666 91.5056 19.861C99.8413 23.9838 107.278 29.6836 113.395 36.6374C114.52 37.8979 115.677 39.13 117.556 41.177L118.882 31.6829L120.057 31.6062C120.431 32.3535 120.989 33.0644 121.147 33.8527C121.967 37.9757 122.727 42.1105 123.424 46.2571C123.877 48.9208 124.357 51.7892 121.882 53.7047C119.222 55.7637 116.221 54.8501 113.689 53.3745C110.22 51.3038 106.88 49.0292 103.686 46.563C103.022 46.0616 103.093 44.6135 102.823 43.6005C103.845 43.3427 105.045 42.6144 105.851 42.9178C108.353 43.859 110.705 45.1907 113.167 46.3969C113.218 46.0294 113.337 45.7749 113.255 45.6617C96.948 23.0248 74.0434 13.2897 48.3955 23.35C47.1377 23.8435 45.9355 24.4657 44.8086 25.2065C28.6995 35.8347 18.7809 50.5022 15.604 69.4526C15.1804 71.9705 15.4886 74.6073 15.4574 77.1889C14.9556 77.2809 14.4527 77.3721 13.9489 77.4624Z" fill="#BC3432"/>
</g>
<defs>
<clipPath id="clip0_1_159">
<rect width="126" height="84" fill="white" transform="translate(0.650391 0.200684)"/>
</clipPath>
</defs>
</svg>
