<svg width="30" height="31" viewBox="0 0 30 31" fill="none" xmlns="http://www.w3.org/2000/svg">
<g clip-path="url(#clip0_412_174)">
<path d="M6.34998 0.728027H7.70248V2.06428H8.93998V0.728027H10.2925V4.77303H8.93998V3.41928H7.70248V4.77303H6.35123V0.728027H6.34998ZM12.07 2.06928H10.88V0.728027H14.6137V2.06928H13.4225V4.77303H12.07V2.06928V2.06928ZM15.2062 0.728027H16.6162L17.4837 2.14928L18.35 0.728027H19.76V4.77303H18.4137V2.76803L17.4837 4.20678H17.46L16.5287 2.76928V4.77303H15.2062V0.728027V0.728027ZM20.4325 0.728027H21.7862V3.43678H23.6862V4.77428H20.4325V0.728027V0.728027Z" fill="black"/>
<path fill-rule="evenodd" clip-rule="evenodd" d="M6.3075 28.318L3.75 6.62427H26.25L23.6912 28.3155L14.9875 30.728L6.3075 28.318ZM11.4787 16.443L11.2363 13.718H21.4175L21.655 11.058H8.33L9.0475 19.1043H18.2687L17.96 22.5543L14.9925 23.3568H14.99L12.0275 22.5568L11.8375 20.4355H9.165L9.5375 24.613L14.9875 26.1255L20.4463 24.613L21.1112 17.158L21.1762 16.4443H11.4787V16.443Z" fill="black"/>
</g>
<defs>
<clipPath id="clip0_412_174">
<rect width="30" height="30" fill="white" transform="translate(0 0.728027)"/>
</clipPath>
</defs>
</svg>
