<svg width="30" height="31" viewBox="0 0 30 31" fill="none" xmlns="http://www.w3.org/2000/svg">
<path d="M12.1799 22.6448C8.01756 23.7198 14.6988 25.9448 19.9926 23.8948C19.4788 23.7094 18.9831 23.4836 18.5109 23.2198C16.6729 23.6081 14.7744 23.6844 12.9072 23.4448C11.1427 23.2573 12.1799 22.6448 12.1799 22.6448V22.6448ZM19.3595 20.5448C16.9888 21.0233 14.5489 21.1331 12.1394 20.8698C10.3748 20.6948 11.5333 19.9073 11.5333 19.9073C6.95342 21.3073 14.0792 22.9073 20.4775 21.1573C20.0615 21.0305 19.6801 20.8215 19.3595 20.5448V20.5448ZM21.8111 8.38232C21.8111 8.38232 12.557 10.5198 16.9753 15.2448C17.1476 15.4366 17.2761 15.6589 17.3528 15.8983C17.4294 16.1377 17.4527 16.389 17.4212 16.6371C17.3897 16.8851 17.304 17.1245 17.1694 17.3407C17.0349 17.557 16.8542 17.7455 16.6385 17.8948C16.6385 17.8948 19.9522 16.3073 18.43 14.3198C16.9079 12.3323 15.9246 11.5448 21.8111 8.38232Z" fill="black" stroke="black" stroke-width="0.3"/>
<path d="M23.9798 24.6823C23.9798 24.6823 24.7341 25.2573 23.1312 25.7073C20.0734 26.5698 10.4287 26.8323 7.74817 25.7073C6.77832 25.3198 8.58332 24.7823 9.09519 24.6698C9.39861 24.5971 9.71135 24.5635 10.0246 24.5698C8.94702 23.8698 3.08748 25.9448 7.04772 26.5448C17.8912 28.2573 26.7681 25.8448 23.9798 24.6823V24.6823ZM20.262 18.5823C20.6581 18.3499 21.0723 18.1451 21.5013 17.9698C21.5013 17.9698 19.4673 18.3073 17.4602 18.4698C15.3019 18.6631 13.1297 18.684 10.9676 18.5323C7.76164 18.1448 12.6783 17.0073 12.6783 17.0073C11.1987 16.9967 9.7383 17.3183 8.42168 17.9448C5.64682 19.2323 15.278 19.7948 20.262 18.5823V18.5823ZM21.4878 21.6323C21.4584 21.6748 21.422 21.7127 21.38 21.7448C28.1151 20.0948 25.6636 15.9323 22.4307 16.9823C22.2524 17.0432 22.0976 17.152 21.9862 17.2948C21.9862 17.2948 22.1748 17.2323 22.5654 17.1448C24.2088 16.8323 26.4987 19.1823 21.4878 21.6323V21.6323ZM15.7225 17.0073C14.7257 14.9198 11.3312 13.0823 15.7225 9.86982C21.2319 5.85732 18.4166 3.25732 18.4166 3.25732C19.5481 7.39482 14.3755 8.64482 12.5705 11.2198C11.3178 12.9823 13.2036 14.8698 15.7225 17.0073Z" fill="black" stroke="black" stroke-width="0.3"/>
<path d="M21.6628 27.4073C17.5931 28.0538 13.4402 28.1129 9.35107 27.5823C9.35107 27.5823 9.9707 28.0573 13.1766 28.2448C18.0394 28.5323 25.5019 28.0948 25.6904 25.9573C25.6904 25.9573 25.3402 26.7573 21.6628 27.4073V27.4073Z" fill="black" stroke="black" stroke-width="0.3"/>
</svg>
