<svg width="30" height="31" viewBox="0 0 30 31" fill="none" xmlns="http://www.w3.org/2000/svg">
<path d="M3.75 4.23535H26.25V26.7354H3.75V4.23535ZM9.6625 23.0354C10.1625 24.0979 11.15 24.9729 12.8375 24.9729C14.7125 24.9729 16 23.9729 16 21.7854V14.5604H13.875V21.7354C13.875 22.8104 13.4375 23.0854 12.75 23.0854C12.025 23.0854 11.725 22.5854 11.3875 21.9979L9.6625 23.0354M17.1375 22.8104C17.7625 24.0354 19.025 24.9729 21 24.9729C23 24.9729 24.5 23.9354 24.5 22.0229C24.5 20.2604 23.4875 19.4729 21.6875 18.6979L21.1625 18.4729C20.25 18.0854 19.8625 17.8229 19.8625 17.1979C19.8625 16.6854 20.25 16.2854 20.875 16.2854C21.475 16.2854 21.875 16.5479 22.2375 17.1979L23.875 16.1104C23.1875 14.9104 22.2125 14.4479 20.875 14.4479C18.9875 14.4479 17.775 15.6479 17.775 17.2354C17.775 18.9604 18.7875 19.7729 20.3125 20.4229L20.8375 20.6479C21.8125 21.0729 22.3875 21.3354 22.3875 22.0604C22.3875 22.6604 21.825 23.0979 20.95 23.0979C19.9125 23.0979 19.3125 22.5604 18.8625 21.8104L17.1375 22.8104Z" fill="black"/>
</svg>
