<svg width="67" height="27" viewBox="0 0 67 27" fill="none" xmlns="http://www.w3.org/2000/svg">
<path d="M58.3874 10.9987C58.2438 10.9987 58.1043 11.0295 57.9807 11.1023L54.0725 13.4524C53.8196 13.6041 53.6659 13.8908 53.6659 14.1956V18.8874C53.6659 19.1921 53.8196 19.4783 54.0725 19.6304L55.0932 20.2429C55.5891 20.4975 55.772 20.4934 55.9977 20.4934C56.7319 20.4934 57.151 20.0295 57.151 19.2232V14.5944C57.151 14.5289 57.0965 14.4821 57.0348 14.4821H56.5453C56.4825 14.4821 56.4291 14.5301 56.4291 14.5944V19.2256C56.4291 19.583 56.0716 19.9425 55.4915 19.6404L54.4305 18.9924C54.393 18.9711 54.3641 18.9324 54.3641 18.8888V14.1969C54.3641 14.1524 54.3927 14.107 54.4305 14.0846L58.3305 11.7429C58.3671 11.721 58.4106 11.721 58.4467 11.7429L62.3467 14.0846C62.3838 14.1078 62.4131 14.151 62.4131 14.1969V18.8888C62.4131 18.9336 62.3915 18.9794 62.355 19.001L58.4468 21.3428C58.4122 21.3636 58.366 21.3636 58.3306 21.3428L57.3266 20.7207C57.2966 20.7025 57.2559 20.7039 57.2271 20.7207C56.9499 20.8843 56.8978 20.9033 56.638 20.9972C56.574 21.0203 56.4765 21.0565 56.6712 21.1701L57.9822 21.9747C58.107 22.0499 58.2461 22.087 58.3889 22.087C58.5336 22.087 58.6706 22.0509 58.7955 21.9747L62.7037 19.633C62.9566 19.4797 63.1104 19.1946 63.1104 18.89V14.1981C63.1104 13.8933 62.9566 13.6072 62.7037 13.455L58.7955 11.1048C58.673 11.032 58.5326 11.0012 58.3889 11.0012L58.3874 10.9987ZM59.4329 14.3513C58.32 14.3513 57.6572 14.8445 57.6572 15.6646C57.6572 16.5533 58.3151 16.7987 59.3832 16.9087C60.6611 17.039 60.7607 17.2344 60.7607 17.4963C60.7607 17.9506 60.4129 18.1443 59.5907 18.1443C58.5578 18.1443 58.3308 17.8758 58.2548 17.3397C58.2458 17.2823 58.2033 17.2361 58.1469 17.2361H57.6395C57.6089 17.2368 57.5798 17.2498 57.5581 17.2723C57.5365 17.2948 57.524 17.3252 57.5234 17.357C57.5234 18.0419 57.8811 18.8518 59.5896 18.8518C60.8262 18.8518 61.5395 18.3474 61.5395 17.4607C61.5395 16.584 60.9633 16.3471 59.7638 16.1817C58.5529 16.0136 58.4362 15.9331 58.4362 15.6373C58.4362 15.3933 58.5342 15.0669 59.4319 15.0669C60.2338 15.0669 60.5302 15.2471 60.6517 15.81C60.6623 15.8629 60.7071 15.9061 60.7595 15.9061H61.267C61.2981 15.9061 61.3283 15.8862 61.35 15.8629C61.3712 15.838 61.3862 15.81 61.3832 15.7764C61.3048 14.8068 60.6839 14.3507 59.4333 14.3507L59.4329 14.3513Z" fill="black"/>
<path d="M35.4108 4.84806C35.3672 4.84814 35.3243 4.86006 35.2864 4.88264C35.2487 4.90561 35.2174 4.93841 35.1956 4.97781C35.1738 5.01721 35.1622 5.06185 35.162 5.10733V11.7173C35.162 11.7821 35.1329 11.8403 35.0789 11.8728C35.0525 11.8889 35.0224 11.8973 34.9918 11.8973C34.9612 11.8973 34.9311 11.8889 34.9047 11.8728L33.8674 11.2507C33.7918 11.2052 33.7059 11.1811 33.6185 11.1811C33.5311 11.1811 33.4452 11.2052 33.3696 11.2507L29.2291 13.7391C29.0743 13.8321 28.98 14.011 28.98 14.197V19.1739C28.9799 19.2649 29.0028 19.3544 29.0465 19.4333C29.0902 19.5122 29.1532 19.5777 29.229 19.6231L33.3696 22.1116C33.4452 22.1573 33.5311 22.1814 33.6185 22.1814C33.7059 22.1814 33.7918 22.1573 33.8674 22.1116L38.008 19.6231C38.0838 19.5777 38.1467 19.5122 38.1904 19.4333C38.2342 19.3544 38.2571 19.2649 38.257 19.1739V6.76624C38.257 6.57746 38.158 6.40033 37.9998 6.30834L35.5354 4.87388C35.4966 4.85142 35.4537 4.84746 35.4108 4.84794V4.84806ZM8.77493 11.0605C8.69593 11.0639 8.62177 11.0782 8.55085 11.121L4.41038 13.6094C4.33453 13.6548 4.27155 13.7202 4.22785 13.7991C4.18414 13.878 4.16125 13.9676 4.1615 14.0587L4.16992 20.7379C4.16992 20.8309 4.21605 20.9171 4.29447 20.9625C4.3714 21.0105 4.46677 21.0105 4.54335 20.9625L6.99947 19.4935C7.15516 19.3975 7.25665 19.2298 7.25665 19.0444V15.9251C7.25665 15.7389 7.35064 15.5684 7.50575 15.476L8.55131 14.8452C8.62686 14.7995 8.71278 14.7756 8.80018 14.7761C8.88763 14.7755 8.97361 14.7994 9.04917 14.8452L10.0943 15.4756C10.2491 15.5681 10.3431 15.7388 10.3431 15.9247V19.0439C10.3431 19.2296 10.4469 19.3982 10.6003 19.4931L13.0564 20.962C13.1337 21.01 13.2289 21.01 13.3053 20.962C13.3814 20.9164 13.4299 20.8303 13.4299 20.7374L13.4382 14.0584C13.4387 13.9673 13.4159 13.8777 13.3721 13.7987C13.3284 13.7198 13.2653 13.6544 13.1893 13.6092L9.04883 11.1209C8.97882 11.0782 8.90432 11.0638 8.82475 11.0604H8.77516L8.77493 11.0605ZM45.9822 11.121C45.8948 11.1208 45.8089 11.1447 45.7332 11.1902L41.5926 13.6787C41.4381 13.7718 41.3435 13.9419 41.3435 14.1278V19.1047C41.3435 19.2918 41.4447 19.4614 41.6007 19.5538L45.708 21.9916C45.8597 22.0817 46.0448 22.0885 46.1976 22L48.6869 20.557C48.7659 20.5114 48.8193 20.4262 48.8196 20.3325C48.8198 20.2388 48.7731 20.1545 48.695 20.1079L44.5294 17.6194C44.4514 17.5731 44.3968 17.4793 44.3968 17.3861V15.8299C44.3968 15.7369 44.4521 15.6516 44.5294 15.6053L45.8238 14.8276C45.9009 14.7812 45.9954 14.7812 46.0729 14.8276L47.3679 15.6053C47.4059 15.628 47.4373 15.6607 47.4592 15.7001C47.481 15.7396 47.4925 15.7843 47.4924 15.8299V17.0568C47.4923 17.1023 47.5037 17.1471 47.5256 17.1865C47.5474 17.226 47.5789 17.2587 47.6168 17.2814C47.6944 17.328 47.7884 17.3282 47.8659 17.2814L50.3468 15.7782C50.5008 15.685 50.5959 15.5144 50.5959 15.3291V14.1282C50.5959 14.0371 50.5729 13.9477 50.5292 13.8688C50.4855 13.79 50.4227 13.7245 50.3469 13.6789L46.2313 11.1904C46.1556 11.1448 46.0697 11.121 45.9823 11.1213L45.9822 11.121ZM33.6018 14.8366C33.625 14.8365 33.6478 14.8424 33.6682 14.8538L35.0871 15.7092C35.1256 15.7323 35.1535 15.7752 35.1535 15.8215V17.5322C35.1535 17.5787 35.1259 17.6215 35.0871 17.6445L33.6682 18.4999C33.6296 18.5227 33.5824 18.5227 33.5437 18.4999L32.1248 17.6445C32.0862 17.6213 32.0584 17.5785 32.0584 17.5322V15.8212C32.0584 15.7749 32.0863 15.7323 32.1248 15.7089L33.5437 14.8537C33.5631 14.842 33.5801 14.8365 33.6018 14.8365V14.8364V14.8366Z" fill="black"/>
<path d="M21.2134 11.095C21.126 11.0948 21.04 11.1187 20.9643 11.1641L16.8237 13.644C16.6689 13.7369 16.5748 13.916 16.5748 14.1019V19.0787C16.5746 19.1698 16.5975 19.2593 16.6412 19.3382C16.6849 19.4171 16.7479 19.4825 16.8237 19.5279L20.9643 22.0164C21.0399 22.0621 21.1258 22.0861 21.2132 22.0861C21.3007 22.0861 21.3865 22.0621 21.4622 22.0164L25.6027 19.5279C25.6785 19.4824 25.7415 19.417 25.7852 19.3381C25.8289 19.2592 25.8519 19.1697 25.8517 19.0786V14.1018C25.8517 13.9156 25.7576 13.7367 25.6026 13.6439L21.462 11.164C21.3864 11.1183 21.3004 11.0945 21.2129 11.0949L21.2134 11.095ZM45.9741 15.5362C45.9576 15.5362 45.9393 15.5362 45.9243 15.5446L45.1277 16.0286C45.1129 16.0372 45.1005 16.0497 45.0917 16.0648C45.083 16.08 45.0782 16.0973 45.0779 16.1149V17.0654C45.0779 17.1012 45.0978 17.1339 45.1277 17.1519L45.9243 17.6271C45.938 17.6359 45.9537 17.6406 45.9698 17.6406C45.9859 17.6406 46.0017 17.6359 46.0154 17.6271L46.8119 17.1519C46.8415 17.1343 46.8618 17.1012 46.8618 17.0654V16.1149C46.8618 16.0792 46.8416 16.0465 46.8119 16.0285L46.0154 15.5445C46.0006 15.5354 45.9905 15.5361 45.9739 15.5361L45.9741 15.5362Z" fill="black"/>
</svg>
