<svg width="30" height="31" viewBox="0 0 30 31" fill="none" xmlns="http://www.w3.org/2000/svg">
<path d="M15 23.3281C6.7125 23.3281 0 19.9281 0 15.7281C0 11.5281 6.7125 8.12805 15 8.12805C23.2875 8.12805 30 11.5281 30 15.7281C30 19.9281 23.2875 23.3281 15 23.3281ZM8.5125 13.3906C9.1875 13.3906 9.65 13.5156 9.875 13.7781C10.1 14.0281 10.15 14.4781 10.0375 15.0656C9.9125 15.7281 9.675 16.1531 9.3125 16.4281C8.9625 16.7031 8.425 16.8406 7.7 16.8406H6.6125L7.275 13.3906H8.5125ZM4.1375 20.3281H5.9375L6.3625 18.1406H7.9C8.575 18.1406 9.125 18.0656 9.5625 17.9281C10 17.7781 10.4 17.5406 10.7625 17.2031C11.0625 16.9281 11.3 16.6281 11.4875 16.2906C11.675 15.9656 11.8125 15.5906 11.875 15.1906C12.075 14.2156 11.9375 13.4531 11.4625 12.9156C10.975 12.3656 10.225 12.1031 9.1875 12.1031H5.7375L4.1375 20.3281M13.2 9.91555L11.6 18.1406H13.375L14.3 13.4281H15.725C16.175 13.4281 16.475 13.5031 16.6125 13.6531C16.75 13.8031 16.775 14.0781 16.7 14.4781L15.9875 18.1406H17.8L18.5375 14.3031C18.7 13.5281 18.575 12.9656 18.2 12.6031C17.825 12.2656 17.1375 12.1031 16.1375 12.1031H14.55L15 9.91555H13.2M22.5 13.3906C23.1875 13.3906 23.6375 13.5156 23.8625 13.7781C24.0875 14.0281 24.1375 14.4781 24.025 15.0656C23.9 15.7281 23.6625 16.1531 23.3125 16.4281C22.95 16.7031 22.4125 16.8406 21.6875 16.8406H20.625L21.25 13.3906H22.5M18.125 20.3281H19.925L20.35 18.1406H21.875C22.5625 18.1406 23.125 18.0656 23.5625 17.9281C24 17.7781 24.375 17.5406 24.75 17.2031C25.05 16.9281 25.3 16.6281 25.475 16.2906C25.6625 15.9656 25.8 15.5906 25.875 15.1906C26.0625 14.2156 25.925 13.4531 25.45 12.9156C25 12.3656 24.2125 12.1031 23.175 12.1031H19.7375L18.125 20.3281V20.3281Z" fill="black"/>
</svg>
