<svg width="50" height="43" viewBox="0 0 50 43" fill="none" xmlns="http://www.w3.org/2000/svg">
<g clip-path="url(#clip0_1403_1617)">
<path d="M17.3076 19.2309H10.5767C9.77539 19.2309 9.09413 18.9506 8.53318 18.3896C7.97253 17.8286 7.69185 17.1476 7.69185 16.3461V15.385C7.69185 13.2614 8.44319 11.4487 9.94578 9.94609C11.4483 8.44403 13.2613 7.69269 15.3846 7.69269H17.3076C17.8283 7.69269 18.2789 7.5023 18.6597 7.12184C19.0402 6.74117 19.2305 6.29061 19.2305 5.76975V1.92325C19.2305 1.4025 19.0401 0.951522 18.6597 0.57085C18.279 0.190705 17.8284 0 17.3076 0H15.3846C13.3011 0 11.3133 0.406036 9.42008 1.21695C7.52703 2.02839 5.88963 3.12526 4.50723 4.50765C3.12494 5.88942 2.02839 7.52693 1.21706 9.42018C0.40572 11.3132 0 13.3015 0 15.3848V36.5382C0 38.1416 0.560641 39.503 1.68245 40.6253C2.80436 41.7469 4.16687 42.3076 5.76933 42.3076H17.3083C18.9107 42.3076 20.2728 41.7469 21.3948 40.6253C22.5164 39.503 23.0773 38.1416 23.0773 36.5382V25.0003C23.0773 23.3972 22.5164 22.0357 21.394 20.9134C20.2725 19.7919 18.9099 19.2309 17.3076 19.2309Z" fill="#ED1B24"/>
<path d="M48.3184 20.9134C47.1969 19.7919 45.8347 19.2309 44.2319 19.2309H37.5012C36.7003 19.2309 36.0184 18.9506 35.4584 18.3896C34.8972 17.8286 34.617 17.1476 34.617 16.3461V15.385C34.617 13.2614 35.3684 11.4487 36.8702 9.94609C38.3722 8.44403 40.1851 7.69269 42.3095 7.69269H44.232C44.7529 7.69269 45.2038 7.5023 45.5842 7.12184C45.9645 6.74117 46.1555 6.29061 46.1555 5.76975V1.92325C46.1555 1.4025 45.9646 0.951522 45.5842 0.57085C45.2039 0.190705 44.753 0 44.232 0H42.3095C40.2248 0 38.2375 0.406036 36.3437 1.21695C34.451 2.02839 32.8141 3.12526 31.4317 4.50765C30.0493 5.88942 28.9522 7.52693 28.1412 9.42018C27.3301 11.3132 26.9238 13.3015 26.9238 15.3848V36.5382C26.9238 38.1416 27.485 39.503 28.6065 40.6253C29.7281 41.7469 31.0903 42.3076 32.6929 42.3076H44.2313C45.8341 42.3076 47.1962 41.7469 48.3177 40.6253C49.44 39.503 50 38.1416 50 36.5382V25.0003C50.0001 23.3971 49.44 22.0357 48.3184 20.9134Z" fill="#ED1B24"/>
</g>
<defs>
<clipPath id="clip0_1403_1617">
<rect width="50" height="43" fill="white"/>
</clipPath>
</defs>
</svg>
