<svg width="30" height="30" viewBox="0 0 30 30" fill="none" xmlns="http://www.w3.org/2000/svg">
<path d="M15 12.6376C16.2875 12.6376 17.3375 13.6876 17.3375 15.0001C17.3375 16.2501 16.2875 17.3126 15 17.3126C13.7125 17.3126 12.6625 16.2501 12.6625 15.0001C12.6625 13.6876 13.7125 12.6376 15 12.6376ZM9.2125 25.0001C10 25.4751 11.725 24.7501 13.7125 22.8751C13.0625 22.1376 12.425 21.3376 11.825 20.5001C10.8177 20.4037 9.81626 20.2534 8.825 20.0501C8.1875 22.7251 8.425 24.5626 9.2125 25.0001M10.1 17.8251L9.7375 17.1876C9.6 17.5501 9.4625 17.9126 9.375 18.2626C9.7125 18.3376 10.0875 18.4001 10.475 18.4626L10.1 17.8251ZM18.275 16.8751L19.2875 15.0001L18.275 13.1251C17.9 12.4626 17.5 11.8751 17.1375 11.2876C16.4625 11.2501 15.75 11.2501 15 11.2501C14.25 11.2501 13.5375 11.2501 12.8625 11.2876C12.5 11.8751 12.1 12.4626 11.725 13.1251L10.7125 15.0001L11.725 16.8751C12.1 17.5376 12.5 18.1251 12.8625 18.7126C13.5375 18.7501 14.25 18.7501 15 18.7501C15.75 18.7501 16.4625 18.7501 17.1375 18.7126C17.5 18.1251 17.9 17.5376 18.275 16.8751M15 8.47505C14.7625 8.75005 14.5125 9.03755 14.2625 9.37505H15.7375C15.4875 9.03755 15.2375 8.75005 15 8.47505ZM15 21.5251C15.2375 21.2501 15.4875 20.9626 15.7375 20.6251H14.2625C14.5125 20.9626 14.7625 21.2501 15 21.5251ZM20.775 5.00005C20 4.52505 18.275 5.25005 16.2875 7.12505C16.9375 7.86255 17.575 8.66255 18.175 9.50005C19.2 9.60005 20.2125 9.75005 21.175 9.95005C21.8125 7.27505 21.575 5.43755 20.775 5.00005ZM19.9 12.1751L20.2625 12.8126C20.4 12.4501 20.5375 12.0876 20.625 11.7376C20.2875 11.6626 19.9125 11.6001 19.525 11.5376L19.9 12.1751M21.7125 3.36255C23.55 4.41255 23.75 7.17505 22.975 10.4001C26.15 11.3376 28.4375 12.8876 28.4375 15.0001C28.4375 17.1126 26.15 18.6626 22.975 19.6001C23.75 22.8251 23.55 25.5876 21.7125 26.6376C19.8875 27.6876 17.4 26.4876 15 24.2001C12.6 26.4876 10.1125 27.6876 8.275 26.6376C6.45 25.5876 6.25 22.8251 7.025 19.6001C3.85 18.6626 1.5625 17.1126 1.5625 15.0001C1.5625 12.8876 3.85 11.3376 7.025 10.4001C6.25 7.17505 6.45 4.41255 8.275 3.36255C10.1125 2.31255 12.6 3.51255 15 5.80005C17.4 3.51255 19.8875 2.31255 21.7125 3.36255ZM21.35 15.0001C21.775 15.9376 22.15 16.8751 22.4625 17.8251C25.0875 17.0376 26.5625 15.9126 26.5625 15.0001C26.5625 14.0876 25.0875 12.9626 22.4625 12.1751C22.15 13.1251 21.775 14.0626 21.35 15.0001ZM8.65 15.0001C8.225 14.0626 7.85 13.1251 7.5375 12.1751C4.9125 12.9626 3.4375 14.0876 3.4375 15.0001C3.4375 15.9126 4.9125 17.0376 7.5375 17.8251C7.85 16.8751 8.225 15.9376 8.65 15.0001ZM19.9 17.8251L19.525 18.4626C19.9125 18.4001 20.2875 18.3376 20.625 18.2626C20.5375 17.9126 20.4 17.5501 20.2625 17.1876L19.9 17.8251M16.2875 22.8751C18.275 24.7501 20 25.4751 20.775 25.0001C21.575 24.5626 21.8125 22.7251 21.175 20.0501C20.2125 20.2501 19.2 20.4001 18.175 20.5001C17.575 21.3376 16.9375 22.1376 16.2875 22.8751M10.1 12.1751L10.475 11.5376C10.0875 11.6001 9.7125 11.6626 9.375 11.7376C9.4625 12.0876 9.6 12.4501 9.7375 12.8126L10.1 12.1751ZM13.7125 7.12505C11.725 5.25005 10 4.52505 9.2125 5.00005C8.425 5.43755 8.1875 7.27505 8.825 9.95005C9.81626 9.74667 10.8177 9.59645 11.825 9.50005C12.425 8.66255 13.0625 7.86255 13.7125 7.12505V7.12505Z" fill="black"/>
</svg>
