<svg width="71" height="71" viewBox="0 0 71 71" fill="none" xmlns="http://www.w3.org/2000/svg">
<path d="M21.2813 2.34204C19.4722 2.34204 18 3.81423 18 5.62329V39.5295H8.84626C7.92969 39.5295 7.12569 40.083 6.79975 40.9395C6.47381 41.7959 6.7068 42.7431 7.39148 43.3513L34.0474 67.0442C34.4619 67.4128 34.9805 67.5975 35.5 67.5975C36.0195 67.5975 36.5381 67.4128 36.9526 67.0442L63.6064 43.3513C64.2922 42.742 64.5241 41.7959 64.1981 40.9395C63.8722 40.083 63.0703 39.5295 62.1538 39.5295H53V5.62329C53 3.81423 51.5278 2.34204 49.7188 2.34204H21.2813ZM21.2813 4.52954H49.7188C50.3214 4.52954 50.8125 5.01954 50.8125 5.62329V13.2795H20.1875V5.62329C20.1875 5.01954 20.6786 4.52954 21.2813 4.52954ZM24.5625 6.71704C23.9588 6.71704 23.4688 7.20595 23.4688 7.81079V9.99829C23.4688 10.6031 23.9588 11.092 24.5625 11.092C25.1663 11.092 25.6563 10.6031 25.6563 9.99829V7.81079C25.6563 7.20595 25.1663 6.71704 24.5625 6.71704ZM30.0313 6.71704C29.4275 6.71704 28.9375 7.20595 28.9375 7.81079V9.99829C28.9375 10.6031 29.4275 11.092 30.0313 11.092C30.635 11.092 31.125 10.6031 31.125 9.99829V7.81079C31.125 7.20595 30.635 6.71704 30.0313 6.71704ZM35.5 6.71704C34.8963 6.71704 34.4063 7.20595 34.4063 7.81079V9.99829C34.4063 10.6031 34.8963 11.092 35.5 11.092C36.1038 11.092 36.5938 10.6031 36.5938 9.99829V7.81079C36.5938 7.20595 36.1038 6.71704 35.5 6.71704ZM40.9688 6.71704C40.365 6.71704 39.875 7.20595 39.875 7.81079V9.99829C39.875 10.6031 40.365 11.092 40.9688 11.092C41.5725 11.092 42.0625 10.6031 42.0625 9.99829V7.81079C42.0625 7.20595 41.5725 6.71704 40.9688 6.71704ZM46.4375 6.71704C45.8338 6.71704 45.3438 7.20595 45.3438 7.81079V9.99829C45.3438 10.6031 45.8338 11.092 46.4375 11.092C47.0413 11.092 47.5313 10.6031 47.5313 9.99829V7.81079C47.5313 7.20595 47.0413 6.71704 46.4375 6.71704ZM20.1875 15.467H50.8125V40.6233C50.8125 41.2281 51.3025 41.717 51.9063 41.717H62.1538L35.5 65.41L8.84626 41.717H19.0938C19.6975 41.717 20.1875 41.2281 20.1875 40.6233V15.467ZM35.5 18.7483C34.8963 18.7483 34.4063 19.2372 34.4063 19.842V23.1233H33.3125C30.297 23.1233 27.8438 25.5766 27.8438 28.592V30.7795C27.8438 33.795 30.297 36.2483 33.3125 36.2483H37.6875C39.4966 36.2483 40.9688 37.7205 40.9688 39.5295V41.717C40.9688 43.5261 39.4966 44.9983 37.6875 44.9983H36.5938V38.4358C36.5938 37.8309 36.1038 37.342 35.5 37.342C34.8963 37.342 34.4063 37.8309 34.4063 38.4358V44.9983H33.3125C31.5034 44.9983 30.0313 43.5261 30.0313 41.717C30.0313 41.1122 29.5413 40.6233 28.9375 40.6233C28.3338 40.6233 27.8438 41.1122 27.8438 41.717C27.8438 44.7325 30.297 47.1858 33.3125 47.1858H34.4063V50.467C34.4063 51.0719 34.8963 51.5608 35.5 51.5608C36.1038 51.5608 36.5938 51.0719 36.5938 50.467V47.1858H37.6875C40.703 47.1858 43.1563 44.7325 43.1563 41.717V39.5295C43.1563 36.5141 40.703 34.0608 37.6875 34.0608H36.5938V27.4983C36.5938 26.8934 36.1038 26.4045 35.5 26.4045C34.8963 26.4045 34.4063 26.8934 34.4063 27.4983V34.0608H33.3125C31.5034 34.0608 30.0313 32.5886 30.0313 30.7795V28.592C30.0313 26.783 31.5034 25.3108 33.3125 25.3108H37.6875C39.4966 25.3108 40.9688 26.783 40.9688 28.592C40.9688 29.1969 41.4588 29.6858 42.0625 29.6858C42.6663 29.6858 43.1563 29.1969 43.1563 28.592C43.1563 25.5766 40.703 23.1233 37.6875 23.1233H36.5938V19.842C36.5938 19.2372 36.1038 18.7483 35.5 18.7483Z" fill="black"/>
<path d="M35.4999 18.7483C34.8961 18.7483 34.4061 19.2372 34.4061 19.842V23.1233H33.3124C30.2969 23.1233 27.8436 25.5766 27.8436 28.592V30.7795C27.8436 33.795 30.2969 36.2483 33.3124 36.2483H37.6874C39.4964 36.2483 40.9686 37.7205 40.9686 39.5295V41.717C40.9686 43.5261 39.4964 44.9983 37.6874 44.9983H36.5936V38.4358C36.5936 37.8309 36.1036 37.342 35.4999 37.342C34.8961 37.342 34.4061 37.8309 34.4061 38.4358V44.9983H33.3124C31.5033 44.9983 30.0311 43.5261 30.0311 41.717C30.0311 41.1122 29.5411 40.6233 28.9374 40.6233C28.3336 40.6233 27.8436 41.1122 27.8436 41.717C27.8436 44.7325 30.2969 47.1858 33.3124 47.1858H34.4061V50.467C34.4061 51.0719 34.8961 51.5608 35.4999 51.5608C36.1036 51.5608 36.5936 51.0719 36.5936 50.467V47.1858H37.6874C40.7028 47.1858 43.1561 44.7325 43.1561 41.717V39.5295C43.1561 36.5141 40.7028 34.0608 37.6874 34.0608H36.5936V27.4983C36.5936 26.8934 36.1036 26.4045 35.4999 26.4045C34.8961 26.4045 34.4061 26.8934 34.4061 27.4983V34.0608H33.3124C31.5033 34.0608 30.0311 32.5886 30.0311 30.7795V28.592C30.0311 26.783 31.5033 25.3108 33.3124 25.3108H37.6874C39.4964 25.3108 40.9686 26.783 40.9686 28.592C40.9686 29.1969 41.4586 29.6858 42.0624 29.6858C42.6661 29.6858 43.1561 29.1969 43.1561 28.592C43.1561 25.5766 40.7028 23.1233 37.6874 23.1233H36.5936V19.842C36.5936 19.2372 36.1036 18.7483 35.4999 18.7483Z" fill="#BC3432"/>
</svg>
