<svg width="70" height="71" viewBox="0 0 70 71" fill="none" xmlns="http://www.w3.org/2000/svg">
<path d="M55.3296 51.0003L55.3298 51.0004C56.5319 51.4878 57.4362 52.0283 57.9965 52.5515M55.3296 51.0003L58.5833 53.4954C58.5832 53.4411 58.5764 53.3293 58.4932 53.164C58.4129 53.0042 58.2649 52.8015 57.9965 52.5515M55.3296 51.0003C52.9193 50.0256 49.9795 49.534 48.125 49.534C46.2705 49.534 43.3307 50.0256 40.9204 51.0003L40.9202 51.0004M55.3296 51.0003L40.9202 51.0004M57.9965 52.5515L57.8258 52.7342L57.9962 52.5512C57.9963 52.5513 57.9964 52.5514 57.9965 52.5515ZM40.9202 51.0004C39.7182 51.4877 38.8139 52.0282 38.2537 52.5513M40.9202 51.0004L37.6667 58.784M37.6667 58.784V58.534V53.4954C37.6667 53.442 37.673 53.3301 37.7568 53.1637C37.8372 53.0041 37.9851 52.8014 38.2537 52.5513M37.6667 58.784H37.9167M37.6667 58.784H37.9167M38.2537 52.5513C38.2537 52.5513 38.2538 52.5513 38.2538 52.5512L38.4242 52.7342L38.2535 52.5515C38.2536 52.5514 38.2536 52.5514 38.2537 52.5513ZM37.9167 58.784H58.3333H58.5833M37.9167 58.784H58.5833M58.5833 58.784V58.534M58.5833 58.784V58.534M58.5833 58.534V53.4969V58.534ZM24.7973 47.3667L24.8997 47.3825L24.9833 47.3212C26.9023 45.9134 30.4347 44.2006 35 44.2006C39.5638 44.2006 43.0963 45.9134 45.0183 47.3213L45.1026 47.3831L45.2058 47.3664C46.1717 47.2107 47.1479 47.1274 48.1263 47.1173C50.2851 47.1175 53.5337 47.6668 56.2365 48.7605C57.588 49.3073 58.7873 49.9841 59.6448 50.7834C60.5005 51.5811 61 52.4845 61 53.4954V61.2006H9V53.4954C9 52.4845 9.49946 51.5811 10.3552 50.7834C11.2127 49.9841 12.412 49.3073 13.7635 48.7605C16.4668 47.6666 19.7162 47.1173 21.875 47.1173C22.7128 47.1173 23.7192 47.2005 24.7973 47.3667ZM32.0833 58.784H32.3333V58.534V53.4954C32.3333 53.442 32.327 53.3301 32.2432 53.1637C32.1628 53.0042 32.015 52.8015 31.7465 52.5515C31.1862 52.0283 30.2819 51.4878 29.0798 51.0004L29.0796 51.0003C26.6693 50.0256 23.7295 49.534 21.875 49.534C20.0205 49.534 17.0807 50.0256 14.6704 51.0003L14.6702 51.0004C13.4681 51.4878 12.5638 52.0283 12.0035 52.5515C11.7352 52.8014 11.5873 53.0036 11.5069 53.163C11.4229 53.3295 11.4167 53.4415 11.4167 53.4954V58.534V58.784H11.6667H32.0833ZM41.1201 48.3526L41.737 48.1452L35 46.8673V46.6173C34.9999 46.6173 34.9997 46.6173 34.9996 46.6173C32.5456 46.6174 30.4585 47.1894 28.861 47.8865L28.2664 48.146L28.8814 48.3526C30.4816 48.8901 31.9605 49.5987 33.0343 50.4699C34.1081 51.341 34.75 52.3508 34.75 53.4969H35H35.25C35.25 52.3508 35.8919 51.3414 36.9658 50.4705C38.0399 49.5995 39.5191 48.8908 41.1201 48.3526ZM40.5833 35.2006C40.5833 38.2855 38.0848 40.784 35 40.784C31.9152 40.784 29.4167 38.2855 29.4167 35.2006C29.4167 32.1158 31.9152 29.6173 35 29.6173C38.0848 29.6173 40.5833 32.1158 40.5833 35.2006ZM37.2392 37.4398C37.833 36.8459 38.1667 36.0405 38.1667 35.2006C38.1667 34.3608 37.833 33.5553 37.2392 32.9615C36.6453 32.3676 35.8399 32.034 35 32.034C34.1601 32.034 33.3547 32.3676 32.7608 32.9615C32.167 33.5553 31.8333 34.3608 31.8333 35.2006C31.8333 36.0405 32.167 36.8459 32.7608 37.4398C33.3547 38.0337 34.1601 38.3673 35 38.3673C35.8399 38.3673 36.6453 38.0337 37.2392 37.4398ZM27.4583 38.1173C27.4583 41.2022 24.9598 43.7006 21.875 43.7006C18.7902 43.7006 16.2917 41.2022 16.2917 38.1173C16.2917 35.0325 18.7902 32.534 21.875 32.534C24.9598 32.534 27.4583 35.0325 27.4583 38.1173ZM24.1142 40.3565C24.708 39.7626 25.0417 38.9572 25.0417 38.1173C25.0417 37.2775 24.708 36.472 24.1142 35.8781C23.5203 35.2843 22.7149 34.9506 21.875 34.9506C21.0351 34.9506 20.2297 35.2843 19.6358 35.8781C19.042 36.472 18.7083 37.2775 18.7083 38.1173C18.7083 38.9572 19.042 39.7626 19.6358 40.3565C20.2297 40.9503 21.0351 41.284 21.875 41.284C22.7149 41.284 23.5203 40.9503 24.1142 40.3565ZM53.7083 38.1173C53.7083 41.2022 51.2098 43.7006 48.125 43.7006C45.0402 43.7006 42.5417 41.2022 42.5417 38.1173C42.5417 35.0325 45.0402 32.534 48.125 32.534C51.2098 32.534 53.7083 35.0325 53.7083 38.1173ZM48.125 41.284C48.9649 41.284 49.7703 40.9503 50.3642 40.3565C50.958 39.7626 51.2917 38.9572 51.2917 38.1173C51.2917 37.2775 50.958 36.472 50.3642 35.8781C49.7703 35.2843 48.9649 34.9506 48.125 34.9506C47.2851 34.9506 46.4797 35.2843 45.8858 35.8781C45.292 36.472 44.9583 37.2775 44.9583 38.1173C44.9583 38.9572 45.292 39.7626 45.8858 40.3565C46.4797 40.9503 47.2851 41.284 48.125 41.284Z" fill="black" stroke="white" stroke-width="0.5"/>
<path d="M48.1967 26.9914L48.1966 26.9914C46.2774 26.4175 43.761 25.4154 41.7288 23.7523C39.7028 22.0942 38.1667 19.788 38.1667 16.5865C38.1667 14.6277 38.9448 12.7491 40.3299 11.3639C41.715 9.97883 43.5936 9.20068 45.5525 9.20068H53.9583C55.8259 9.20068 57.617 9.94257 58.9375 11.2631C60.2581 12.5837 61 14.3748 61 16.2424C61 18.1099 60.2581 19.901 58.9375 21.2216C57.617 22.5421 55.8259 23.284 53.9583 23.284H51.0417H50.7917V23.534V27.6151C50.6588 27.5918 50.4825 27.559 50.2696 27.5154C49.7583 27.4105 49.0364 27.2427 48.1967 26.9914ZM48.375 20.8674H53.9583C55.185 20.8674 56.3613 20.3801 57.2287 19.5127C58.0961 18.6454 58.5833 17.469 58.5833 16.2424C58.5833 15.0157 58.0961 13.8393 57.2287 12.972C56.3613 12.1046 55.185 11.6174 53.9583 11.6174H45.5525C44.2346 11.6174 42.9707 12.1409 42.0388 13.0728C41.1069 14.0047 40.5833 15.2686 40.5833 16.5865C40.5833 19.8232 42.7478 21.9518 45.6753 23.4192L45.676 23.4196C46.4427 23.8006 47.234 24.1298 48.0446 24.4051L48.375 24.5173V24.1684V20.8674ZM21.6177 26.1907L21.6168 26.1906C19.7712 26.1267 18.0247 25.3401 16.7537 24.0003C15.4828 22.6606 14.7893 20.875 14.8228 19.0286C14.8562 17.1822 15.6139 15.423 16.9325 14.1301C18.2511 12.8373 20.025 12.1144 21.8717 12.1174H21.8721H26.4935C28.2965 12.1174 30.0256 12.8336 31.3005 14.1085C32.5754 15.3834 33.2917 17.1125 33.2917 18.9155C33.2917 21.7769 32.0106 23.86 30.2972 25.3751C28.5777 26.8955 26.4262 27.8392 24.7138 28.4006C23.8862 28.6717 23.1654 28.8519 22.6521 28.9642C22.4375 29.0111 22.2593 29.0462 22.125 29.071V26.4507V26.2101L21.8845 26.2009L21.6177 26.1907ZM24.5417 25.5421V25.9071L24.882 25.7753C25.4008 25.5742 25.9417 25.3372 26.4764 25.058C29.0042 23.74 30.875 21.8424 30.875 18.9155C30.875 18.34 30.7616 17.7701 30.5413 17.2384C30.321 16.7067 29.9982 16.2236 29.5911 15.8168C29.1841 15.4099 28.7009 15.0872 28.1692 14.8671C27.6374 14.647 27.0676 14.5338 26.4921 14.534C26.492 14.534 26.492 14.534 26.492 14.534H21.8723C20.6503 14.5174 19.4715 14.9855 18.5937 15.8358C17.7154 16.6866 17.21 17.8506 17.1882 19.0732C17.1664 20.2957 17.6299 21.4771 18.4772 22.3587C19.3241 23.2398 20.4855 23.7496 21.7073 23.7766L24.5417 23.8787V25.5421Z" fill="#BC3432" stroke="white" stroke-width="0.5"/>
</svg>
