<svg width="70" height="71" viewBox="0 0 70 71" fill="none" xmlns="http://www.w3.org/2000/svg">
<g clip-path="url(#clip0_1_855)">
<path d="M23.2043 43.6156C25.4317 45.843 28.358 46.9568 31.2841 46.9568C34.2101 46.9568 37.1363 45.843 39.3638 43.6154C41.5222 41.4572 42.7107 38.5879 42.7107 35.5358C42.7107 32.4838 41.5222 29.6142 39.3638 27.456C34.9089 23.001 27.6592 23.001 23.2044 27.456C21.046 29.6141 19.8575 32.4835 19.8575 35.5356C19.8575 38.5877 21.0459 41.4573 23.2043 43.6156ZM24.7671 29.0192C28.3606 25.426 34.2076 25.4261 37.8007 29.0192C39.5414 30.7599 40.5 33.0741 40.5 35.5358C40.5 37.9974 39.5413 40.3116 37.8007 42.0522C34.2072 45.6456 28.3605 45.6456 24.7671 42.0522C23.0264 40.3116 22.0679 37.9974 22.0679 35.5358C22.0679 33.0741 23.0265 30.7599 24.7671 29.0192Z" fill="#BC3432"/>
<path d="M65.129 59.509L55.1922 49.5468C57.4848 45.6374 58.7739 41.2288 58.954 36.6872H63.7345C64.4358 36.6872 65.1159 36.3964 65.6007 35.8895C66.0914 35.3765 66.3443 34.7039 66.3127 33.9957C65.9228 25.2524 62.2928 17.0219 56.0914 10.8208C49.8902 4.61978 41.6596 0.989771 32.9162 0.59985C32.2083 0.569635 31.5355 0.82106 31.0222 1.31174C30.5153 1.79655 30.2245 2.47699 30.2245 3.17836V7.95872C15.4913 8.54073 3.68415 20.7085 3.68415 35.5817C3.68415 50.8253 16.086 63.227 31.3301 63.227C36.2566 63.227 41.0624 61.9233 45.2865 59.4487L55.2243 69.4118C56.0148 70.2023 57.0526 70.5974 58.091 70.5974C59.1291 70.5974 60.1676 70.2021 60.9577 69.4118L65.128 65.2416C65.8939 64.4758 66.3157 63.4578 66.3157 62.3749C66.3156 61.2918 65.8939 60.2736 65.129 59.509ZM53.5736 47.924L52.3974 46.7449C52.3971 46.7447 52.3968 46.7444 52.3964 46.7441C51.6306 45.9784 50.6126 45.5566 49.5297 45.5566C48.8259 45.5566 48.1492 45.7347 47.5516 46.0697L45.5288 44.0471C46.8624 41.824 47.6531 39.3157 47.8321 36.6874H56.7415C56.5712 40.6403 55.4877 44.4807 53.5736 47.924ZM45.8814 47.5255L43.2741 50.1327L41.6375 48.496C42.1131 48.1155 42.5725 47.705 43.013 47.2645C43.452 46.8256 43.863 46.3669 44.2457 45.8895L45.8814 47.5255ZM32.4354 3.17822C32.4354 3.04 32.5074 2.95045 32.5503 2.9093C32.5926 2.8691 32.683 2.80197 32.8178 2.80826C49.8925 3.56992 63.3432 17.0199 64.1047 34.0941C64.1106 34.2285 64.0439 34.3194 64.0034 34.3615C63.9622 34.4046 63.8726 34.4766 63.7345 34.4766H47.8382C47.586 30.4445 45.895 26.6892 43.0129 23.8071C40.0716 20.8659 36.2912 19.2625 32.4354 18.9963V3.17822ZM31.2841 21.1663C34.9656 21.1663 38.6472 22.5676 41.4499 25.3702C44.1653 28.0855 45.6607 31.6956 45.6607 35.5358C45.6607 35.5391 45.6607 35.5426 45.6607 35.5458C45.6603 35.5577 45.6601 35.5698 45.6601 35.5817C45.6601 35.5916 45.6603 35.6013 45.6606 35.6113C45.6459 38.4681 44.8033 41.1951 43.2464 43.5178C43.2148 43.5579 43.1865 43.5999 43.1613 43.6431C42.6608 44.373 42.0893 45.0618 41.4499 45.7012C40.7916 46.3595 40.0852 46.9402 39.3413 47.4438C39.3331 47.4493 39.3249 47.4548 39.3168 47.4604C36.8987 49.0905 34.0917 49.9053 31.2838 49.9052C27.6026 49.9049 23.9203 48.5034 21.1179 45.7012C18.4026 42.9859 16.9072 39.3755 16.9072 35.5357C16.9072 31.6956 18.4024 28.0855 21.1179 25.3701C23.9209 22.5675 27.6025 21.1663 31.2841 21.1663ZM31.3301 61.0163C17.305 61.0163 5.89476 49.6065 5.89476 35.5817C5.89476 21.9277 16.711 10.7522 30.2249 10.171V18.9903C26.3368 19.2366 22.52 20.8424 19.5553 23.8071C16.4222 26.9399 14.6968 31.1053 14.6968 35.5358C14.6968 39.9663 16.4222 44.1316 19.5553 47.2645C25.0341 52.743 33.4232 53.581 39.7921 49.7767L41.8184 51.803C41.4834 52.4006 41.3053 53.0769 41.3053 53.7807C41.3053 54.8635 41.727 55.8818 42.4918 56.6465L43.6688 57.8267C39.9064 59.9174 35.669 61.0163 31.3301 61.0163ZM63.5652 63.6782L59.3949 67.8484C58.6759 68.5675 57.5063 68.5673 56.7882 67.8495L46.2536 57.288C46.2428 57.2766 46.2318 57.2656 46.2204 57.2549L44.0556 55.0845C43.7075 54.7363 43.5157 54.2733 43.5157 53.7809C43.5157 53.2886 43.7075 52.8255 44.0556 52.4774L48.2262 48.3071C48.9449 47.5884 50.1146 47.5881 50.8333 48.3071L52.9978 50.4772C53.0084 50.4883 53.0193 50.4991 53.0302 50.5098L63.5649 61.0713C63.9132 61.4195 64.1048 61.8824 64.1048 62.3747C64.105 62.8669 63.9134 63.3298 63.5652 63.6782Z" fill="black"/>
</g>
<defs>
<clipPath id="clip0_1_855">
<rect width="70" height="70" fill="white" transform="translate(0 0.597412)"/>
</clipPath>
</defs>
</svg>
