<svg xmlns:xlink="http://www.w3.org/1999/xlink" xmlns="http://www.w3.org/2000/svg" width="98" height="98" viewBox="0 0 98 98" fill="none">
<g filter="url(#filter0_d_1371_437)">
<rect width="94" height="94" rx="11" fill="#F5D6FF"/>
<rect x="0.5" y="0.5" width="93" height="93" rx="10.5" stroke="black"/>
</g>
<g clip-path="url(#clip0_1371_437)">
<circle cx="47" cy="56" r="30" fill="white"/>
<path fill-rule="evenodd" clip-rule="evenodd" d="M47 50.8192C46.4611 50.8192 45.923 51.0819 45.6687 51.6074L37.4725 68.545C36.9627 69.5985 38.0282 70.8884 39.1591 70.5869L46.4017 68.6552C46.7936 68.5507 47.2064 68.5507 47.5983 68.6552L54.8409 70.5869C55.9718 70.8884 57.0373 69.5985 56.5275 68.545L48.3313 51.6074C48.0771 51.0819 47.5389 50.8192 47 50.8192Z" fill="#BF00FF"/>
<path d="M45.9545 41.3632C44.5235 41.3632 43.3409 42.5457 43.3409 43.9768H30.091C29.6564 42.7637 28.4906 41.8859 27.1364 41.8859C25.4166 41.8859 24 43.3025 24 45.0223C24 46.742 25.4166 48.1586 27.1364 48.1586C28.4906 48.1586 29.6564 47.2808 30.091 46.0677H38.912C34.0494 48.7616 30.6716 53.8053 30.3095 59.6586H30.2727C28.8416 59.6586 27.6591 60.8412 27.6591 62.2723V64.3632C27.6591 65.7943 28.8416 66.9768 30.2727 66.9768H32.3636C33.7947 66.9768 34.9773 65.7943 34.9773 64.3632V62.2723C34.9773 60.8549 33.817 59.6831 32.4045 59.6607C32.853 53.2831 37.3742 48.0495 43.3817 46.523C43.6005 47.7413 44.6785 48.6813 45.9545 48.6813H48.0455C49.3215 48.6813 50.3995 47.7413 50.6183 46.523C56.6258 48.0495 61.147 53.2831 61.5955 59.6607C60.183 59.6831 59.0227 60.8549 59.0227 62.2723V64.3632C59.0227 65.7943 60.2053 66.9768 61.6364 66.9768H63.7273C65.1584 66.9768 66.3409 65.7943 66.3409 64.3632V62.2723C66.3409 60.8412 65.1584 59.6586 63.7273 59.6586H63.6905C63.3284 53.8053 59.9506 48.7616 55.088 46.0677H63.909C64.3436 47.2808 65.5094 48.1586 66.8636 48.1586C68.5834 48.1586 70 46.742 70 45.0223C70 43.3025 68.5834 41.8859 66.8636 41.8859C65.5094 41.8859 64.3436 42.7637 63.909 43.9768H50.6591C50.6591 42.5457 49.4765 41.3632 48.0455 41.3632H45.9545ZM45.9545 43.4541H48.0455C48.3465 43.4541 48.5682 43.6757 48.5682 43.9768V46.0677C48.5682 46.3688 48.3465 46.5904 48.0455 46.5904H45.9545C45.6535 46.5904 45.4318 46.3688 45.4318 46.0677V43.9768C45.4318 43.6757 45.6535 43.4541 45.9545 43.4541Z" fill="#BF00FF"/>
</g>
<line y1="18.5" x2="94" y2="18.5" stroke="black"/>
<defs>
<filter id="filter0_d_1371_437" x="0" y="0" width="98" height="98" filterUnits="userSpaceOnUse" color-interpolation-filters="sRGB">
<feFlood flood-opacity="0" result="BackgroundImageFix"/>
<feColorMatrix in="SourceAlpha" type="matrix" values="0 0 0 0 0 0 0 0 0 0 0 0 0 0 0 0 0 0 127 0" result="hardAlpha"/>
<feOffset dx="4" dy="4"/>
<feComposite in2="hardAlpha" operator="out"/>
<feColorMatrix type="matrix" values="0 0 0 0 0 0 0 0 0 0 0 0 0 0 0 0 0 0 1 0"/>
<feBlend mode="normal" in2="BackgroundImageFix" result="effect1_dropShadow_1371_437"/>
<feBlend mode="normal" in="SourceGraphic" in2="effect1_dropShadow_1371_437" result="shape"/>
</filter>
<clipPath id="clip0_1371_437">
<rect width="60" height="60" fill="white" transform="translate(17 26)"/>
</clipPath>
</defs>
</svg>