<svg xmlns:xlink="http://www.w3.org/1999/xlink" xmlns="http://www.w3.org/2000/svg" width="98" height="98" viewBox="0 0 98 98" fill="none">
<g filter="url(#filter0_d_1465_515)">
<rect width="94" height="94" rx="11" fill="#FFD6CA"/>
<rect x="0.5" y="0.5" width="93" height="93" rx="10.5" stroke="black"/>
</g>
<g clip-path="url(#clip0_1465_515)">
<circle cx="47" cy="56" r="30" fill="white"/>
<path fill-rule="evenodd" clip-rule="evenodd" d="M42.9017 72.8427L39.5341 69.4749C39.5057 69.4944 39.4774 69.514 39.4492 69.5338L37.8053 71.1777L39.9151 73.2876C40.2526 73.6238 40.7096 73.8126 41.186 73.8126C41.6624 73.8126 42.1194 73.6238 42.457 73.2876L42.9017 72.8427ZM55.5351 38.1875C53.7002 38.1875 51.9065 38.7316 50.3809 39.751C48.8552 40.7704 47.6661 42.2193 46.964 43.9146C46.2618 45.6098 46.0781 47.4751 46.436 49.2748C46.794 51.0744 47.6776 52.7275 48.975 54.0249C50.2725 55.3224 51.9256 56.206 53.7252 56.5639C55.5248 56.9219 57.3902 56.7382 59.0854 56.036C60.7806 55.3338 62.2295 54.1447 63.2489 52.6191C64.2683 51.0934 64.8125 49.2997 64.8125 47.4648C64.8125 46.2465 64.5726 45.0401 64.1064 43.9145C63.6402 42.7889 62.9569 41.7661 62.0954 40.9046C61.2339 40.0431 60.2111 39.3597 59.0855 38.8935C57.9599 38.4273 56.7535 38.1874 55.5351 38.1875ZM51.3679 51.9706H50.1491V45.7269H51.3679V51.9706ZM60.6452 49.0268H60.0114C60.2509 49.0268 60.4807 49.1219 60.6501 49.2913C60.8195 49.4607 60.9146 49.6905 60.9146 49.93C60.9146 50.1696 60.8195 50.3993 60.6501 50.5687C60.4807 50.7381 60.2509 50.8333 60.0114 50.8333H59.4726C59.7108 50.8354 59.9384 50.9315 60.1061 51.1007C60.2737 51.2699 60.3678 51.4984 60.3678 51.7365C60.3678 51.9747 60.2737 52.2032 60.1061 52.3724C59.9384 52.5415 59.7108 52.6377 59.4726 52.6398H57.4903C55.6775 52.9541 54.0291 53.382 52.5554 51.9706V45.7269C53.6641 44.8941 55.0792 44.1806 55.0792 42.6053V40.7099C55.6815 40.7116 56.2588 40.9516 56.6847 41.3775C57.1107 41.8034 57.3508 42.3806 57.3526 42.9829V44.4533C57.2869 44.8072 57.1306 45.1382 56.8989 45.4137H60.2651C60.5046 45.4137 60.7344 45.5089 60.9038 45.6783C61.0732 45.8477 61.1683 46.0774 61.1683 46.317C61.1683 46.5565 61.0732 46.7863 60.9038 46.9557C60.7344 47.1251 60.5046 47.2202 60.2651 47.2202H60.6456C60.7649 47.2191 60.8832 47.2417 60.9938 47.2866C61.1043 47.3315 61.2049 47.3979 61.2896 47.4819C61.3744 47.5659 61.4416 47.6658 61.4875 47.7759C61.5335 47.8861 61.5571 48.0042 61.5571 48.1235C61.5571 48.2428 61.5335 48.3609 61.4875 48.4711C61.4416 48.5812 61.3744 48.6811 61.2896 48.7651C61.2049 48.8491 61.1043 48.9155 60.9938 48.9604C60.8832 49.0053 60.7649 49.0279 60.6456 49.0268H60.6452ZM57.3077 58.803C55.8234 58.803 54.3724 59.2432 53.1382 60.0678C51.9041 60.8924 50.9422 62.0645 50.3742 63.4358C49.8061 64.8072 49.6575 66.3161 49.9471 67.7719C50.2367 69.2277 50.9514 70.5649 52.001 71.6145C53.0506 72.664 54.3878 73.3788 55.8436 73.6684C57.2994 73.9579 58.8083 73.8093 60.1796 73.2413C61.5509 72.6733 62.723 71.7114 63.5477 70.4772C64.3723 69.2431 64.8125 67.7921 64.8125 66.3078C64.8125 65.3223 64.6184 64.3464 64.2412 63.4358C63.8641 62.5253 63.3113 61.698 62.6144 61.0011C61.9175 60.3042 61.0902 59.7514 60.1796 59.3743C59.2691 58.9971 58.2932 58.803 57.3077 58.803ZM61.4027 65.402L59.3181 67.0774C59.2878 67.1013 59.2652 67.1336 59.2533 67.1703C59.2414 67.207 59.2407 67.2464 59.2513 67.2835L59.953 69.8642C59.9635 69.9029 59.962 69.9439 59.9487 69.9818C59.9354 70.0196 59.9108 70.0525 59.8784 70.0761C59.8459 70.0997 59.8071 70.1128 59.767 70.1138C59.7268 70.1148 59.6874 70.1036 59.6538 70.0816L57.4162 68.6167C57.3842 68.5952 57.3464 68.5837 57.3079 68.5837C57.2693 68.5837 57.2316 68.5952 57.1995 68.6167L54.9619 70.0816C54.9283 70.1036 54.8889 70.1148 54.8488 70.1138C54.8087 70.1128 54.7698 70.0997 54.7373 70.0761C54.7049 70.0525 54.6804 70.0196 54.667 69.9818C54.6537 69.9439 54.6522 69.9029 54.6627 69.8642L55.3644 67.2835C55.375 67.2464 55.3743 67.207 55.3624 67.1703C55.3505 67.1336 55.328 67.1013 55.2976 67.0774L53.213 65.402C53.1817 65.3768 53.1588 65.3428 53.1474 65.3043C53.1359 65.2659 53.1365 65.2249 53.1489 65.1867C53.1613 65.1486 53.185 65.1151 53.2168 65.0907C53.2487 65.0664 53.2872 65.0523 53.3273 65.0503L55.9986 64.9201C56.0372 64.9186 56.0744 64.9058 56.1056 64.8831C56.1369 64.8604 56.1606 64.8289 56.1738 64.7927L57.1231 62.2924C57.1375 62.2551 57.1629 62.223 57.1959 62.2004C57.2289 62.1777 57.268 62.1656 57.308 62.1656C57.348 62.1656 57.3871 62.1777 57.4201 62.2004C57.4531 62.223 57.4785 62.2551 57.4929 62.2924L58.4422 64.7927C58.4554 64.8289 58.4792 64.8604 58.5104 64.8831C58.5416 64.9058 58.5789 64.9187 58.6175 64.9201L61.2888 65.0503C61.3288 65.0523 61.3673 65.0665 61.3991 65.0909C61.4309 65.1153 61.4545 65.1488 61.4669 65.1869C61.4792 65.225 61.4797 65.266 61.4683 65.3044C61.4568 65.3428 61.4339 65.3768 61.4027 65.402ZM36.6922 40.5551C35.6762 40.5551 34.683 40.8564 33.8383 41.4208C32.9935 41.9853 32.3351 42.7876 31.9463 43.7262C31.5575 44.6649 31.4558 45.6977 31.654 46.6942C31.8523 47.6906 32.3415 48.6059 33.0599 49.3243C33.7783 50.0427 34.6936 50.532 35.6901 50.7302C36.6866 50.9284 37.7194 50.8267 38.6581 50.4379C39.5967 50.049 40.399 49.3906 40.9634 48.5459C41.5279 47.7011 41.8291 46.708 41.8291 45.692C41.8292 45.0174 41.6963 44.3494 41.4381 43.7261C41.18 43.1029 40.8016 42.5366 40.3246 42.0596C39.8476 41.5826 39.2813 41.2042 38.658 40.946C38.0348 40.6879 37.3668 40.555 36.6922 40.5551ZM37.2859 49.0487V49.3183C37.2859 49.4758 37.2234 49.6268 37.112 49.7382C37.0007 49.8495 36.8496 49.9121 36.6922 49.9121C36.5347 49.9121 36.3837 49.8495 36.2723 49.7382C36.161 49.6268 36.0984 49.4758 36.0984 49.3183V49.0371C35.2188 48.8527 34.5019 48.271 34.2789 47.3753C34.2603 47.2997 34.2568 47.2213 34.2685 47.1444C34.2802 47.0675 34.307 46.9936 34.3473 46.9271C34.3876 46.8605 34.4405 46.8026 34.5032 46.7565C34.5659 46.7104 34.637 46.6772 34.7126 46.6586C34.7881 46.64 34.8666 46.6365 34.9434 46.6482C35.0203 46.6599 35.0942 46.6867 35.1607 46.727C35.2273 46.7673 35.2852 46.8202 35.3313 46.8829C35.3774 46.9456 35.4107 47.0167 35.4293 47.0923C35.5765 47.6831 36.1937 47.93 36.7535 47.9165C36.8079 47.9153 36.875 47.9098 36.9547 47.9002C37.3432 47.8531 37.9506 47.6652 37.9391 47.1792C37.9391 47.1666 37.9364 47.1414 37.9317 47.1033C37.8587 46.5016 37.0965 46.3372 36.6026 46.256C35.5472 46.0828 34.5124 45.5812 34.4537 44.3721C34.4035 43.3393 35.1399 42.5853 36.0987 42.3562V42.0659C36.0987 41.9084 36.1613 41.7574 36.2726 41.646C36.384 41.5347 36.535 41.4721 36.6925 41.4721C36.8499 41.4721 37.001 41.5347 37.1123 41.646C37.2236 41.7574 37.2862 41.9084 37.2862 42.0659V42.3479C37.6508 42.4263 37.9907 42.5925 38.2766 42.8319C38.5625 43.0713 38.7858 43.3768 38.927 43.722C38.9833 43.8663 38.981 44.0269 38.9206 44.1695C38.8602 44.3122 38.7464 44.4256 38.6035 44.4855C38.4607 44.5454 38.3001 44.5471 38.156 44.4903C38.0119 44.4334 37.8957 44.3225 37.8322 44.1812C37.5943 43.6145 37.0002 43.3796 36.4216 43.4961C36.0099 43.5789 35.614 43.8519 35.6366 44.3167C35.6628 44.8585 36.3616 45.0166 36.7927 45.0873C37.8837 45.2665 38.9599 45.7256 39.1099 46.9644C39.1162 47.0163 39.1202 47.0789 39.1219 47.1516C39.1476 48.2375 38.2619 48.8697 37.286 49.049L37.2859 49.0487ZM36.6922 38.1875C35.2079 38.1875 33.7569 38.6276 32.5227 39.4523C31.2886 40.2769 30.3267 41.449 29.7586 42.8203C29.1906 44.1916 29.042 45.7006 29.3316 47.1564C29.6212 48.6122 30.3359 49.9494 31.3855 50.999C32.435 52.0485 33.7723 52.7633 35.228 53.0529C36.6838 53.3424 38.1928 53.1938 39.5641 52.6258C40.9354 52.0578 42.1075 51.0959 42.9322 49.8617C43.7568 48.6276 44.1969 47.1766 44.1969 45.6923C44.1969 43.7019 43.4063 41.793 41.9988 40.3856C40.5914 38.9782 38.6825 38.1875 36.6922 38.1875ZM36.6922 52.0166C35.4413 52.0166 34.2185 51.6457 33.1785 50.9507C32.1385 50.2558 31.3278 49.2681 30.8492 48.1124C30.3705 46.9568 30.2452 45.6852 30.4893 44.4583C30.7333 43.2315 31.3357 42.1046 32.2202 41.2201C33.1046 40.3357 34.2316 39.7333 35.4584 39.4893C36.6852 39.2453 37.9568 39.3705 39.1125 39.8492C40.2681 40.3279 41.2558 41.1386 41.9507 42.1786C42.6457 43.2187 43.0166 44.4414 43.0166 45.6923C43.0165 47.3696 42.3502 48.9782 41.1641 50.1642C39.9781 51.3502 38.3695 52.0166 36.6922 52.0166ZM47.6753 60.2334C47.5179 60.2334 47.3669 60.1708 47.2555 60.0595C47.1442 59.9481 47.0816 59.7971 47.0816 59.6396C47.0816 59.4821 47.1442 59.3311 47.2555 59.2198C47.3669 59.1084 47.5179 59.0459 47.6753 59.0459H49.0391C49.1966 59.0459 49.3476 59.1084 49.459 59.2198C49.5703 59.3311 49.6329 59.4821 49.6329 59.6396C49.6329 59.7971 49.5703 59.9481 49.459 60.0595C49.3476 60.1708 49.1966 60.2334 49.0391 60.2334H47.6753ZM46.8433 56.7353C46.7315 56.8446 46.5812 56.9054 46.4248 56.9045C46.2685 56.9036 46.1189 56.8412 46.0083 56.7306C45.8978 56.6201 45.8353 56.4704 45.8344 56.3141C45.8335 56.1578 45.8944 56.0074 46.0036 55.8956L46.9677 54.9312C47.0226 54.8751 47.0881 54.8304 47.1604 54.7997C47.2327 54.7691 47.3104 54.7531 47.3889 54.7526C47.4675 54.7522 47.5453 54.7673 47.6179 54.7972C47.6906 54.827 47.7566 54.871 47.8121 54.9265C47.8676 54.9821 47.9116 55.048 47.9415 55.1207C47.9713 55.1933 47.9864 55.2712 47.986 55.3497C47.9856 55.4282 47.9695 55.5059 47.9389 55.5782C47.9082 55.6505 47.8635 55.716 47.8074 55.7709L46.8431 56.7352L46.8433 56.7353ZM42.5683 53.5486V54.9123C42.5683 55.0697 42.6308 55.2207 42.7422 55.3321C42.8535 55.4434 43.0046 55.506 43.162 55.506C43.3195 55.506 43.4705 55.4434 43.5819 55.3321C43.6932 55.2207 43.7558 55.0697 43.7558 54.9123V53.5486C43.7558 53.3911 43.6932 53.2401 43.5819 53.1287C43.4705 53.0174 43.3195 52.9548 43.162 52.9548C43.0046 52.9548 42.8535 53.0174 42.7422 53.1287C42.6308 53.2401 42.5683 53.3911 42.5683 53.5486ZM34.0562 63.9968L38.6814 68.6222L36.2514 71.0524C35.638 71.6657 34.8061 72.0103 33.9387 72.0103C33.0713 72.0103 32.2394 71.6658 31.626 71.0524C31.0127 70.4391 30.6681 69.6072 30.6681 68.7397C30.6681 67.8723 31.0126 67.0404 31.626 66.4271L34.0562 63.9968ZM34.6774 62.9387L39.702 67.9638C41.333 67.0118 43.0988 66.4214 44.8677 65.962L36.5737 57.6681C36.0978 59.419 35.5444 61.285 34.6768 62.9387H34.6774ZM36.9303 56.3448C36.991 56.1202 37.0516 55.8995 37.112 55.6826C37.1584 55.5154 37.2478 55.3632 37.3714 55.2414C37.495 55.1195 37.6484 55.0322 37.8163 54.9883C37.9842 54.9443 38.1607 54.9452 38.3282 54.9908C38.4957 55.0364 38.6482 55.1252 38.7706 55.2483L41.7642 58.2419L41.831 58.1751C42.0101 57.9939 42.2232 57.8499 42.4581 57.7514C42.6931 57.6529 42.9452 57.6018 43.1999 57.6011C43.4546 57.6003 43.707 57.65 43.9425 57.7471C44.178 57.8443 44.392 57.987 44.5721 58.1671C44.7522 58.3473 44.895 58.5612 44.9921 58.7967C45.0892 59.0322 45.1389 59.2846 45.1381 59.5393C45.1374 59.7941 45.0863 60.0462 44.9878 60.2811C44.8893 60.516 44.7453 60.7292 44.5641 60.9082L44.4973 60.975L47.3399 63.8176C47.466 63.9431 47.5561 64.1003 47.6006 64.2726C47.6451 64.4449 47.6425 64.626 47.5929 64.797C47.5433 64.9679 47.4486 65.1223 47.3188 65.2441C47.189 65.3658 47.0288 65.4504 46.8551 65.4889C46.6436 65.5364 46.4316 65.5846 46.219 65.6336L36.9303 56.3448Z" fill="#F24E1E"/>
</g>
<line y1="18.5" x2="94" y2="18.5" stroke="black"/>
<defs>
<filter id="filter0_d_1465_515" x="0" y="0" width="98" height="98" filterUnits="userSpaceOnUse" color-interpolation-filters="sRGB">
<feFlood flood-opacity="0" result="BackgroundImageFix"/>
<feColorMatrix in="SourceAlpha" type="matrix" values="0 0 0 0 0 0 0 0 0 0 0 0 0 0 0 0 0 0 127 0" result="hardAlpha"/>
<feOffset dx="4" dy="4"/>
<feComposite in2="hardAlpha" operator="out"/>
<feColorMatrix type="matrix" values="0 0 0 0 0 0 0 0 0 0 0 0 0 0 0 0 0 0 1 0"/>
<feBlend mode="normal" in2="BackgroundImageFix" result="effect1_dropShadow_1465_515"/>
<feBlend mode="normal" in="SourceGraphic" in2="effect1_dropShadow_1465_515" result="shape"/>
</filter>
<clipPath id="clip0_1465_515">
<rect width="60" height="60" fill="white" transform="translate(17 26)"/>
</clipPath>
</defs>
</svg>