<svg xmlns:xlink="http://www.w3.org/1999/xlink" xmlns="http://www.w3.org/2000/svg" width="98" height="98" viewBox="0 0 98 98" fill="none">
<g filter="url(#filter0_d_1371_472)">
<rect width="94" height="94" rx="11" fill="#FFE8DB"/>
<rect x="0.5" y="0.5" width="93" height="93" rx="10.5" stroke="black"/>
</g>
<g clip-path="url(#clip0_1371_472)">
<circle cx="47" cy="56" r="30" fill="white"/>
<path fill-rule="evenodd" clip-rule="evenodd" d="M63.4124 66.6683C63.4124 63.4975 60.8373 60.9241 57.6683 60.9241C54.4975 60.9241 51.9241 63.4975 51.9241 66.6683C51.9241 69.8373 54.4975 72.4124 57.6683 72.4124C60.8373 72.4124 63.4124 69.8373 63.4124 66.6683ZM60.7613 66.6683C60.7613 68.3738 59.3738 69.7613 57.6683 69.7613C55.9609 69.7613 54.5752 68.3738 54.5752 66.6683C54.5752 64.9609 55.9609 63.5752 57.6683 63.5752C59.3738 63.5752 60.7613 64.9609 60.7613 66.6683Z" fill="#FF9B62"/>
<path fill-rule="evenodd" clip-rule="evenodd" d="M50.5349 67.9939H53.1224C53.8542 67.9939 54.448 67.3983 54.448 66.6684C54.448 65.9366 53.8542 65.3428 53.1224 65.3428H50.5349C49.8032 65.3428 49.2093 65.9366 49.2093 66.6684C49.2093 67.3983 49.8032 67.9939 50.5349 67.9939Z" fill="#FF9B62"/>
<path fill-rule="evenodd" clip-rule="evenodd" d="M53.5873 72.5856L55.4184 70.7546C55.9345 70.2385 55.9345 69.3972 55.4184 68.8811C54.9005 68.3632 54.061 68.3632 53.5432 68.8811L51.7121 70.7104C51.196 71.2282 51.196 72.0678 51.7121 72.5856C52.2299 73.1035 53.0695 73.1035 53.5873 72.5856Z" fill="#FF9B62"/>
<path fill-rule="evenodd" clip-rule="evenodd" d="M58.9939 73.6743V71.0868C58.9939 70.3551 58.3982 69.7612 57.6683 69.7612C56.9366 69.7612 56.3427 70.3551 56.3427 71.0868V73.6743C56.3427 74.4061 56.9366 74.9999 57.6683 74.9999C58.3982 74.9999 58.9939 74.4061 58.9939 73.6743Z" fill="#FF9B62"/>
<path fill-rule="evenodd" clip-rule="evenodd" d="M63.5857 70.6221L61.7546 68.791C61.2385 68.2749 60.3972 68.2749 59.8811 68.791C59.3632 69.3089 59.3632 70.1484 59.8811 70.6663L61.7104 72.4973C62.2283 73.0134 63.0678 73.0134 63.5857 72.4973C64.1035 71.9795 64.1035 71.1399 63.5857 70.6221Z" fill="#FF9B62"/>
<path fill-rule="evenodd" clip-rule="evenodd" d="M64.6744 65.3428H62.0869C61.3552 65.3428 60.7613 65.9366 60.7613 66.6684C60.7613 67.3983 61.3552 67.9939 62.0869 67.9939H64.6744C65.4061 67.9939 66 67.3983 66 66.6684C66 65.9366 65.4061 65.3428 64.6744 65.3428Z" fill="#FF9B62"/>
<path fill-rule="evenodd" clip-rule="evenodd" d="M61.7104 60.712L59.8811 62.5431C59.3632 63.061 59.3632 63.9005 59.8811 64.4183C60.3972 64.9344 61.2385 64.9344 61.7546 64.4183L63.5857 62.5873C64.1035 62.0694 64.1035 61.2299 63.5857 60.712C63.0678 60.1959 62.2283 60.1959 61.7104 60.712Z" fill="#FF9B62"/>
<path fill-rule="evenodd" clip-rule="evenodd" d="M56.3427 59.5349V62.1225C56.3427 62.8542 56.9366 63.4481 57.6683 63.4481C58.3982 63.4481 58.9939 62.8542 58.9939 62.1225V59.5349C58.9939 58.8032 58.3982 58.2094 57.6683 58.2094C56.9366 58.2094 56.3427 58.8032 56.3427 59.5349Z" fill="#FF9B62"/>
<path fill-rule="evenodd" clip-rule="evenodd" d="M51.7121 62.4989L53.5432 64.3282C54.061 64.846 54.9005 64.846 55.4184 64.3282C55.9345 63.8121 55.9345 62.9708 55.4184 62.4547L53.5873 60.6236C53.0695 60.1058 52.2299 60.1058 51.7121 60.6236C51.196 61.1415 51.196 61.981 51.7121 62.4989Z" fill="#FF9B62"/>
<path fill-rule="evenodd" clip-rule="evenodd" d="M28 48.4884V68.3721C28 72.0325 30.9675 75 34.6279 75H54.8722C54.7326 74.7066 54.6389 74.3867 54.5965 74.0509C53.3822 75.0371 51.5936 74.9647 50.4624 73.8353C49.3454 72.7182 49.2623 70.9579 50.2132 69.7436C48.6561 69.5828 47.4419 68.266 47.4419 66.6683C47.4419 65.0369 48.7073 63.699 50.3087 63.5823C49.2588 62.3681 49.31 60.5282 50.4624 59.374C51.5936 58.2447 53.3822 58.1722 54.5965 59.1584C54.7838 57.6278 56.0882 56.4419 57.6683 56.4419C59.266 56.4419 60.5828 57.6561 60.7436 59.2132C61.9579 58.2623 63.7182 58.3454 64.8353 59.4624C65.9647 60.5936 66.0371 62.3822 65.0509 63.5965C65.3867 63.6389 65.7066 63.7326 66 63.8722V48.4884H28ZM40.0221 52.0462L37.3233 60.1447C37.0917 60.8375 37.4664 61.5887 38.161 61.8202C38.8556 62.0517 39.6068 61.677 39.8383 60.9824L42.5372 52.884C42.7687 52.1894 42.394 51.4382 41.6994 51.2067C41.0048 50.9769 40.2537 51.3516 40.0221 52.0462ZM34.6226 52.8769L31.9237 55.5776C31.4059 56.0937 31.4059 56.9332 31.9237 57.4511L34.6226 60.1517C35.1405 60.6678 35.98 60.6678 36.4979 60.1517C37.014 59.6339 37.014 58.7943 36.4979 58.2765L34.7357 56.5143L36.4979 54.7522C37.014 54.2343 37.014 53.3948 36.4979 52.8769C35.98 52.3608 35.1405 52.3608 34.6226 52.8769ZM43.3626 54.7522L45.1247 56.5143L43.3626 58.2765C42.8465 58.7943 42.8465 59.6339 43.3626 60.1517C43.8805 60.6678 44.72 60.6678 45.2379 60.1517L47.9367 57.4511C48.4546 56.9332 48.4546 56.0937 47.9367 55.5776L45.2379 52.8769C44.72 52.3608 43.8805 52.3608 43.3626 52.8769C42.8465 53.3948 42.8465 54.2343 43.3626 54.7522ZM28 45.8372H66V43.6279C66 39.9675 63.0325 37 59.3721 37H34.6279C30.9675 37 28 39.9675 28 43.6279V45.8372ZM48.3256 40.5349C49.0573 40.5349 49.6512 41.1287 49.6512 41.8605C49.6512 42.5922 49.0573 43.186 48.3256 43.186C47.5939 43.186 47 42.5922 47 41.8605C47 41.1287 47.5939 40.5349 48.3256 40.5349ZM53.186 40.5349C53.9178 40.5349 54.5116 41.1287 54.5116 41.8605C54.5116 42.5922 53.9178 43.186 53.186 43.186C52.4543 43.186 51.8605 42.5922 51.8605 41.8605C51.8605 41.1287 52.4543 40.5349 53.186 40.5349ZM58.0465 40.5349C58.7782 40.5349 59.3721 41.1287 59.3721 41.8605C59.3721 42.5922 58.7782 43.186 58.0465 43.186C57.3148 43.186 56.7209 42.5922 56.7209 41.8605C56.7209 41.1287 57.3148 40.5349 58.0465 40.5349Z" fill="#FF9B62"/>
</g>
<line y1="18.5" x2="94" y2="18.5" stroke="black"/>
<defs>
<filter id="filter0_d_1371_472" x="0" y="0" width="98" height="98" filterUnits="userSpaceOnUse" color-interpolation-filters="sRGB">
<feFlood flood-opacity="0" result="BackgroundImageFix"/>
<feColorMatrix in="SourceAlpha" type="matrix" values="0 0 0 0 0 0 0 0 0 0 0 0 0 0 0 0 0 0 127 0" result="hardAlpha"/>
<feOffset dx="4" dy="4"/>
<feComposite in2="hardAlpha" operator="out"/>
<feColorMatrix type="matrix" values="0 0 0 0 0 0 0 0 0 0 0 0 0 0 0 0 0 0 1 0"/>
<feBlend mode="normal" in2="BackgroundImageFix" result="effect1_dropShadow_1371_472"/>
<feBlend mode="normal" in="SourceGraphic" in2="effect1_dropShadow_1371_472" result="shape"/>
</filter>
<clipPath id="clip0_1371_472">
<rect width="60" height="60" fill="white" transform="translate(17 26)"/>
</clipPath>
</defs>
</svg>