<svg xmlns:xlink="http://www.w3.org/1999/xlink" xmlns="http://www.w3.org/2000/svg" width="98" height="98" viewBox="0 0 98 98" fill="none">
<g filter="url(#filter0_d_1371_569)">
<rect width="94" height="94" rx="11" fill="#DAFACC"/>
<rect x="0.5" y="0.5" width="93" height="93" rx="10.5" stroke="black"/>
</g>
<g clip-path="url(#clip0_1371_569)">
<circle cx="47" cy="56" r="30" fill="white"/>
<path d="M59.6667 72.625H34.3333C33.2839 72.6237 32.2778 72.2063 31.5358 71.4642C30.7937 70.7222 30.3763 69.7161 30.375 68.6667V43.3333C30.3763 42.2839 30.7937 41.2778 31.5358 40.5358C32.2778 39.7937 33.2839 39.3763 34.3333 39.375H59.6667C60.7161 39.3763 61.7222 39.7937 62.4642 40.5358C63.2063 41.2778 63.6237 42.2839 63.625 43.3333V68.6667C63.6237 69.7161 63.2063 70.7222 62.4642 71.4642C61.7222 72.2063 60.7161 72.6237 59.6667 72.625ZM34.3333 40.9583C33.7034 40.9583 33.0994 41.2086 32.654 41.654C32.2086 42.0994 31.9583 42.7034 31.9583 43.3333V68.6667C31.9583 69.2966 32.2086 69.9006 32.654 70.346C33.0994 70.7914 33.7034 71.0417 34.3333 71.0417H59.6667C60.2966 71.0417 60.9006 70.7914 61.346 70.346C61.7914 69.9006 62.0417 69.2966 62.0417 68.6667V43.3333C62.0417 42.7034 61.7914 42.0994 61.346 41.654C60.9006 41.2086 60.2966 40.9583 59.6667 40.9583H34.3333Z" fill="#438E22"/>
<path d="M59.6667 39.375H34.3333C33.2839 39.3763 32.2778 39.7937 31.5358 40.5358C30.7937 41.2778 30.3763 42.2839 30.375 43.3333V46.5C30.375 46.71 30.4584 46.9113 30.6069 47.0598C30.7553 47.2083 30.9567 47.2917 31.1667 47.2917H62.8333C63.0433 47.2917 63.2447 47.2083 63.3931 47.0598C63.5416 46.9113 63.625 46.71 63.625 46.5V43.3333C63.6237 42.2839 63.2063 41.2778 62.4642 40.5358C61.7222 39.7937 60.7161 39.3763 59.6667 39.375ZM36.7083 44.125H35.125C34.915 44.125 34.7137 44.0416 34.5652 43.8931C34.4167 43.7447 34.3333 43.5433 34.3333 43.3333C34.3333 43.1234 34.4167 42.922 34.5652 42.7735C34.7137 42.6251 34.915 42.5417 35.125 42.5417H36.7083C36.9183 42.5417 37.1197 42.6251 37.2681 42.7735C37.4166 42.922 37.5 43.1234 37.5 43.3333C37.5 43.5433 37.4166 43.7447 37.2681 43.8931C37.1197 44.0416 36.9183 44.125 36.7083 44.125ZM40.6667 44.125H39.0833C38.8734 44.125 38.672 44.0416 38.5235 43.8931C38.3751 43.7447 38.2917 43.5433 38.2917 43.3333C38.2917 43.1234 38.3751 42.922 38.5235 42.7735C38.672 42.6251 38.8734 42.5417 39.0833 42.5417H40.6667C40.8766 42.5417 41.078 42.6251 41.2265 42.7735C41.3749 42.922 41.4583 43.1234 41.4583 43.3333C41.4583 43.5433 41.3749 43.7447 41.2265 43.8931C41.078 44.0416 40.8766 44.125 40.6667 44.125ZM44.625 44.125H43.0417C42.8317 44.125 42.6303 44.0416 42.4819 43.8931C42.3334 43.7447 42.25 43.5433 42.25 43.3333C42.25 43.1234 42.3334 42.922 42.4819 42.7735C42.6303 42.6251 42.8317 42.5417 43.0417 42.5417H44.625C44.835 42.5417 45.0363 42.6251 45.1848 42.7735C45.3333 42.922 45.4167 43.1234 45.4167 43.3333C45.4167 43.5433 45.3333 43.7447 45.1848 43.8931C45.0363 44.0416 44.835 44.125 44.625 44.125ZM58.875 44.125H54.125C53.915 44.125 53.7137 44.0416 53.5652 43.8931C53.4167 43.7447 53.3333 43.5433 53.3333 43.3333C53.3333 43.1234 53.4167 42.922 53.5652 42.7735C53.7137 42.6251 53.915 42.5417 54.125 42.5417H58.875C59.085 42.5417 59.2863 42.6251 59.4348 42.7735C59.5833 42.922 59.6667 43.1234 59.6667 43.3333C59.6667 43.5433 59.5833 43.7447 59.4348 43.8931C59.2863 44.0416 59.085 44.125 58.875 44.125Z" fill="#438E22"/>
<path d="M53.175 56.1211C52.9536 55.8363 52.67 55.606 52.3459 55.4478C52.0218 55.2896 51.6658 55.2076 51.3051 55.2083H43.242L43.1256 53.8078C43.0874 53.3442 42.914 52.902 42.6267 52.5361C42.3395 52.1701 41.9511 51.8966 41.5098 51.7495L40.1252 51.288C40.0264 51.2551 39.9221 51.242 39.8183 51.2495C39.7145 51.2569 39.6132 51.2847 39.5201 51.3313C39.427 51.3779 39.344 51.4424 39.2759 51.5211C39.2077 51.5998 39.1558 51.6911 39.1229 51.7899C39.0901 51.8886 39.077 51.9929 39.0844 52.0967C39.0919 52.2005 39.1197 52.3019 39.1663 52.3949C39.2129 52.488 39.2774 52.571 39.3561 52.6391C39.4347 52.7073 39.5261 52.7593 39.6248 52.7921L41.0095 53.2537C41.1564 53.3027 41.2858 53.3938 41.3815 53.5157C41.4772 53.6376 41.535 53.7848 41.5478 53.9392L42.132 60.9471C42.1843 61.5396 42.4559 62.0913 42.8935 62.4941C43.3312 62.897 43.9035 63.1219 44.4983 63.125H50.515C51.0447 63.1251 51.5592 62.9481 51.9768 62.6222C52.3944 62.2963 52.691 61.8401 52.8195 61.3263L53.6112 58.1596C53.6993 57.8091 53.7058 57.443 53.6301 57.0896C53.5545 56.7362 53.3988 56.4049 53.175 56.1211Z" fill="#438E22"/>
<path d="M44.625 67.0833C45.4994 67.0833 46.2083 66.3744 46.2083 65.5C46.2083 64.6255 45.4994 63.9166 44.625 63.9166C43.7505 63.9166 43.0416 64.6255 43.0416 65.5C43.0416 66.3744 43.7505 67.0833 44.625 67.0833Z" fill="#438E22"/>
<path d="M50.1667 67.0833C51.0412 67.0833 51.75 66.3744 51.75 65.5C51.75 64.6255 51.0412 63.9166 50.1667 63.9166C49.2923 63.9166 48.5834 64.6255 48.5834 65.5C48.5834 66.3744 49.2923 67.0833 50.1667 67.0833Z" fill="#438E22"/>
</g>
<line y1="18.5" x2="94" y2="18.5" stroke="black"/>
<defs>
<filter id="filter0_d_1371_569" x="0" y="0" width="98" height="98" filterUnits="userSpaceOnUse" color-interpolation-filters="sRGB">
<feFlood flood-opacity="0" result="BackgroundImageFix"/>
<feColorMatrix in="SourceAlpha" type="matrix" values="0 0 0 0 0 0 0 0 0 0 0 0 0 0 0 0 0 0 127 0" result="hardAlpha"/>
<feOffset dx="4" dy="4"/>
<feComposite in2="hardAlpha" operator="out"/>
<feColorMatrix type="matrix" values="0 0 0 0 0 0 0 0 0 0 0 0 0 0 0 0 0 0 1 0"/>
<feBlend mode="normal" in2="BackgroundImageFix" result="effect1_dropShadow_1371_569"/>
<feBlend mode="normal" in="SourceGraphic" in2="effect1_dropShadow_1371_569" result="shape"/>
</filter>
<clipPath id="clip0_1371_569">
<rect width="60" height="60" fill="white" transform="translate(17 26)"/>
</clipPath>
</defs>
</svg>