<svg width="30" height="30" viewBox="0 0 30 30" fill="none" xmlns="http://www.w3.org/2000/svg">
<path d="M19.3774 4.26731C19.3774 4.26731 19.0755 4.36064 18.5623 4.53175C18.4717 4.25176 18.3509 3.89399 18.1698 3.55177C17.5962 2.41625 16.7509 1.82515 15.7245 1.8096C15.6491 1.8096 15.5887 1.8096 15.5132 1.82515C15.483 1.79404 15.4528 1.74738 15.4226 1.71627C14.9849 1.2185 14.4113 0.985174 13.7321 1.00073C12.4189 1.04739 11.1057 2.02737 10.034 3.76955C9.27924 4.9984 8.72075 6.53836 8.55472 7.72055C7.04528 8.20276 5.98868 8.54498 5.95849 8.54498C5.18868 8.79386 5.17358 8.82497 5.06792 9.55606C4.99245 10.116 3 26.0445 3 26.0445L19.5736 29V4.2362C19.4981 4.2362 19.4226 4.25176 19.3774 4.26731V4.26731ZM15.5434 5.49617C14.6679 5.77616 13.7019 6.08726 12.7509 6.38281C13.0226 5.30951 13.5358 4.25175 14.1698 3.55177C14.4113 3.28734 14.7283 3.00734 15.1208 2.83624C15.483 3.62955 15.5585 4.73396 15.5434 5.49617ZM13.7472 1.90293C14.0491 1.90293 14.3208 1.96515 14.5472 2.1207C14.1849 2.30736 13.8528 2.58735 13.5208 2.94512C12.6906 3.86288 12.0415 5.30951 11.7849 6.69391C10.9849 6.9428 10.2151 7.19168 9.49057 7.42501C9.9434 5.23173 11.7245 1.96515 13.7472 1.90293V1.90293ZM11.1811 14.3315C11.2717 15.7781 14.9849 16.1048 15.1962 19.5114C15.3623 22.1868 13.8226 24.0224 11.5887 24.1623C8.93207 24.3335 7.45283 22.7157 7.45283 22.7157L8.01132 20.2424C8.01132 20.2424 9.49057 21.3935 10.6679 21.3158C11.4377 21.2691 11.7094 20.6158 11.6943 20.1647C11.5736 18.2669 8.55472 18.3758 8.37358 15.2648C8.20755 12.636 9.88302 9.99161 13.566 9.74272C15 9.64939 15.7245 10.0227 15.7245 10.0227L14.8792 13.2737C14.8792 13.2737 13.9434 12.8382 12.8264 12.9004C11.1962 13.0093 11.166 14.0671 11.1811 14.3315ZM16.4189 5.21617C16.4038 4.53175 16.3283 3.56733 16.0113 2.74291C17.0075 2.94512 17.5057 4.0962 17.717 4.79619C17.3396 4.92063 16.9019 5.06062 16.4189 5.21617V5.21617ZM20.117 28.9378L27 27.18C27 27.18 24.0415 6.55392 24.0264 6.41392C24.0113 6.27392 23.8906 6.19615 23.7849 6.18059C23.6792 6.16504 21.7472 6.13393 21.7472 6.13393C21.7472 6.13393 20.5698 4.95174 20.117 4.50064V28.9378V28.9378Z" fill="black"/>
</svg>
