<svg width="48" height="48" viewBox="0 0 48 48" fill="none" xmlns="http://www.w3.org/2000/svg">
<path d="M2.4176 30.5777C2.3372 30.5809 2.29569 30.5594 2.25779 30.5254C2.20639 30.4793 2.1473 30.3902 2.1189 30.2647C2.0905 30.1392 2.10529 30.0328 2.13199 29.9684C2.15189 29.9205 2.18059 29.8827 2.25469 29.8507C9.10389 26.8949 13.5866 24.1488 16.1722 20.1924C18.7705 16.2167 19.3234 11.2231 18.8807 4.13667C18.8766 4.07047 18.8921 4.02557 18.9413 3.97107C19.0037 3.90187 19.1222 3.82407 19.2852 3.78347C19.4483 3.74307 19.5895 3.75627 19.677 3.78817C19.746 3.81327 19.7808 3.84577 19.8082 3.90617C22.6206 10.12 25.3418 14.1973 29.2409 16.5424C33.1399 18.8875 38.0179 19.3811 44.8261 18.9557C44.8923 18.9516 44.937 18.9672 44.9916 19.0164C45.0606 19.0787 45.1384 19.1972 45.1792 19.3603C45.2195 19.5233 45.2062 19.6645 45.1742 19.752C45.1494 19.821 45.1169 19.8558 45.0567 19.8832C38.8426 22.6956 34.7655 25.4168 32.4203 29.3159C30.0752 33.2149 29.5816 38.0931 30.007 44.9013C30.0098 44.946 30.0023 44.9913 29.9367 45.0613C29.8577 45.1452 29.7105 45.239 29.5107 45.2909C29.3113 45.3427 29.1316 45.3339 29.0127 45.2969C28.9101 45.2649 28.8742 45.2224 28.852 45.1789C25.697 38.9344 22.4474 35.0719 18.1959 32.8935C13.9731 30.7296 8.9303 30.3182 2.4176 30.5777Z" fill="#F8F9FC" stroke="#F8F9FC" stroke-width="4"/>
<path d="M1.31417 27.8194C1.23367 27.8226 1.19217 27.8011 1.15427 27.7671C1.10297 27.721 1.04387 27.6319 1.01537 27.5064C0.986974 27.3809 1.00177 27.2745 1.02857 27.2101C1.04837 27.1622 1.07707 27.1244 1.15127 27.0924C8.00037 24.1366 12.4831 21.3905 15.0687 17.4341C17.6671 13.4584 18.22 8.46477 17.7773 1.37837C17.7731 1.31217 17.7887 1.26727 17.8378 1.21277C17.9002 1.14357 18.0187 1.06577 18.1818 1.02517C18.3448 0.98477 18.486 0.99797 18.5735 1.02987C18.6425 1.05497 18.6774 1.08747 18.7047 1.14787C21.5171 7.36167 24.2383 11.439 28.1375 13.7841C32.0365 16.1292 36.9144 16.6228 43.7226 16.1974C43.7889 16.1933 43.8335 16.2089 43.8882 16.2581C43.9571 16.3204 44.0349 16.4389 44.0757 16.602C44.116 16.765 44.1028 16.9062 44.0708 16.9937C44.046 17.0627 44.0134 17.0975 43.9533 17.1249C37.7393 19.9373 33.662 22.6585 31.3169 26.5576C28.9718 30.4566 28.4782 35.3346 28.9036 42.143C28.9063 42.1877 28.8989 42.233 28.8332 42.303C28.7543 42.3869 28.6071 42.4807 28.4073 42.5326C28.2079 42.5844 28.0281 42.5756 27.9092 42.5386C27.8066 42.5066 27.7707 42.4641 27.7486 42.4206C24.5935 36.176 21.3439 32.3136 17.0925 30.1352C12.8696 27.9713 7.82677 27.5599 1.31417 27.8194Z" fill="#ED1B24" stroke="#F8F9FC" stroke-width="2"/>
</svg>
