<svg width="127" height="85" viewBox="0 0 127 85" fill="none" xmlns="http://www.w3.org/2000/svg">
<g clip-path="url(#clip0_1_161)">
<path d="M14.2497 7.73044C13.8715 9.71727 13.1971 11.7022 13.1858 13.6903C13.1092 16.5595 13.3693 19.4278 13.961 22.2378C18.0371 39.5608 27.1916 54.0314 42.436 63.2613C57.993 72.6794 75.0276 73.5269 91.8064 65.3318C100.142 61.2091 107.579 55.5093 113.695 48.5554C114.821 47.295 115.978 46.0629 117.857 44.0158L119.183 53.51L120.358 53.5867C120.732 52.8394 121.29 52.1284 121.447 51.3402C122.268 47.2172 123.027 43.0824 123.725 38.9358C124.178 36.2721 124.657 33.4037 122.183 31.4882C119.523 29.4292 116.522 30.3428 113.99 31.8183C110.521 33.8891 107.18 36.1637 103.987 38.6299C103.323 39.1313 103.394 40.5794 103.124 41.5923C104.146 41.8501 105.346 42.5785 106.152 42.2751C108.654 41.3338 111.005 40.0022 113.468 38.796C113.519 39.1635 113.637 39.418 113.556 39.5312C97.2488 62.168 74.3442 71.9031 48.6963 61.8429C47.4385 61.3494 46.2363 60.7271 45.1094 59.9864C29.0003 49.3582 19.0817 34.6907 15.9048 15.7403C15.4812 13.2224 15.7894 10.5856 15.7582 8.00394C15.2564 7.91196 14.7535 7.8208 14.2497 7.73044Z" fill="#BC3432"/>
</g>
<defs>
<clipPath id="clip0_1_161">
<rect width="126" height="84" fill="white" transform="matrix(1 0 0 -1 0.951172 84.9922)"/>
</clipPath>
</defs>
</svg>
