<svg width="28" height="29" viewBox="0 0 28 29" fill="none" xmlns="http://www.w3.org/2000/svg">
<circle cx="14" cy="14.728" r="14" fill="black"/>
<path d="M17.868 12.4347C17.868 12.4347 16.5707 16.5033 16.4647 16.8393C16.138 14.2894 15.8082 11.7398 15.4753 9.19067C13.2647 9.19067 12.0827 10.764 11.458 12.4247L9.748 16.8493C9.738 16.532 9.508 12.4727 9.508 12.4727C9.372 10.438 7.508 9.19934 6 9.19934L7.826 20.266C10.142 20.256 11.3907 18.692 12.0447 17.0313C12.0447 17.0313 13.438 13.4327 13.4953 13.2693C13.5053 13.4227 14.4953 20.2653 14.4953 20.2653C16.8207 20.2653 18.07 18.7973 18.742 17.1947L22 9.20001C19.7033 9.20001 18.4927 10.764 17.868 12.434V12.4347Z" fill="white"/>
</svg>
