<svg width="30" height="31" viewBox="0 0 30 31" fill="none" xmlns="http://www.w3.org/2000/svg">
<g clip-path="url(#clip0_412_156)">
<path d="M1.81031 7.5583C3.06031 5.34518 4.85988 3.58289 7.20901 2.27141C9.55815 0.959937 12.1551 0.304199 15 0.304199C18.5775 0.304199 21.8103 1.51322 24.6982 3.93125C23.9224 3.8083 23.1465 3.95174 22.3707 4.36158C21.3362 4.93535 20.765 5.80625 20.6573 6.97428C20.5495 8.14231 21.0991 9.11567 22.306 9.89436C23.6853 10.714 24.375 12.2714 24.375 14.5665C24.375 14.9763 24.0732 15.837 23.4698 17.1485C22.8663 18.4599 22.2629 19.669 21.6594 20.7755L20.7543 22.4353L17.2629 11.1239C17.1767 10.5911 17.1336 10.2427 17.1336 10.0788C17.1336 9.75092 17.2413 9.48453 17.4569 9.27961C17.6724 8.99272 17.8448 8.84928 17.9741 8.84928H19.6551V7.5583H10.6681V8.84928H10.9913C11.1207 8.84928 11.4008 9.0542 11.8319 9.46404C11.9181 9.546 12.3275 10.4681 13.0603 12.2304L14.3534 16.3493L11.5732 22.4968L8.46979 10.2017C8.556 9.62797 8.66375 9.3001 8.79307 9.21813C8.92238 8.97223 9.09479 8.84928 9.31031 8.84928H9.37496V7.5583H1.81031ZM3.556 9.70994C3.08186 9.13617 2.58617 8.84928 2.06893 8.84928H1.29307C0.517203 10.4067 0.129272 12.2714 0.129272 14.4435C0.129272 17.3124 0.96979 19.9149 2.65082 22.2509C4.33186 24.587 6.53013 26.3083 9.24565 27.4149L3.556 9.70994ZM27.8017 7.49682C28.1465 8.84928 28.0388 10.3452 27.4784 11.9845C26.3146 15.5911 24.181 20.755 21.0775 27.4763C23.75 26.3698 25.8836 24.6587 27.4784 22.3431C29.0732 20.0276 29.8707 17.4558 29.8707 14.628C29.8707 12.005 29.181 9.62797 27.8017 7.49682ZM15.3232 19.4231L11.5086 28.2755C12.8017 28.5624 13.9655 28.7058 15 28.7058C16.0344 28.7058 17.2413 28.5624 18.6207 28.2755L15.3232 19.4231Z" fill="black"/>
</g>
<defs>
<clipPath id="clip0_412_156">
<rect width="30" height="30" fill="white" transform="translate(0 0.242676)"/>
</clipPath>
</defs>
</svg>
