<svg width="1920" height="400" viewBox="0 0 1920 400" fill="none" xmlns="http://www.w3.org/2000/svg">
<mask id="mask0_55_15" style="mask-type:luminance" maskUnits="userSpaceOnUse" x="0" y="0" width="1920" height="72">
<path d="M1920 0H0V71.7703H1920V0Z" fill="white"/>
</mask>
<g mask="url(#mask0_55_15)">
<path d="M760.543 67.0582C797.327 68.8706 844.366 66.7678 883.429 63.2161C921.841 59.6637 998.828 46.1798 1047.01 37.3356C1170.38 13.9926 1264.62 5.07587 1360.49 1.30618C1398.9 -0.216183 1439.75 -1.23112 1528.78 3.11852C1617.82 7.46815 1920 71.7703 1920 71.7703H1701.64H73.8462H0C0 71.7703 191.035 26.1716 331.663 27.6939C395.466 28.2014 482.707 32.551 549.765 43.9325C584.271 49.8049 634.727 57.1262 679.487 61.4761C723.759 66.0434 743.778 66.3331 760.543 67.0582Z" fill="#F8F9FC"/>
</g>
<path d="M0.0273438 72H1919.96L1920 400H0L0.0273438 72Z" fill="#F8F9FC"/>
</svg>
