<svg xmlns:xlink="http://www.w3.org/1999/xlink" xmlns="http://www.w3.org/2000/svg" width="40" height="40" viewBox="0 0 40 40" fill="none">
          <g clip-path="url(#clip0_1472_276)" fill="none">
            <path d="M11.9988 12.3447H9.78983L15.812 29.3679L19.1834 19.7337L16.5695 12.3447H14.2389V10.7227H24.5596V12.3447H22.1427L28.1648 29.3679L30.3295 23.1818C33.1692 15.2562 28.0021 12.7874 28.0021 11.0186C28.0021 9.2498 29.436 7.81599 31.2047 7.81599C31.3004 7.81599 31.3933 7.82117 31.4844 7.82966C28.4875 5.00055 24.4464 3.26562 19.9998 3.26562C14.1896 3.26562 9.07163 6.22724 6.07141 10.7227H11.9986V12.3447H11.9988Z" fill="#00769D"></path>
            <path d="M3.26562 20.0001C3.26562 26.4069 6.86664 31.9718 12.1545 34.7839L4.60258 13.4363C3.74231 15.4517 3.26562 17.6702 3.26562 20.0001Z" fill="#00769D"></path>
            <path d="M34.5638 11.7539C34.8031 13.1633 34.7307 14.7474 34.3634 16.3377H34.4299L34.1769 17.0607C34.027 17.5828 33.8382 18.1168 33.6237 18.6416L27.8656 34.7731C33.1424 31.9576 36.7342 26.3987 36.7342 20C36.7342 17.0017 35.9449 14.1879 34.5638 11.7539Z" fill="#00769D"></path>
            <path d="M14.8389 35.922C16.4646 36.4486 18.1987 36.7343 19.9999 36.7343C21.718 36.7343 23.3753 36.475 24.9356 35.994L20.0406 22.157L14.8389 35.922Z" fill="#00769D"></path>
            <path d="M34.1421 5.85783C30.3646 2.08035 25.3421 0 19.9999 0C14.6577 0 9.63531 2.08035 5.85783 5.85783C2.08035 9.63531 0 14.6577 0 20C0 25.3422 2.08035 30.3646 5.85783 34.1421C9.63531 37.9196 14.6578 39.9999 20 39.9999C25.3422 39.9999 30.3646 37.9196 34.1422 34.1421C37.9196 30.3646 40 25.3421 40 20C39.9999 14.6577 37.9196 9.63531 34.1421 5.85783ZM19.9999 38.5891C9.74986 38.5891 1.41085 30.25 1.41085 20C1.41085 9.74995 9.74986 1.41085 19.9999 1.41085C30.25 1.41085 38.589 9.74995 38.589 20C38.589 30.25 30.25 38.5891 19.9999 38.5891Z" fill="#00769D"></path>
          </g>
          <defs>
            <clipPath id="clip0_1472_276">
              <rect width="40" height="40" fill="white"></rect>
            </clipPath>
          </defs>
        </svg>