<svg xmlns:xlink="http://www.w3.org/1999/xlink" xmlns="http://www.w3.org/2000/svg" width="40" height="40" viewBox="0 0 40 40" fill="none">
          <path d="M13.9691 39C17.264 39 19.9382 36.1627 19.9382 32.6667V26.3335H13.9691C10.6742 26.3335 8 29.1708 8 32.6667C8 36.1627 10.6742 39 13.9691 39Z" fill="#0ACF83"></path>
          <path d="M8 19.9993C8 16.5033 10.6742 13.666 13.9691 13.666H19.9382V26.3325H13.9691C10.6742 26.3325 8 23.4952 8 19.9993Z" fill="#A259FF"></path>
          <path d="M8 7.33325C8 3.8373 10.6742 1 13.9691 1H19.9382V13.6665H13.9691C10.6742 13.6665 8 10.8292 8 7.33325Z" fill="#F24E1E"></path>
          <path d="M19.9381 1H25.9072C29.2021 1 31.8763 3.8373 31.8763 7.33325C31.8763 10.8292 29.2021 13.6665 25.9072 13.6665H19.9381V1Z" fill="#FF7262"></path>
          <path d="M31.8763 19.9993C31.8763 23.4952 29.2021 26.3325 25.9072 26.3325C22.6123 26.3325 19.9381 23.4952 19.9381 19.9993C19.9381 16.5033 22.6123 13.666 25.9072 13.666C29.2021 13.666 31.8763 16.5033 31.8763 19.9993Z" fill="#1ABCFE"></path>
        </svg>