<svg xmlns:xlink="http://www.w3.org/1999/xlink" xmlns="http://www.w3.org/2000/svg" width="40" height="40" viewBox="0 0 40 40" fill="none">
          <path d="M33 1H7C3.13401 1 0 4.07997 0 7.87931V32.1207C0 35.92 3.13401 39 7 39H33C36.866 39 40 35.92 40 32.1207V7.87931C40 4.07997 36.866 1 33 1Z" fill="#330000"></path>
          <path d="M20.1235 24.375H14.5313L13.0876 28.5438C13.0709 28.6813 12.9839 28.75 12.8266 28.75H10.2016C10.0266 28.75 9.96568 28.6641 10.0188 28.4922L15.0844 13.4469C15.2275 12.9888 15.2981 12.5112 15.2938 12.0313C15.291 12.0101 15.2931 11.9885 15.2999 11.9683C15.3068 11.948 15.3182 11.9296 15.3333 11.9145C15.3484 11.8994 15.3668 11.888 15.3871 11.8811C15.4073 11.8743 15.4289 11.8722 15.4501 11.875H19.1251C19.2313 11.875 19.2922 11.9188 19.3094 12.0031L24.9782 28.5188C25.0313 28.675 24.9876 28.75 24.8469 28.75H21.9079C21.8535 28.7533 21.7994 28.7401 21.7526 28.7122C21.7058 28.6844 21.6684 28.6431 21.6454 28.5938L20.1235 24.375ZM15.1563 21.5625H19.5126C19.4079 21.3328 17.4485 15.0109 17.3079 14.4781H17.2829L15.1563 21.5625Z" fill="#FF9A00"></path>
          <path d="M28.1109 15C27.8646 15.0105 27.6186 14.9716 27.3875 14.8854C27.1564 14.7993 26.945 14.6677 26.7656 14.4984C26.5901 14.32 26.4536 14.107 26.3649 13.873C26.2761 13.6389 26.237 13.389 26.25 13.1391C26.2384 12.8859 26.2795 12.6331 26.3706 12.3967C26.4618 12.1603 26.6011 11.9454 26.7797 11.7656C26.9605 11.5935 27.1739 11.4592 27.4074 11.3707C27.6408 11.2822 27.8896 11.2411 28.1391 11.25C28.389 11.237 28.6389 11.2761 28.873 11.3649C29.107 11.4536 29.32 11.5901 29.4984 11.7656C29.6693 11.9496 29.8016 12.1659 29.8877 12.4018C29.9739 12.6376 30.012 12.8883 30 13.1391C30.013 13.389 29.9739 13.6389 29.8851 13.873C29.7964 14.107 29.6599 14.32 29.4844 14.4984C29.3004 14.6693 29.0841 14.8016 28.8482 14.8877C28.6124 14.9739 28.3617 15.012 28.1109 15Z" fill="#FF9A00"></path>
          <path d="M26.5625 28.5157V16.4594C26.5583 16.4309 26.5608 16.4019 26.5699 16.3746C26.5789 16.3472 26.5942 16.3224 26.6145 16.302C26.6349 16.2817 26.6597 16.2664 26.6871 16.2574C26.7144 16.2483 26.7434 16.2458 26.7719 16.25H29.4782C29.5066 16.2462 29.5355 16.2489 29.5627 16.2581C29.5898 16.2672 29.6145 16.2825 29.6348 16.3028C29.6551 16.3231 29.6704 16.3477 29.6795 16.3749C29.6887 16.4021 29.6914 16.431 29.6875 16.4594V28.5407C29.6917 28.5691 29.6892 28.5982 29.6802 28.6255C29.6712 28.6528 29.6559 28.6777 29.6355 28.698C29.6152 28.7184 29.5903 28.7337 29.563 28.7427C29.5357 28.7517 29.5066 28.7542 29.4782 28.75H26.7969C26.7651 28.7544 26.7327 28.7514 26.7023 28.7412C26.6718 28.731 26.6441 28.7138 26.6214 28.6911C26.5987 28.6684 26.5816 28.6408 26.5714 28.6103C26.5611 28.5799 26.5581 28.5475 26.5625 28.5157Z" fill="#FF9A00"></path>
        </svg>