<svg xmlns:xlink="http://www.w3.org/1999/xlink" xmlns="http://www.w3.org/2000/svg" width="40" height="40" viewBox="0 0 40 40" fill="none">
          <path d="M14.7466 30.3325C14.7466 30.3325 13.2973 31.1754 15.7781 31.4606C18.7837 31.8034 20.3197 31.7543 23.6318 31.1274C23.6318 31.1274 24.5027 31.6734 25.7187 32.1464C18.2939 35.3285 8.91472 31.962 14.7466 30.3325ZM13.8393 26.1799C13.8393 26.1799 12.2137 27.3833 14.6964 27.64C17.907 27.9713 20.4425 27.9984 24.8298 27.1536C24.8298 27.1536 25.4367 27.7688 26.3909 28.1052C17.4137 30.7303 7.41485 28.3122 13.8393 26.1799Z" fill="#5382A1"></path>
          <path d="M21.488 19.1358C23.3175 21.2421 21.0073 23.1375 21.0073 23.1375C21.0073 23.1375 25.6527 20.7394 23.5193 17.7364C21.5267 14.9361 19.9987 13.5445 28.2708 8.74707C28.2708 8.74707 15.2863 11.9901 21.488 19.1358Z" fill="#E76F00"></path>
          <path d="M31.3079 33.4037C31.3079 33.4037 32.3805 34.2874 30.1267 34.9711C25.841 36.2695 12.289 36.6615 8.52427 35.0228C7.171 34.4342 9.70886 33.6172 10.5071 33.4456C11.3396 33.2651 11.8155 33.2988 11.8155 33.2988C10.3104 32.2385 2.08761 35.3806 7.63871 36.2803C22.7772 38.7354 35.2346 35.1749 31.3079 33.4037ZM15.4435 21.8772C15.4435 21.8772 8.55018 23.5145 13.0025 24.109C14.8823 24.3607 18.6298 24.3038 22.1205 24.0112C24.9733 23.7707 27.8379 23.259 27.8379 23.259C27.8379 23.259 26.8319 23.6898 26.1042 24.1867C19.1041 26.0278 5.58108 25.1713 9.47418 23.2881C12.7666 21.6966 15.4435 21.8772 15.4435 21.8772ZM27.8094 28.7892C34.9255 25.0915 31.6353 21.5381 29.3388 22.0169C28.7759 22.1339 28.525 22.2354 28.525 22.2354C28.525 22.2354 28.734 21.9081 29.133 21.7665C33.6761 20.1692 37.1702 26.4773 27.6664 28.9756C27.6664 28.9757 27.7766 28.8773 27.8094 28.7892Z" fill="#5382A1"></path>
          <path d="M23.5193 1.00011C23.5193 1.00011 27.4603 4.94251 19.7815 11.0045C13.624 15.8674 18.3774 18.64 19.779 21.8079C16.1847 18.565 13.5469 15.7102 15.3166 13.0533C17.9139 9.15298 25.1094 7.26216 23.5193 1.00011Z" fill="#E76F00"></path>
          <path d="M16.1429 38.8091C22.9733 39.2463 33.4622 38.5665 33.7106 35.3345C33.7106 35.3345 33.2331 36.5598 28.0656 37.5328C22.2357 38.6298 15.0454 38.5018 10.7806 37.7986C10.7807 37.7986 11.6536 38.5212 16.1429 38.8091Z" fill="#5382A1"></path>
        </svg>