<svg xmlns:xlink="http://www.w3.org/1999/xlink" xmlns="http://www.w3.org/2000/svg" width="40" height="40" viewBox="0 0 40 40" fill="none">
          <path d="M14.2945 38.9975C11.9904 38.0126 9.83427 35.5094 9.82912 32.9482C9.82284 30.1558 11.6124 27.785 13.8382 26.227C13.5706 27.2267 13.4246 28.1411 14.0876 29.0353C14.7038 29.8667 15.7831 30.2707 16.8023 30.0514C19.1836 29.5359 19.2929 26.9471 17.8811 25.4389C16.4853 23.9453 15.135 22.2583 15.6663 20.0923C15.9323 19.0065 16.6065 17.9895 17.4605 17.2625C16.8041 18.9685 18.6696 20.6509 19.8987 21.489C22.0308 22.9429 24.3702 24.0418 26.3306 25.7462C28.3927 27.5374 29.9155 29.9594 29.608 32.7686C29.2748 35.8133 26.8281 37.9309 24.0838 39C29.883 37.7343 35.8751 33.2834 35.9979 26.9234C36.0996 21.691 32.4698 17.6642 27.9734 15.3589L27.7385 15.2321C27.8619 15.5282 27.9023 15.78 27.8976 16.0055C27.9378 15.8392 27.9652 15.6683 27.9729 15.492C27.9718 15.7015 27.9442 15.91 27.8905 16.1126L27.8976 16.0055C27.8309 16.2833 27.7184 16.5483 27.5647 16.7901L27.6307 16.7199C26.7337 18.1912 24.3052 18.5107 23.1055 16.9872C21.1769 14.5366 23.1459 11.8944 23.4213 9.29926C23.7661 6.04686 21.7035 2.88945 19.1462 1C20.5547 3.25318 18.699 6.23414 17.2144 7.90067C15.7748 9.51613 14.024 10.8649 12.4348 12.3327C10.7276 13.9092 9.0864 15.5699 7.68317 17.4202C4.87671 21.1236 3.1586 25.7815 4.4212 30.4018C5.68299 35.0189 9.72727 37.9581 14.2945 38.9975Z" fill="#EE4323"></path>
        </svg>