<svg xmlns:xlink="http://www.w3.org/1999/xlink" xmlns="http://www.w3.org/2000/svg" width="40" height="40" viewBox="0 0 40 40" fill="none">
          <g clip-path="url(#clip0_1465_380)" fill="none">
            <path d="M7.08336 0.5H32.9167C36.8334 0.5 40 3.66664 40 7.58336V32.4167C40 36.3334 36.8334 39.5001 32.9166 39.5001H7.08336C3.16664 39.5 0 36.3334 0 32.4166V7.58336C0 3.66664 3.16664 0.5 7.08336 0.5Z" fill="#54001A"></path>
            <path d="M14.5334 10.7001V27.8001C14.5334 27.9835 14.4501 28.0668 14.3001 28.0668H11.0334C10.8834 28.0668 10.8168 27.9834 10.8168 27.8001V10.7001C10.8168 10.5501 10.9001 10.4835 11.0501 10.4835H14.3001C14.4001 10.4668 14.5001 10.5335 14.5168 10.6501C14.5334 10.6668 14.5334 10.6835 14.5334 10.7001Z" fill="#FF3068"></path>
            <path d="M24.1334 28.3335C22.9 28.3501 21.6667 28.1001 20.55 27.5835C19.5 27.1001 18.6334 26.3001 18.0334 25.3168C17.4167 24.3002 17.1167 23.0335 17.1167 21.5168C17.1001 20.2835 17.4167 19.0668 18.0334 18.0002C18.6667 16.9168 19.5834 16.0168 20.6834 15.4168C21.85 14.7668 23.25 14.4502 24.9 14.4502C24.9834 14.4502 25.1 14.4502 25.25 14.4668C25.4 14.4835 25.5666 14.4835 25.7666 14.5002V9.23355C25.7666 9.11691 25.8166 9.05019 25.9333 9.05019H29.3166C29.4 9.03355 29.4666 9.10019 29.4833 9.16683V9.20019V25.0668C29.4833 25.3668 29.4999 25.7002 29.5166 26.0668C29.55 26.4168 29.5666 26.7502 29.5833 27.0335C29.5833 27.1501 29.5333 27.2501 29.4166 27.3001C28.55 27.6668 27.6333 27.9335 26.7 28.1001C25.8666 28.2501 25 28.3335 24.1334 28.3335ZM25.7666 25.0001V17.6668C25.6166 17.6334 25.4666 17.6001 25.3166 17.5834C25.1333 17.5668 24.95 17.55 24.7666 17.55C24.1166 17.55 23.4666 17.6834 22.8833 17.9834C22.3166 18.2668 21.8333 18.6834 21.4666 19.2168C21.1 19.7501 20.9166 20.4668 20.9166 21.3334C20.9 21.9168 21 22.5 21.2 23.05C21.3666 23.5 21.6166 23.9 21.95 24.2334C22.2666 24.5334 22.65 24.7668 23.0834 24.9C23.5334 25.05 24 25.1167 24.4667 25.1167C24.7167 25.1167 24.9501 25.1 25.1667 25.0833C25.3834 25.1001 25.5834 25.0668 25.7666 25.0001Z" fill="#FF3068"></path>
          </g>
          <defs>
            <clipPath id="clip0_1465_380">
              <rect width="40" height="40" fill="white"></rect>
            </clipPath>
          </defs>
        </svg>