<svg xmlns:xlink="http://www.w3.org/1999/xlink" xmlns="http://www.w3.org/2000/svg" width="40" height="40" viewBox="0 0 40 40" fill="none">
          <path d="M33 1H7C3.13401 1 0 4.07997 0 7.87931V32.1207C0 35.92 3.13401 39 7 39H33C36.866 39 40 35.92 40 32.1207V7.87931C40 4.07997 36.866 1 33 1Z" fill="#470137"></path>
          <path d="M20.5266 12.1312L15.9141 20.0562L20.8844 28.4937C20.986 28.6655 20.9422 28.7499 20.7563 28.7499H17.6563C17.5795 28.758 17.5021 28.7428 17.4341 28.7063C17.3661 28.6698 17.3107 28.6137 17.275 28.5452L13.7766 22.128H13.75L10.3438 28.5452C10.3125 28.6063 10.265 28.6576 10.2067 28.6937C10.1483 28.7298 10.0812 28.7492 10.0125 28.7499H7.03128C6.86097 28.7499 6.82816 28.6655 6.92972 28.4937L11.8172 20.2874L7.16097 12.0796C7.05941 11.9437 7.09378 11.8749 7.26253 11.8749H10.3688C10.4354 11.8701 10.502 11.8845 10.5607 11.9164C10.6193 11.9482 10.6677 11.9962 10.7 12.0546L13.9813 18.3952H14.0063L17.2703 12.0546C17.3026 11.9964 17.3507 11.9486 17.4091 11.9168C17.4674 11.885 17.5337 11.8705 17.6 11.8749H20.425C20.6125 11.8749 20.6453 11.9609 20.5266 12.1312Z" fill="#FF61F6"></path>
          <path d="M28.1047 29.0624C26.2922 29.0624 24.8969 28.5483 23.8141 27.5218C22.7313 26.4952 22.1875 24.978 22.1875 22.9686C22.1875 21.1426 22.7698 19.6426 23.9344 18.4686C24.5303 17.8519 25.2468 17.3643 26.0392 17.0364C26.8317 16.7084 27.6831 16.5471 28.5406 16.5624C28.9244 16.5556 29.3076 16.5965 29.6813 16.6843V11.3968C29.6784 11.377 29.6802 11.3568 29.6865 11.3378C29.6928 11.3188 29.7034 11.3015 29.7174 11.2873C29.7315 11.273 29.7487 11.2623 29.7676 11.2558C29.7866 11.2493 29.8067 11.2473 29.8266 11.2499H32.6828C32.7625 11.2499 32.8031 11.2983 32.8031 11.3968V26.2015C32.8031 26.8265 33.0734 27.3593 33.1156 27.8155C33.1242 27.8607 33.1168 27.9075 33.0945 27.9477C33.0722 27.9879 33.0366 28.0191 32.9938 28.0358C31.5922 28.7202 29.7547 29.0624 28.1047 29.0624ZM29.6875 26.6421V19.0843C29.5859 18.9061 29.0484 18.7499 28.4984 18.7499C28.0432 18.7381 27.5911 18.8281 27.1751 19.0132C26.7591 19.1984 26.3897 19.4741 26.0938 19.8202C25.3731 20.6642 24.9843 21.7417 25 22.8515C25 24.2202 25.4688 25.1577 26.0797 25.8093C26.3685 26.1404 26.7241 26.4066 27.1233 26.5903C27.5224 26.774 27.956 26.871 28.3953 26.8749C28.9781 26.8749 29.5484 26.7874 29.6875 26.6421Z" fill="#FF61F6"></path>
        </svg>