<svg xmlns:xlink="http://www.w3.org/1999/xlink" xmlns="http://www.w3.org/2000/svg" width="40" height="40" viewBox="0 0 40 40" fill="none">
          <g clip-path="url(#clip0_1465_394)" fill="none">
            <path d="M7.0833 0.5H32.9166C36.8287 0.5 40 3.67135 40 7.5833V32.4166C40 36.3287 36.8287 39.5 32.9166 39.5H7.0833C3.17135 39.4999 0 36.3287 0 32.4166V7.5833C0 3.67127 3.17135 0.5 7.0833 0.5Z" fill="#00005B"></path>
            <path d="M16.0692 23.8333H9.87064L8.60954 27.7585C8.57416 27.9058 8.43895 28.0072 8.28751 28H5.14803C4.96901 28 4.90637 27.9015 4.96018 27.7048L10.3269 12.3126C10.3805 12.1517 10.4342 11.9943 10.4878 11.7884C10.5581 11.4304 10.5941 11.0665 10.5952 10.7017C10.5823 10.6109 10.6454 10.5267 10.7362 10.5138C10.7518 10.5117 10.7675 10.5117 10.783 10.5138H15.0496C15.1744 10.5138 15.2461 10.5586 15.2643 10.648L21.3554 27.7316C21.409 27.9106 21.3554 28.0001 21.1944 28H17.706C17.5821 28.0137 17.4672 27.9333 17.4377 27.8121L16.0692 23.8333ZM12.9565 13.5738H12.9296L10.8367 20.5236H15.0763L12.9565 13.5738Z" fill="#9999FF"></path>
            <path d="M31.2302 22.3056H25.9441C26.0088 22.8286 26.1825 23.3324 26.4539 23.784C26.754 24.2314 27.1784 24.5811 27.6748 24.7903C28.3476 25.0814 29.0753 25.224 29.8081 25.2084C30.3895 25.1972 30.9689 25.1336 31.5389 25.0184C32.0487 24.9495 32.5483 24.8193 33.027 24.6305C33.1162 24.5592 33.1611 24.6037 33.1611 24.7647V27.3138C33.1656 27.3833 33.1517 27.4527 33.1208 27.5151C33.0901 27.5639 33.0488 27.6052 33.0001 27.6359C32.4693 27.871 31.9106 28.0374 31.3377 28.1311C30.5594 28.2773 29.7682 28.3447 28.9764 28.3324C27.706 28.3324 26.6415 28.1357 25.7832 27.7421C24.9717 27.3846 24.255 26.8424 23.6902 26.1589C23.1626 25.5149 22.7702 24.7711 22.5364 23.972C22.3048 23.1833 22.1873 22.3656 22.1875 21.5436C22.185 20.6461 22.3255 19.7539 22.6034 18.9006C22.8712 18.0682 23.2946 17.2942 23.8512 16.6197C25.0778 15.1335 26.7659 14.5142 28.6543 14.5142C30.2817 14.5142 31.951 15.0531 33.0013 16.3514C33.4409 16.9187 33.777 17.5591 33.9942 18.2431C34.2056 18.9023 34.3142 19.5901 34.3162 20.2825C34.3162 20.6761 34.3027 21.0339 34.2759 21.3558C34.2491 21.6778 34.2268 21.9104 34.2089 22.0534C34.1944 22.1759 34.0906 22.2682 33.9674 22.2682C33.86 22.2682 33.6766 22.2816 33.4173 22.3084C33.1578 22.3352 32.8358 22.3531 32.4514 22.362C32.0662 22.3711 31.6596 22.3056 31.2302 22.3056ZM25.9441 19.8612H29.4592C29.8886 19.8612 30.2061 19.8567 30.4118 19.8477C30.5494 19.834 30.6824 19.7899 30.801 19.7188V19.5577C30.7956 19.3478 30.7595 19.1399 30.6937 18.9406C30.3961 17.9997 29.5064 17.3736 28.5202 17.4111C27.5975 17.3554 26.729 17.8501 26.3065 18.6722C26.1224 19.0465 26.0001 19.448 25.9441 19.8612Z" fill="#9999FF"></path>
          </g>
          <defs>
            <clipPath id="clip0_1465_394">
              <rect width="40" height="40" fill="white"></rect>
            </clipPath>
          </defs>
        </svg>