<svg xmlns:xlink="http://www.w3.org/1999/xlink" xmlns="http://www.w3.org/2000/svg" width="40" height="40" viewBox="0 0 40 40" fill="none">
          <path d="M19.6639 1C10.1169 1 10.713 5.14752 10.713 5.14752L10.7236 9.44447H19.8342V10.7345H7.10509C7.10509 10.7345 0.995972 10.0404 0.995972 19.6904C0.995972 29.3407 6.32816 28.9985 6.32816 28.9985H9.51039V24.5204C9.51039 24.5204 9.33883 19.1787 14.7575 19.1787H23.7935C23.7935 19.1787 28.8702 19.2609 28.8702 14.2635V6.00062C28.8702 6.00062 29.6412 1 19.6639 1ZM14.6404 3.88962C14.8557 3.88942 15.0689 3.93176 15.2678 4.0142C15.4668 4.09665 15.6475 4.21758 15.7998 4.37008C15.952 4.52259 16.0727 4.70366 16.155 4.90295C16.2373 5.10225 16.2796 5.31584 16.2794 5.53151C16.2796 5.74718 16.2373 5.96077 16.155 6.16007C16.0727 6.35936 15.952 6.54043 15.7998 6.69294C15.6475 6.84544 15.4668 6.96637 15.2678 7.04882C15.0689 7.13126 14.8557 7.1736 14.6404 7.1734C14.4251 7.1736 14.2119 7.13126 14.013 7.04882C13.814 6.96637 13.6333 6.84544 13.481 6.69294C13.3288 6.54043 13.2081 6.35936 13.1258 6.16007C13.0435 5.96077 13.0012 5.74718 13.0014 5.53151C13.0012 5.31584 13.0435 5.10225 13.1258 4.90295C13.2081 4.70366 13.3288 4.52259 13.481 4.37008C13.6333 4.21758 13.814 4.09665 14.013 4.0142C14.2119 3.93176 14.4251 3.88942 14.6404 3.88962Z" fill="url(&quot;#paint0_linear_1472_325&quot;)"></path>
          <path d="M20.1762 39C29.7232 39 29.1271 34.8525 29.1271 34.8525L29.1165 30.5557H20.0059V29.2656H32.7349C32.7349 29.2656 38.8441 29.9597 38.8441 20.3094C38.8441 10.6593 33.5119 11.0015 33.5119 11.0015H30.3296V15.4795C30.3296 15.4795 30.5012 20.8211 25.0826 20.8211H16.0466C16.0466 20.8211 10.9699 20.739 10.9699 25.7365V33.9995C10.9699 33.9995 10.199 39 20.1761 39H20.1762ZM25.1998 36.1107C24.9845 36.1109 24.7713 36.0685 24.5723 35.9861C24.3734 35.9036 24.1927 35.7827 24.0404 35.6302C23.8882 35.4777 23.7675 35.2966 23.6852 35.0973C23.6029 34.898 23.5606 34.6845 23.5608 34.4688C23.5606 34.2531 23.6028 34.0395 23.6851 33.8402C23.7674 33.6409 23.8881 33.4598 24.0404 33.3073C24.1926 33.1547 24.3734 33.0338 24.5723 32.9513C24.7713 32.8689 24.9845 32.8266 25.1998 32.8267C25.4151 32.8266 25.6283 32.8689 25.8272 32.9513C26.0262 33.0338 26.2069 33.1547 26.3591 33.3072C26.5114 33.4597 26.6321 33.6408 26.7144 33.8401C26.7967 34.0394 26.839 34.253 26.8388 34.4686C26.839 34.6843 26.7967 34.8979 26.7144 35.0972C26.6321 35.2965 26.5114 35.4776 26.3591 35.6301C26.2069 35.7826 26.0262 35.9035 25.8272 35.9859C25.6283 36.0684 25.4151 36.1109 25.1998 36.1107Z" fill="url(&quot;#paint1_linear_1472_325&quot;)"></path>
          <defs>
            <linearGradient id="" x1="362.397" y1="338.092" x2="2229.36" y2="2183.15" gradientUnits="userSpaceOnUse">
              <stop stop-color="#387EB8"></stop>
              <stop offset="1" stop-color="#366994"></stop>
            </linearGradient>
            <linearGradient id="" x1="544.398" y1="587.212" x2="2549.14" y2="2478.99" gradientUnits="userSpaceOnUse">
              <stop stop-color="#FFE052"></stop>
              <stop offset="1" stop-color="#FFC331"></stop>
            </linearGradient>
          <linearGradient id="paint0_linear_1472_325" x1="362.397" y1="338.092" x2="2229.36" y2="2183.15" gradientUnits="userSpaceOnUse">
              <stop stop-color="#387EB8"></stop>
              <stop offset="1" stop-color="#366994"></stop>
            </linearGradient><linearGradient id="paint1_linear_1472_325" x1="544.398" y1="587.212" x2="2549.14" y2="2478.99" gradientUnits="userSpaceOnUse">
              <stop stop-color="#FFE052"></stop>
              <stop offset="1" stop-color="#FFC331"></stop>
            </linearGradient></defs>
        </svg>